<?xml version="1.0" encoding="utf-8"?>
<!-- Generator: Adobe Illustrator 15.1.0, SVG Export Plug-In . SVG Version: 6.00 Build 0)  -->
<!DOCTYPE svg PUBLIC "-//W3C//DTD SVG 1.1//EN" "http://www.w3.org/Graphics/SVG/1.1/DTD/svg11.dtd">
<svg version="1.1" id="Layer_1" xmlns="http://www.w3.org/2000/svg" xmlns:xlink="http://www.w3.org/1999/xlink" x="0px" y="0px"
	 width="283.439px" height="32.23px" viewBox="0 0 283.439 32.23" enable-background="new 0 0 283.439 32.23" xml:space="preserve">
<path fill="#ffffff" d="M283.44,13.51c0,0.48,0,0.96,0,1.44c-0.68,1.56-1.63,2.85-3.84,2.88c-4.74,0.18-4.49-8.67,1.2-7.2
	C282.2,11.07,282.96,12.15,283.44,13.51z M279.84,17.59c4.64-0.05,3.96-8.05-0.96-6.479c-1.41,0.26-2.08,1.28-2.4,2.64
	C276.41,16.219,277.73,17.3,279.84,17.59z M281.52,12.79c0.12,1-0.279,1.48-0.96,1.68c0,0.801,0.78,0.82,0.72,1.681
	c-0.89-0.391-0.539-2.021-2.159-1.681c-0.61,0.03-0.48,0.801-0.48,1.44c-0.5,0.17-0.12-2.59-0.24-3.6
	C279.55,12.36,281.04,12.07,281.52,12.79z M281.28,13.27c-0.239-0.88-1.489-0.75-2.64-0.721c0,0.641-0.09,1.37,0.24,1.681
	C280.09,14.32,281.12,14.23,281.28,13.27z M272.4,23.59c1.17,5.12-1.949,7.95-6,8.641c-0.8,0-1.6,0-2.399,0
	c-2.5-0.3-3.87-1.73-5.521-2.88c-0.21,0.75,0.561,2.479-0.72,2.159c-0.48,0-0.96,0-1.44,0c0.16-2.399-0.319-5.439,0.24-7.439
	c0.561,0,1.12,0,1.681,0c0.8,0.96,0.67,2.85,1.439,3.84c1.65,2.25,7.83,2.78,9.6,0.24c0.41-1.03,0.591-2.29,0.48-3.84
	c-2.42-3.341-10.11-1.41-12.24-5.04c-2.939-5.48,1.561-10.59,8.4-9.36c0.64,0.4,1.45,0.63,2.16,0.96c0.31,0.311,1.33,2,1.439,0.96
	c0.15-0.49-0.39-1.67,0.48-1.439c0.64,0,1.28,0,1.92,0c-0.16,2.399,0.32,5.439-0.24,7.439c-0.72,0-1.439,0-2.16,0
	c0.05-1.25,0-2.399-0.239-3.36c-1.91-3.289-11.021-3.699-9.841,2.641C262.09,20.94,271.2,18.31,272.4,23.59z M250.8,29.59
	c0,0.641,0,1.28,0,1.92c-5.28,0-10.56,0-15.84,0c-1.48-0.6-2.12-2.04-2.641-3.6c-0.819,2.54-2.979,3.74-5.76,4.32
	c-0.88,0-1.76,0-2.64,0c-5.18-0.021-7.58-6.46-4.8-10.8c2.689-2.511,7.909-2.49,13.199-2.4c0.28-3-0.449-4.99-1.92-6.24
	c-4.149-1.45-8.229,0.3-8.88,3.84c-0.81-0.149-2.229,0.311-2.64-0.239c-0.09-7.53,13.3-8.471,15.6-2.4
	c1.63,3.729-0.12,10.84,1.2,14.88c2.04,0.86,6.47,0.55,8.88,0.24c0-8.08,0-16.16,0-24.24c-1.2-0.16-3.03,0.311-3.84-0.24
	c0-0.72,0-1.439,0-2.159c2.08,0.159,4.8-0.32,6.48,0.239c0,8.8,0,17.601,0,26.4C247.91,29.76,250.11,28.92,250.8,29.59z
	 M221.76,28.63c5.14,3.33,11.58-0.569,10.56-7.199c-4.79,0.01-10.22-0.62-11.52,2.88C220.62,26.25,220.98,27.65,221.76,28.63z
	 M215.28,11.59c-0.159,0.88-0.909,1.17-1.199,1.92c-0.88-0.239-1.36-0.88-2.4-0.96c-7.99-0.39-6.03,9.17-6.24,16.561
	c0.65,0.55,2.32,0.09,3.36,0.24c0,0.72,0,1.439,0,2.159c-3.28,0-6.56,0-9.84,0c0-0.72,0-1.439,0-2.159c1.12,0,2.24,0,3.359,0
	c0.561-4.96,0.08-10.96,0.24-16.32c-0.79-0.49-2.43-0.13-3.6-0.24c0-0.72,0-1.439,0-2.16c2.16,0,4.319,0,6.479,0
	c0,0.96,0,1.92,0,2.88c1.41-2.27,3.48-3.88,7.681-3.359C213.82,10.65,214.85,10.82,215.28,11.59z M194.4,21.43
	c-5.52,0-11.04,0-16.56,0c-0.15,5.96,3.939,9.8,10.08,7.92c0.7-0.66,1.41-1.311,2.16-1.92c0.699-0.66,0.529-2.19,1.68-2.4
	c0.65,0.15,1.9-0.3,2.16,0.24c-0.771,4.109-3.58,6.18-7.68,6.96c-0.881,0-1.761,0-2.641,0c0-0.08,0-0.16,0-0.24
	c-9.42,0.35-10.76-14.36-5.52-19.68c2.31-1.88,6.29-2.87,10.08-1.92C191.99,12.32,194.35,15.719,194.4,21.43z M191.52,19.27
	c0.46-5.88-6.13-8.69-10.8-5.761c-1.29,1.511-2.64,2.96-2.64,5.761C182.56,19.27,187.04,19.27,191.52,19.27z M171.12,29.35
	c0,0.72,0,1.439,0,2.159c-3.04,0-6.08,0-9.12,0c0-0.72,0-1.439,0-2.159c0.96,0,1.92,0,2.88,0c0.17-6.82,2.35-18.98-6.48-16.801
	c-5.189,1.771-4.29,9.631-4.319,16.561c0.79,0.49,2.43,0.13,3.6,0.24c0,0.72,0,1.439,0,2.159c-8.08,0-16.16,0-24.24,0
	c0-0.72,0-1.439,0-2.159c1.2,0,2.4,0,3.601,0c0.56-4.96,0.08-10.96,0.239-16.32c-0.489-0.63-2.409,0.17-2.88-0.48
	c0-0.64,0-1.279,0-1.92c1.92,0,3.841,0,5.761,0c0,6.24,0,12.48,0,18.721c3.68,0,7.359,0,11.04,0c0.56-4.96,0.079-10.96,0.239-16.32
	c-0.79-0.49-2.43-0.13-3.6-0.24c0-0.72,0-1.439,0-2.16c2.08,0,4.16,0,6.24,0c0,0.88,0,1.761,0,2.641c0.76-0.21,1.84-2.15,3.12-2.641
	c2.899-1.1,7.04-0.67,8.88,1.2c2.779,3.54,1.319,11.32,1.68,17.28C168.48,29.59,170.02,29.25,171.12,29.35z M138.48,1.27
	c0.8,0.64,1.69,1.189,1.44,2.88c-0.271,1.859-4.07,1.99-4.32,0c-0.25-1.69,0.641-2.24,1.44-2.88C137.52,1.27,138,1.27,138.48,1.27z
	 M128.16,29.59c0,0.641,0,1.28,0,1.92c-2.881,0-5.761,0-8.641,0c0-0.72,0-1.439,0-2.159c1.04,0,2.08,0,3.12,0
	c0-7.841,0-15.681,0-23.521c-3.76,8.32-6.8,17.36-10.56,25.68c-0.561,0-1.12,0-1.681,0c-0.909-0.609-1.1-1.939-1.439-3.119
	c-0.641-0.881-0.8-2.24-1.44-3.12c-0.779-2.261-1.569-4.511-2.64-6.48c-1.45-4.63-3.53-8.63-5.04-13.2
	C99.28,12.95,99.76,21.35,99.6,29.11c0.65,0.47,2.101,0.14,3.12,0.24c0,0.72,0,1.439,0,2.159c-2.88,0-5.76,0-8.64,0
	c0-0.56,0-1.119,0-1.68c0.029-1.01,1.84-0.24,2.64-0.479c0.56-7.601,0.08-16.24,0.24-24.24c-0.49-0.55-1.99-0.09-2.88-0.24
	c0-0.8,0-1.6,0-2.4c2.399,0,4.8,0,7.199,0c3.28,8.4,6.53,16.83,9.841,25.2c3.39-8.3,6.729-16.63,9.84-25.2c2.399,0,4.8,0,7.2,0
	c0,0.801,0,1.601,0,2.4c-0.96,0-1.92,0-2.881,0c0,8.08,0,16.16,0,24.24C125.77,29.74,127.69,28.94,128.16,29.59z M82.32,10.15
	c4.381,1.7,7.03,5.14,6.96,11.28c-5.52,0-11.039,0-16.56,0c0.22,4.18,1.68,7.119,5.04,8.159c2.23,0.761,4.83-0.1,6.24-0.96
	c1.16-0.92,1.43-2.729,2.64-3.6c0.73,0.15,2.07-0.311,2.4,0.24c-1,3.96-3.66,6.26-7.92,6.96c-0.88,0-1.761,0-2.641,0
	c0-0.08,0-0.16,0-0.24c-2.779,0.06-4.109-1.33-5.76-2.4C66.94,22.51,70.25,7.55,82.32,10.15z M86.4,19.27
	c0.801-5.99-7.39-9.28-11.52-5.04c-0.8,1.52-1.88,2.76-1.92,5.04C77.44,19.27,81.92,19.27,86.4,19.27z M67.92,11.83
	c-0.391,0.57-0.86,1.061-1.2,1.68c-1.84-1.55-5.4-0.88-6.96,0.48c-2.69,2.99-1.37,9.99-1.68,15.36
	c1.359,0.159,3.359-0.32,4.319,0.239c0,0.641,0,1.28,0,1.92C56.23,31.36,49.46,31.81,43.68,31.27c-1.1-0.66-1.42-2.101-1.92-3.36
	c-0.85,2.51-3.02,3.7-5.76,4.32c-0.88,0-1.76,0-2.641,0c-5.02-0.05-7.55-5.971-5.04-10.561c2.57-2.79,7.98-2.739,13.44-2.64
	c0.11-2.18-0.2-3.96-0.96-5.28c-2.91-2.85-9.66-1.29-9.84,2.88c-0.811-0.149-2.23,0.311-2.641-0.239C28.4,9.99,37.01,8.65,42,11.35
	c4.109,2.689,1.42,12.18,2.88,17.52c2.55,0.97,6.78,0.26,10.08,0.48c0.56-4.96,0.08-10.96,0.24-16.32
	c-0.71-0.65-2.91,0.189-3.601-0.48c0-0.64,0-1.279,0-1.92c2.16,0,4.32,0,6.48,0c0.149,0.891-0.311,2.391,0.239,2.88
	C58.78,10.16,65.99,8.67,67.92,11.83z M38.16,29.35c2.27-1.57,3.619-4.061,3.6-7.92c-4.21,0.029-8.92-0.44-11.04,1.68
	c-0.479,1.1-0.729,3.229-0.24,4.56C31.42,29.89,35.45,30.34,38.16,29.35z M10.08,10.39C20.86,7.15,25.2,19.48,21.12,28.15
	c-1.561,2.04-3.591,3.609-6.721,4.08c-0.8,0-1.6,0-2.399,0C9.19,31.76,7.33,30.34,6,28.39c0,1.04,0,2.08,0,3.119c-2,0-4,0-6,0
	c0-0.72,0-1.439,0-2.159c0.96,0,1.92,0,2.88,0C3.44,21.75,2.96,13.11,3.12,5.11C2.55,4.56,0.97,5.02,0,4.87c0-0.8,0-1.6,0-2.4
	c2,0,4,0,6,0C6,6.15,6,9.83,6,13.51C6.81,12.88,8.29,10.84,10.08,10.39z M9.6,29.35c9.811,3.649,12.73-9.9,7.92-15.36
	c-1.43-0.89-3.62-2.3-6-1.44c-1.72,0.04-2.46,1.061-3.6,1.681C4.51,17.93,5.41,27.21,9.6,29.35z"/>
</svg>
