<?xml version="1.0" standalone="no"?>
<!DOCTYPE svg PUBLIC "-//W3C//DTD SVG 1.1//EN" "http://www.w3.org/Graphics/SVG/1.1/DTD/svg11.dtd" >
<svg xmlns="http://www.w3.org/2000/svg">
<metadata>Generated by IcoMoon</metadata>
<defs>
<font id="BareMinerals" horiz-adv-x="1024">
<font-face units-per-em="1024" ascent="960" descent="-64" />
<missing-glyph horiz-adv-x="1024" />
<glyph unicode="&#x20;" d="" horiz-adv-x="512" />
<glyph unicode="&#x61;" d="M831.917 625.507c12.764-88.425-110.444-108.207-143.647-45.146-23.784 45.146 7.921 103.159 67.719 104.657 33.164 0.821 70.081-18.961 75.928-59.511zM571.3 485.964c19.598-30.474 33.121-71.208 32.834-112.866-1.293-192.877-248.099-269.031-375.535-141.595-31.007 31.007-59.511 80.422-59.511 143.647 0 73.322 37.636 129.447 84.136 164.168 32.074 23.948 69.32 37.225 119.022 41.042 89.985 6.916 162.465-37.492 199.054-94.397z" horiz-adv-x="1018" />
<glyph unicode="&#x62;" d="M907.845 488.016c-9.747 118.714-65.154 203.774-133.387 260.617-69.012 57.52-173.444 104.924-301.659 94.397-120.294-9.871-208.268-64.457-266.774-131.335-58.054-66.365-112.291-157.827-98.501-293.451 21.444-211.018 198.151-369.44 435.046-350.91 116.313 9.091 203.897 58.177 266.774 127.23 62.774 68.951 108.844 167.452 98.501 293.451zM698.53 705.539c-121.669-13.195-234.494 16.95-363.222 10.261 86.414 70.326 285.16 59.552 363.222-10.261zM281.953 672.705c134.29 11.328 291.583-15.883 424.786-10.261 10.035 0.431 23.004 4.535 32.834 2.052 26.246-6.608 40.796-53.847 53.355-71.824-185.777-60.373-360.945 54.381-558.172 22.573 12.171 22.717 28.278 41.494 47.198 57.459zM271.692 252.024c132.833 61.502 212.495-69.341 313.972-96.449-131.642-33.655-263.613 22.491-313.972 96.449zM751.885 254.076c-28.319-32.711-65.052-72.46-131.335-65.667-98.747 10.117-157.253 117.401-268.826 121.074-41.432 1.354-74.327-9.276-110.814-26.677-10.425 16.95-19.864 34.845-28.729 53.355 27.97 26.246 68.807 41.555 116.97 43.094 116.149 3.714 185.962-109.131 301.659-121.074 43.074-4.453 92.222 5.931 135.439 20.521 1.849-8.003-8.208-17.504-14.365-24.625zM805.24 338.212c-51.467-20.398-103.652-46.398-172.377-38.99-47.67 5.13-92.776 36.979-135.439 61.563-41.678 24.030-86.188 52.452-137.491 57.459-61.419 5.992-115.103-11.471-164.168-36.938-2.298 23.004-8.27 42.355-8.208 67.719 44.715 16.868 88.897 29.284 153.908 24.625 102.174-7.326 197.761-70.264 303.711-77.98 59.778-4.35 116.539 8.947 180.585 24.625-2.811-31.397-12.559-55.838-20.521-82.084zM645.175 436.713c-144.366 10.343-285.489 128.646-455.567 57.459 5.623 25.836 10.096 52.842 20.521 73.876 204.697 49.353 404.613-83.952 601.267-12.313 7.716-27.847 15.35-55.776 16.417-90.293-54.894-17.997-115.121-33.572-182.637-28.729z" horiz-adv-x="1018" />
<glyph unicode="&#x63;" d="M907.845 492.12c11.061-134.803-33.449-228.256-96.449-301.659-62.035-72.255-145.966-124.912-262.669-137.491-117.832-12.703-233.14 32.669-303.711 94.397-71.495 62.548-124.399 145.145-137.491 262.669-14.632 131.335 37.040 235.089 94.397 303.711 55.509 66.427 148.921 128.893 264.721 139.543 133.469 12.272 236.115-35.604 305.764-96.449 69.055-60.332 125.755-146.664 135.439-264.721zM764.197 266.389c81.489 71.783 82.926 299.423 0 377.587 0-125.856 0-251.732 0-377.587zM723.155 221.242c8.578 30.351 0 77.18 0 116.97 0 116.005 0 245.062 0 350.91-25.754 26.924-59.285 46.049-96.449 61.563 0-197.679 0-395.379 0-593.058 26.146 14.59 88.119 34.209 96.449 63.615zM585.664 143.263c0 207.263 0 414.525 0 621.788-30.084 6.854-64.19 9.686-102.605 8.208-2.401-0.349-2.237-3.242-2.052-6.156 0-210.669 0-421.359 0-632.048 35.873-4.268 74.060 1.006 104.657 8.208zM439.965 141.21c0 207.94 0 415.9 0 623.84-14.221 0.513-35.789-9.337-51.303-14.365 0-197.679 0-395.379 0-593.058 15.249-7.326 33.123-12.025 51.303-16.417zM347.62 178.148c-1.375 183.314 2.729 372.108-2.052 552.016-10.548-11.040-28.381-12.62-32.834-26.677-4.494-14.18 0-40.426 0-61.563 0-143.914 0-305.292 0-439.15 8.947-10.897 21.26-18.428 34.886-24.625zM271.692 243.816c-1.375 140.22 2.729 285.92-2.052 422.733-5.52-7.326-18.1-17.812-20.521-28.729-5.294-23.928 0-59.573 0-92.345 0-89.554 0-199.875 0-279.086 4.392-4.494 6.382-11.41 12.313-14.365 1.231-3.53 9.44-17.422 10.261-8.208zM208.077 346.421c-1.375 70.449 2.729 146.377-2.052 213.419-23.066-58.382-24.954-157.807 2.052-213.419z" horiz-adv-x="1018" />
<glyph unicode="&#x64;" d="M872.959 621.403c36.876-76.626 49.989-169.258 28.729-256.513-18.284-75.025-62.856-144.694-112.866-190.846-112.517-103.836-305.394-143.545-459.671-67.719-120.52 59.224-236.259 184.792-221.627 385.796 7.716 105.95 61.645 189.368 121.074 244.2 58.485 53.97 146.028 100.964 258.565 108.762 191.587 13.277 326.246-99.917 385.796-223.679zM743.676 245.868c47.896 50.174 86.414 122.080 86.188 211.367-0.226 91.237-41.124 166.303-90.293 215.471-55.694 55.694-143.894 101.087-248.305 94.397-86.722-5.561-157.417-41.514-207.263-90.293-56.72-55.509-102.503-134.905-94.397-246.253 11.779-161.747 141.062-270.57 303.711-283.19 0 23.25 0 46.521 0 69.772 19.68-2.565 39.482 5.643 51.303 4.104 0-24.625 0-49.251 0-73.876 86.907 12.333 149.354 46.398 199.054 98.501zM517.945 422.349c7.429 103.59 69.053 186.885 186.741 182.637-50.605-60.147 9.994-248.571-49.251-307.816-30.966-30.966-102.872-26.759-125.178 10.261-18.551 30.782-15.021 76.995-12.313 114.918zM589.769 338.212c31.336-16.56 33.059 48.737 32.834 75.928-0.308 35.973-4.043 67.391-2.052 100.553-0.123 1.252-0.308 2.421-2.052 2.052-17.217-20.931-35.789-57.951-38.99-102.605-1.742-24.276-3.876-68.458 10.261-75.928zM505.632 693.226c37.040-18.366 54.011-56.802 73.876-92.345-30.166-27.97-64.457-51.816-67.719-106.709-15.473 41.986-33.080 81.838-69.772 102.605 14.16 39.195 34.414 72.296 63.615 96.449zM569.248 262.285c-11.964-19.823-29.571-22.799-47.198-24.625-99.219-10.24-178.943 52.698-186.741 153.908-5.807 75.271 15.329 164.435-22.573 213.419 67.945-12.046 111.101-23.579 145.699-63.615 40.652-47.034 35.153-117.483 38.99-186.741 2.832-51.262 20.172-91.585 71.824-92.345zM439.965 317.691c-11.204 66.775 10.178 166.138-41.042 192.898-2.257-76.502-11.882-166.179 41.042-192.898z" horiz-adv-x="1018" />
<glyph unicode="&#x65;" d="M961.199 453.13c-28.237-28.545-62.794-50.749-92.345-77.98 5.561 39.708 11.081 109.049-2.052 151.856 33.388-22.696 61.011-51.179 94.397-73.876zM899.636 672.705c-11.204-40.098-27.047-75.558-41.042-112.866-18.695 50.4-43.669 94.52-77.98 129.283 37.945 0.985 77.898-13.77 119.022-16.417zM856.542 342.317c18.141-33.162 29.92-72.686 43.094-110.814-38.641-7.88-79.375-13.646-119.022-20.521 30.332 38.744 61.317 76.851 75.928 131.335zM764.197 627.559c58.259-82.761 73.835-208.35 18.469-309.868-66.673-122.223-239.809-216.969-412.473-131.335-86.127 42.725-155.611 123.557-168.273 240.096-14.098 129.919 49.415 221.258 131.335 277.034 43.915 29.899 88.979 48.409 155.96 53.355 131.95 9.747 226.244-60.045 274.982-129.283zM273.745 457.234c157.335 0 314.649 0 471.984 0-0.287 68.725-30.966 122.818-73.876 164.168-139.644 134.515-404.654 40.652-398.108-164.168zM733.416 832.77c10.753-35.768 15.329-77.713 22.573-116.97-39.831 29.94-80.135 59.408-135.439 73.876 34.272 17.71 77.057 26.903 112.866 43.094zM753.937 188.409c-0.246-37.389-13.462-79.56-18.469-119.022-37.574 14.406-75.887 28.073-114.918 41.042 50.215 20.234 98.85 42.068 133.387 77.98zM585.664 104.273c-16.294-30.925-52.411-59.757-73.876-92.345-28.381 26.328-58.013 62.384-77.98 90.293 43.874-8.003 111.019-10.425 151.856 2.052zM507.684 890.228c27.991-26.739 57.931-62.466 77.98-90.293-46.706 10.568-107.038 9.809-153.908 0 23.784 31.623 51.633 59.183 75.928 90.293zM396.871 112.481c-35.891-16.109-74.327-29.653-114.918-41.042-3.755 40.693-14.406 74.532-18.469 114.918 38.949-30.145 80.237-57.931 133.387-73.876zM284.005 832.77c37.082-14.221 75.969-26.636 112.866-41.042-50.297-17.422-97.783-48.594-133.387-73.876 5.869 39.277 12.785 77.508 20.521 114.918zM234.755 691.174c3.099-6.669-11.040-17.135-18.469-26.677-22.183-28.524-42.561-66.242-55.407-104.657-16.109 34.516-26.698 74.532-43.094 108.762 33.983 12.538 78.678 14.344 116.97 22.573zM158.827 342.317c19.208-49.189 50.933-96.818 77.98-131.335-39.544 6.957-79.683 13.339-119.022 20.521 13.872 36.753 28.422 72.829 41.042 110.814zM150.618 527.006c-5.951-36.712-11.923-110.116 2.052-149.804-30.392 18.182-65.893 49.025-94.397 75.928 31.91 23.497 60.991 49.825 92.345 73.876z" horiz-adv-x="1018" />
<glyph unicode="&#x66;" d="M918.105 473.651c4.35-125.876-45.003-218.364-112.866-285.242-66.796-65.832-159.551-116.211-277.034-119.022-121.095-2.893-221.73 37.451-295.503 102.605-70.1 61.912-123.803 147.628-131.335 264.721-8.065 125.384 50.42 224.521 110.814 285.242 31.849 32.013 69.648 59.696 116.97 82.084 45.146 21.362 101.743 35.419 162.116 38.99 128.298 7.593 226.778-41.186 297.555-102.605 63.166-54.812 125.078-145.351 129.283-266.774zM788.823 297.17c61.461 96.654 58.649 234.35-6.156 328.337-49.23 71.413-154.749 148.654-297.555 137.491-93.925-7.347-166.22-48.779-213.419-98.501-47.65-50.194-91.996-118.673-86.188-223.679 5.048-91.278 46.891-158.853 102.605-207.263 55.612-48.327 124.891-86.722 223.679-86.188 115.78 0.616 222.553 64.108 277.034 149.804z" horiz-adv-x="1018" />
<glyph unicode="&#x67;" d="M694.426 539.319c38.087-62.404 88.323-120.294 80.032-227.784-7.86-101.928-83.623-179.374-164.168-209.315-98.665-36.692-213.46-10.65-281.138 55.407-54.73 53.416-101.087 170.427-57.459 274.982 13.954 33.449 38.846 65.154 59.511 98.501 59.265 95.608 123.229 203.836 182.637 295.503 0.39 2.339 2.052 1.149 2.052 0 58.505-95.956 118.839-189.491 178.533-287.295zM513.841 157.627c-1.375 174.429 2.729 354.337-2.052 525.339-26.657-43.033-55.468-92.037-86.188-141.595-29.16-47.034-66.406-93.104-84.136-137.491-48.635-121.772 40.878-242.087 172.377-246.253z" horiz-adv-x="1018" />
<glyph unicode="&#x68;" d="M860.646 637.82c38.703-69.731 56.207-158.033 43.094-246.253-33.819-227.619-280.194-397.965-531.495-307.816-139.317 49.989-272.909 188.157-258.565 402.212 10.199 152.061 104.76 261.972 217.523 318.076 39.749 19.762 87.42 34.537 141.595 38.99 204.718 16.807 328.706-98.686 387.848-205.21zM696.478 198.669c77.528 56.166 140.159 152.164 129.283 285.242-4.207 51.385-26.883 105.293-49.251 139.543-54.832 83.972-150.871 151.24-293.451 139.543-61.050-5.007-109.747-24.235-145.699-47.198-79.252-50.605-143.647-137.491-143.647-262.669 0-105.499 43.915-176.83 100.553-227.784 62.876-56.577 148.080-91.278 246.253-84.136 54.28 3.94 116.090 28.586 155.96 57.459zM772.406 594.725c9.706-38.703-54.545-51.138-53.355-8.208 0.246 8.701 3.837 18.059 16.417 22.573 19.269 6.916 33.511-0.698 36.938-14.365zM772.406 461.339c9.768-41.658-56.474-50.502-53.355-6.156 0.862 12.272 6.936 19.823 22.573 22.573 19.331 3.386 28.771-7.839 30.782-16.417zM739.572 344.369c44.715 10.281 38.764-51.693 6.156-51.303-24.746 0.308-40.301 43.443-6.156 51.303zM655.436 520.85c1.334-39.647-59.532-35.83-53.355 4.104 0.8 5.151 4.084 14.57 18.469 18.469 19.7 5.335 34.272-4.309 34.886-22.573zM655.436 254.076c0.944-32.054-47.424-32.546-53.355-10.261-5.233 19.68 0.882 27.744 16.417 32.834 17.381 5.684 36.222 1.621 36.938-22.573zM620.55 676.81c23.722 6.259 35.173-6.792 34.886-24.625-0.513-32.054-61.071-41.268-53.355 6.156 0.925 5.705 5.418 15.021 18.469 18.469zM618.498 410.036c38.333 12.579 47.219-41.206 20.521-49.251-29.899-9.009-57.129 37.246-20.521 49.251zM505.632 344.369c22.429 4.453 37.677-11.020 30.782-34.886-7.634-26.452-53.56-20.131-53.355 10.261 0.103 14.467 7.86 21.711 22.573 24.625zM536.414 196.617c12.046-41.74-50.605-49.661-53.355-12.313-1.211 16.355 6.279 23.291 20.521 26.677 19.99 4.761 30.332-5.705 32.834-14.365zM501.528 742.477c38.436 11.676 48.101-41.37 18.469-49.251-30.699-8.167-53.827 38.518-18.469 49.251zM499.476 609.090c41.473 15.452 47.116-42.048 20.521-49.251-27.129-7.347-55.548 36.199-20.521 49.251zM505.632 477.756c36.753 7.285 40.919-46.767 10.261-51.303-30.741-4.556-47.014 44.018-10.261 51.303zM419.444 522.902c3.714-39.831-55.14-39.216-53.355-2.052 0.349 7.203 2.401 17.915 18.469 22.573 19.105 5.541 33.306-3.694 34.886-20.521zM419.444 389.515c3.653-40.816-56.597-36.835-53.355 0 0.554 6.3 2.832 15.863 16.417 20.521 19.639 6.731 35.399-3.345 36.938-20.521zM419.444 254.076c1.006-33.778-50.564-38.128-53.355-4.104-1.252 15.309 3.468 22.142 16.417 26.677 25.343 8.886 36.425-5.418 36.938-22.573zM384.558 676.81c43.895 12.744 42.663-53.129 6.156-51.303-27.231 1.354-34.332 43.115-6.156 51.303zM300.422 463.391c15.452-52.164-64.477-44.469-51.303 0 1.334 4.494 7.080 11.697 20.521 14.365 14.057 2.791 27.067-1.785 30.782-14.365zM263.484 609.090c33.778 21.075 54.422-40.632 20.521-49.251-31.171-7.942-48.861 33.778-20.521 49.251zM269.64 344.369c38.539 7.634 38.313-50.338 6.156-51.303-31.726-0.944-38.723 44.838-6.156 51.303z" horiz-adv-x="1018" />
<glyph unicode="&#x69;" d="M903.741 475.703c23.456-39.421 43.094-84.054 43.094-139.543 0-178.779-185.018-298.684-352.962-229.836-80.627 33.059-146.623 111.183-153.908 211.367-5.807 79.847 22.286 124.234 53.355 174.429-18.407 3.324-31.295 8.332-32.834 24.625-2.791 29.55 40.591 42.889 53.355 12.313 61.358 95.279 119.33 193.965 178.533 291.399 1.744 0.369 1.929-0.8 2.052-2.052 67.227-113.481 139.317-225.054 209.315-342.701zM478.955 676.81c50.81 15.145 41.165-62.056-2.052-49.251-14.547 4.309-25.711 40.96 2.052 49.251zM396.871 455.182c0.78-26.883-38.949-37.307-53.355-12.313-9.358 49.374 52.411 44.859 53.355 12.313zM396.871 190.461c2.196-39.154-67.165-38.395-53.355 8.208 1.765 5.972 9.234 11.923 18.469 14.365 21.65 5.725 33.921-5.315 34.886-22.573zM396.871 321.796c0.493-35.994-67.904-38.826-53.355 10.261 1.662 5.582 9.296 13.154 24.625 14.365 18.45 1.457 28.506-7.408 28.729-24.625zM396.871 719.904c0.493-36.445-67.637-37.923-53.355 10.261 1.806 6.074 9.378 12.559 22.573 14.365 19.721 2.688 30.535-6.32 30.782-24.625zM361.985 611.142c45.618 11.964 42.13-50.318 8.208-51.303-25.815-0.759-40.24 42.909-8.208 51.303zM277.849 393.619c6.977-43.977-57.787-41.104-53.355-2.052 0.862 7.572 3.632 16.725 20.521 20.521 16.991 3.817 30.371-2.996 32.834-18.469zM247.067 545.475c16.355 2.463 33.039-5.951 30.782-28.729-3.427-34.516-57.726-27.95-53.355 8.208 0.944 7.819 4.866 17.853 22.573 20.521zM240.911 278.701c25.508 8.845 38.518-6.362 36.938-26.677-4.597-58.834-91.688 7.675-36.938 26.677zM277.849 654.236c1.006-33.778-50.564-38.128-53.355-4.104-1.252 15.309 3.468 22.142 16.417 26.677 25.343 8.886 36.425-5.418 36.938-22.573zM130.097 346.421c20.439 2.647 35.214-11.738 28.729-34.886-7.47-26.657-52.185-20.316-53.355 8.208-0.737 18.079 8.085 24.523 24.625 26.677zM158.827 596.778c11.902-41.227-52.636-51.672-53.355-10.261-0.226 13.544 5.91 21.157 20.521 24.625 19.99 4.761 30.289-5.541 32.834-14.365zM123.941 477.756c23.148 6.895 51.303-20.521 28.729-43.094-29.612-29.612-70.633 30.597-28.729 43.094z" horiz-adv-x="1018" />
<glyph unicode="&#x6a;" d="M511.789 824.561c-0.369 1.744 0.8 1.929 2.052 2.052 60.824-91.462 123.126-200.86 184.689-299.607 32.198-51.651 70.531-96.244 75.928-170.325 10.712-147.218-101.312-262.546-235.992-272.93-71.824-5.541-146.623 19.454-194.95 59.511-65.565 54.34-121.895 173.505-71.824 289.347 14.57 33.696 38.99 65.401 59.511 98.501 60.006 96.798 119.289 196.386 180.585 293.451z" horiz-adv-x="1018" />
<glyph unicode="&#x6b;" d="M661.592 596.778c18.736 9.912 39.38-7.942 36.938-28.729-2.073-17.669-17.463-24.194-28.729-34.886-53.745-51.015-93.863-103.426-133.387-174.429-15.945-28.627-24.974-85.409-73.876-73.876-14.57 3.427-28.873 27.642-38.99 41.042-24.769 32.772-43.525 53.868-77.98 82.084-13.688 11.204-37.020 20.295-38.99 38.99-4.043 38.6 37.020 30.186 61.563 16.417 33.224-18.633 71.393-47.835 98.501-67.719 58.772 71.105 107.92 155.078 194.95 201.106z" horiz-adv-x="1018" />
<glyph unicode="&#x6c;" d="M907.845 475.703c7.408-127.682-44.674-221.832-106.709-287.295-65.914-69.525-159.387-113.338-272.93-121.074-118.263-8.065-223.7 37.759-291.399 98.501-71.824 64.436-120.212 146.972-129.283 264.721-9.891 128.462 43.833 221.094 104.657 285.242 60.865 64.21 151.404 116.744 272.93 125.178 124.070 8.598 228.728-44.469 293.451-100.553s122.677-150.891 129.283-264.721zM737.52 239.711c83.767 74.019 114.918 233.242 53.355 352.962-49.435 96.162-156.74 181.447-307.816 170.325-162.178-11.923-296.057-140.549-295.503-309.868 0.431-131.56 87.338-240.609 192.898-283.19 127.395-51.385 286.517-11.246 357.066 69.772zM749.833 457.234c3.365-42.643-62.979-39.831-57.459 2.052 0.841 6.362 3.571 15.924 18.469 20.521 20.89 6.444 37.533-4.125 38.99-22.573zM669.801 627.559c56.371-36.22-41.042-84.896-41.042-26.677 0 19.823 14.244 29.366 41.042 26.677zM653.384 334.108c49.394 7.901 38.005-65.236-6.156-53.355-20.806 5.602-26.472 48.122 6.156 53.355zM495.372 549.579c67.986 7.305 128.421-48.183 108.762-123.126-23.928-91.154-157.253-89.328-190.846-10.261-28.175 66.324 18.409 126.553 82.084 133.387zM497.424 272.545c60.517 17.771 37.82-79.273-8.208-49.251-9.522 6.218-19.29 41.186 8.208 49.251zM497.424 687.070c53.129 15.596 45.372-64.272 0-53.355-14.283 3.427-33.039 43.648 0 53.355zM349.672 334.108c23.538 4.884 34.968-7.347 34.886-26.677-0.164-34.085-62.138-41.658-57.459 4.104 1.026 10.014 6.279 19.187 22.573 22.573zM384.558 600.882c0-61.153-97.783-6.115-41.042 24.625 29.183 8.434 41.042-9.296 41.042-24.625zM284.005 479.808c50.441 14.426 45.105-58.3 4.104-53.355-19.946 2.401-39.113 43.34-4.104 53.355z" horiz-adv-x="1018" />
<glyph unicode="&#x6d;" d="M872.959 430.557c2.914-23.661-20.665-41.904-34.886-55.407-39.4-37.41-68.971-70.572-110.814-110.814-5.294-5.089-15.514-19.064-24.625-14.365-26.985 13.913 19.659 50.851 30.782 61.563 21.793 20.993 39.749 39.195 57.459 55.407 0.39 1.662 2.052 2.052 2.052 4.104-175.229-16.848-378.47 4.248-525.339 51.303-41.186 13.195-111.286 35.153-110.814 84.136 0.205 21.999 19.536 43.484 43.094 26.677 5.684-12.292-2.524-23.538-4.104-34.886 32.115-29.14 82.392-41.76 133.387-53.355 49.394-11.225 104.452-20.336 158.012-28.729 102.667-16.068 249.536-25.959 336.545 12.313-53.847 57.459-108.043 89.964-166.22 143.647-5.397 4.987-24.194 19.762-26.677 24.625-7.326 14.262-1.026 33.265 8.208 34.886 12.148 2.134 24.174-18.223 30.782-24.625 50.030-48.45 94.233-74.779 149.804-121.074 17.26-14.385 51.038-36.589 53.355-55.407z" horiz-adv-x="1018" />
<glyph unicode="&#x6e;" d="M854.49 488.016c12.99-50.010-14.796-91.996-32.834-112.866-37.020-42.848-94.766-69.772-180.585-63.615-72.357 5.192-140.692 35.44-205.21 69.772-68.253 36.322-129.016 75.394-174.429 104.657-1.662 0.39-2.052 2.052-4.104 2.052 20.111-58.116 78.185-154.195 63.615-246.253-2.216-13.934-13.749-36.794-26.677-38.99-32.321-5.5-63.615 55.284-16.417 59.511-3.53 93.248-29.776 173.649-71.824 242.148-12.477 20.336-62.015 71.865-22.573 84.136 22.429 6.977 44.305-14.242 65.667-20.521 24.974-7.347 66.488-17.012 92.345-6.156 12.579 5.274 25.405 15.391 36.938 26.677 6.649 6.505 39.011 43.443 53.355 14.365 9.009-18.243-20.357-49.969-28.729-57.459-26.021-23.271-62.897-30.864-104.657-32.834 76.482-63.246 207.139-158.956 357.066-168.273 83.644-5.192 171.207 35.666 170.325 119.022-0.369 34.537-23.948 45.639-22.573 77.98 28.116-6.772 45.085-29.448 51.303-53.355z" horiz-adv-x="1018" />
<glyph unicode="&#x6f;" d="M858.594 356.681c7.901-35.194-30.207-37.595-61.563-47.198-85.101-26.082-142.313-69.751-197.002-125.178 25.939-30.515-18.448-59.614-51.303-43.094-18.325 32.526 5.623 65.216 22.573 84.136 33.613 37.512 89.78 67.247 131.335 92.345-125.691 58.567-279.004 135.234-398.108 223.679-17.361 12.908-38.928 27.868-57.459 45.146-18.161 16.93-38.641 40.898-43.094 59.511-9.994 41.863 17.238 83.254 43.094 96.449 3.365 1.724 10.322 4.433 16.417 0 7.1-1.703 0.8-9.152 0-12.313-5.048-19.721-19.741-32.3-16.417-59.511 2.668-21.855 26.616-44.9 45.146-61.563 55.509-49.948 125.979-89.123 190.846-125.178 95.792-53.252 192.015-99.691 285.242-137.491 1.765 7.429-11.204 9.44-18.469 14.365-31.643 21.444-64.6 68.951-65.667 116.97-0.575 25.364 4.843 61.563 30.782 57.459 26.636-4.207 17.156-49.353 20.521-73.876 4.781-34.742 46.726-64.354 75.928-77.98 12.889-6.013 43.197-8.865 47.198-26.677z" horiz-adv-x="1018" />
<glyph unicode="&#x70;" d="M932.47 625.507c9.091-37.43-38.21-55.961-65.667-69.772-205.169-103.159-448.836-190.271-726.445-211.367 54.442-43.484 116.642-77.857 178.533-121.074 12.313-8.598 52.103-34.229 47.198-53.355-7.716-30.084-61.276 1.252-75.928 12.313-60.496 45.659-131.027 107.202-201.106 137.491-24.523 10.609-52.288 4.679-55.407 36.938-4.166 43.074 50.277 83.849 73.876 110.814 33.572 38.395 64.026 66.693 82.084 100.553 6.669 12.518 4.494 41.37 26.677 41.042 27.252-0.39 17.874-43.443 10.261-59.511-28.545-60.25-76.359-95.854-108.762-147.752 97.639-21.547 194.314 8.065 281.138 32.834 118.447 33.778 237.1 62.281 344.754 106.709 53.888 22.245 107.941 43.915 147.752 77.98-12.313 41.063 36.938 23.025 41.042 6.156z" horiz-adv-x="1018" />
<glyph unicode="&#x71;" d="M856.507 485.746c0 76-89.279 62.495-89.279 15.202-0.018-49.441 0-18.535 0-42.602 0-4.691-10.014-4.164-10.014 0.269s0 50.588 0 99.334c0 52.164-111.394 53.862-111.394 0s0-92.388 0-97.75-11.141-5.296-11.141 0.314 0 51.303 0 126.514c0 75.212-126.034 72.575-126.034 0 0-72.573 0-91.362 0-126.514 0-6.7-12.226-8.069-12.226 0.95 0 12.871 0 295.359 0 374.737 0 79.379-137.304 80.229-137.304 0s0-453.474 0-453.474l-10.985-3.376c0 0-26.392 29.146-91.204 99.648-49.61 53.4-141.622-33.139-104.711-83.605 36.911-50.461 240.024-324.776 248.268-339.471 8.245-14.689 9.292-13.811 9.292-30.4 0-16.593 0-22.821 0-22.821h377.489c0 0 0.105 9.286 0 45.604-0.105 36.312 53.64 51.635 69.468 197.835 3.382 48.973-0.224 191.599-0.224 239.606z" horiz-adv-x="1019" />
<glyph unicode="&#x72;" d="M513.348 858.423c-221.869 0-401.72-179.851-401.72-401.716 0-221.88 179.851-401.716 401.72-401.716 221.865 0 401.72 179.836 401.72 401.716 0 221.865-179.855 401.716-401.72 401.716zM772.837 269.11c-16.275 39.973-55.472 68.154-101.273 68.093-60.309-0.078-109.133-49.037-109.059-109.342 0.041-31.74 13.706-60.213 35.354-80.133-26.942-7.379-55.259-11.395-84.512-11.395-76.092 0-146.028 26.702-201.043 71.175 39.653 16.411 67.547 55.472 67.488 101.058-0.088 60.309-49.049 109.129-109.348 109.045-27.030-0.035-51.707-9.942-70.755-26.24-4.389 21.106-6.714 42.955-6.714 65.337 0 75.187 26.095 144.347 69.611 199.054 16.329-39.84 55.468-67.9 101.181-67.843 60.309 0.078 109.133 49.039 109.055 109.359-0.043 27.835-10.581 53.141-27.753 72.406 22.017 4.798 44.847 7.396 68.28 7.396 83.038 0 158.78-31.756 215.76-83.742-46.728-12.43-81.175-54.935-81.107-105.558 0.080-60.315 49.039-109.141 109.348-109.061 27.874 0.037 53.211 10.603 72.484 27.818 2.547-16.247 3.897-32.879 3.897-49.829 0-70.026-22.639-134.823-60.894-187.597zM513.196 561.364c-60.305-0.078-109.133-49.037-109.055-109.342 0.080-60.315 49.041-109.139 109.344-109.061 60.313 0.080 109.137 49.039 109.059 109.361-0.086 60.305-49.047 109.129-109.348 109.043z" horiz-adv-x="1019" />
<glyph unicode="&#x73;" d="M997.111 437.822c-0.025 0.029-0.049 0.055-0.074 0.084 0.025 0.027 0.047 0.053 0.074 0.080h-0.144c-14.498 16.425-28.742 33.022-45.288 52.842-10.384 12.436-40.88 37.882-43.548 54.914-2.647 16.745 7.903 43.853 11.348 64.375 3.796 22.594 8.332 43.628 11.369 66.262-42.951 16.376-86.231 32.423-130.635 47.342-14.49 43.564-32.241 83.89-47.342 126.841-23.889-2.175-44.941-5.848-68.152-9.458-22.038-3.429-49.331-14.878-68.169-11.348-8.477 1.58-17.301 13.48-26.515 20.808-29.776 23.763-56.002 44.449-83.295 64.375-18.1-12.005-33.675-27.909-53.026-43.546-10.753-8.701-43.997-39.667-56.782-41.637-18.982-2.937-44.366 7.675-66.283 11.348-22.204 3.733-44.284 7.078-68.15 9.458-16.991-41.699-32.074-85.306-49.23-126.841-43.546-14.508-83.952-32.179-128.749-45.454 5.725-47.28 14.572-91.462 22.717-136.301-31.059-32.575-57.518-69.767-88.827-102.092h-0.152c0.025-0.029 0.049-0.055 0.074-0.084-0.025-0.027-0.049-0.053-0.074-0.080h0.144c14.498-16.425 28.742-33.022 45.288-52.842 10.384-12.436 40.878-37.882 43.546-54.914 2.647-16.745-7.901-43.853-11.348-64.375-3.796-22.594-8.332-43.628-11.369-66.262 42.951-16.376 86.229-32.423 130.637-47.342 14.488-43.564 32.239-83.89 47.342-126.841 23.886 2.175 44.941 5.848 68.15 9.458 22.040 3.429 49.333 14.878 68.171 11.348 8.475-1.58 17.299-13.48 26.513-20.808 29.776-23.763 56.002-44.449 83.295-64.375 18.1 12.005 33.675 27.909 53.026 43.546 10.753 8.701 43.997 39.667 56.782 41.637 18.982 2.937 44.366-7.675 66.283-11.348 22.204-3.733 44.284-7.078 68.15-9.458 16.991 41.699 32.074 85.306 49.23 126.841 43.546 14.508 83.952 32.179 128.749 45.454-5.725 47.28-14.572 91.462-22.717 136.301 31.059 32.575 57.516 69.767 88.825 102.092h0.156z" horiz-adv-x="1019" />
<glyph unicode="&#x74;" d="M267.336 595.903c0-212.067 0-424.108 0-636.173-11.609-5.522-20.076 10.394-29.704 17.326-30.944 22.329-71.366 45.672-99.016 71.785 0 201.324 0 402.674 0 603.996 44.906-16.981 84.684-39.086 128.72-56.934zM324.271 590.952c0-217.018 0-434.008 0-651.026 192.535 27.773 381.999 58.614 574.29 86.64-3.244 214.589 6.536 441.014-4.952 646.074-189.194-27.824-378.437-55.573-569.338-81.688zM611.414 954.835c-129.439-13.367-201.373-139.463-188.129-292.097 23.096 3.292 46.884 5.941 69.31 9.901-16.585 117.83 45.694 216.77 138.622 207.934 75.673-7.203 96.268-79.31 89.117-175.752 23.687 1.065 41.633 7.872 66.833 7.427 14.804 148.843-43.293 256.25-175.752 242.587zM247.533 670.165c23.096 3.292 46.884 5.941 69.312 9.901-9.754 109.586 23.417 176.249 96.539 202.982 18.268 31.239 47.477 51.537 71.785 76.738-171.741 5.816-245.83-107.261-237.636-289.622z" horiz-adv-x="1019" />
<glyph unicode="&#x75;" d="M790.857 421.143l-758.857-421.714q-13.143-7.429-22.571-1.714t-9.429 20.571v841.143q0 14.857 9.429 20.571t22.571-1.714l758.857-421.714q13.143-7.429 13.143-17.714t-13.143-17.714z" horiz-adv-x="805" />
<glyph unicode="&#x77;" d="M704 320c-64-64-64-128-128-128s-128 64-192 128-128 128-128 192 64 64 128 128-128 256-192 256-192-192-192-192c0-128 131.5-387.5 256-512s384-256 512-256c0 0 192 128 192 192s-192 256-256 192z" />
<glyph unicode="&#x78;" d="M9005.354 530.765c0-15.25 0-30.501 0-45.751-21.605-49.564-51.788-90.549-122.003-91.502-150.598-5.719-142.655 275.46 38.126 228.756 44.48-13.98 68.627-48.293 83.877-91.502zM8890.976 401.137c147.42 1.589 125.816 255.762-30.501 205.88-44.798-8.261-66.085-40.668-76.252-83.877-2.224-78.476 39.715-112.789 106.753-122.003zM8944.353 553.641c3.813-31.772-8.896-47.022-30.501-53.376 0-25.417 24.782-26.053 22.876-53.376-28.277 12.391-17.157 64.179-68.627 53.376-19.381-0.953-15.25-25.417-15.25-45.751-15.886-5.401-3.813 82.289-7.625 114.378 36.537-1.589 83.877 7.625 99.128-15.25zM8936.727 538.39c-7.625 27.959-47.34 23.829-83.877 22.876 0-20.334-2.859-43.527 7.625-53.376 38.444-2.859 71.168 0 76.252 30.501zM8654.595 210.507c37.173-162.671-61.955-252.585-190.63-274.507-25.417 0-50.835 0-76.252 0-79.429 9.531-122.956 54.965-175.379 91.502-6.672-23.829 17.792-78.794-22.876-68.627-15.25 0-30.501 0-45.751 0 5.083 76.252-10.167 172.838 7.625 236.381 17.792 0 35.584 0 53.376 0 25.417-30.501 21.287-90.549 45.751-122.003 52.423-71.486 248.772-88.325 305.008-7.625 13.026 32.725 18.745 72.757 15.25 122.003-76.887 106.117-321.211 44.798-388.885 160.129-93.409 174.109 49.564 336.462 266.882 297.383 20.334-12.709 46.069-20.016 68.627-30.501 9.849-9.849 42.256-63.543 45.751-30.501 4.766 15.568-12.391 53.059 15.25 45.751 20.334 0 40.668 0 61.002 0-5.083-76.252 10.167-172.838-7.625-236.381-22.876 0-45.751 0-68.627 0 1.589 39.715 0 76.252-7.625 106.753-60.684 104.529-350.123 117.555-312.633-83.877 84.195-121.685 373.635-38.126 411.76-205.88zM7968.328 19.877c0-20.334 0-40.668 0-61.002-167.754 0-335.509 0-503.263 0-47.022 19.063-67.356 64.814-83.877 114.378-26.053-80.7-94.679-118.826-183.005-137.253-27.959 0-55.918 0-83.877 0-164.577 0.635-240.829 205.245-152.504 343.134 85.466 79.747 251.314 79.111 419.386 76.252 8.896 95.315-14.297 158.54-61.002 198.255-131.852 46.069-261.481-9.531-282.132-122.003-25.735 4.766-70.851-9.849-83.877 7.625-2.859 239.24 422.563 269.106 495.638 76.252 51.788-118.508-3.813-344.405 38.126-472.762 64.814-27.324 205.563-17.474 282.132-7.625 0 256.715 0 513.43 0 770.145-38.126 5.083-96.268-9.849-122.003 7.625 0 22.876 0 45.751 0 68.627 66.085-5.083 152.504 10.167 205.88-7.625 0-279.59 0-559.181 0-838.771 22.558-20.652 92.455 6.037 114.378-15.25zM7045.679 50.378c163.306-105.8 367.916 18.11 335.509 228.756-152.186-0.318-324.706 19.698-366.009-91.502-5.719-61.637 5.719-106.117 30.501-137.253zM6839.799 591.767c-5.083-27.959-28.912-37.173-38.126-61.002-27.959 7.625-43.209 27.959-76.252 30.501-253.855 12.391-191.583-291.346-198.255-526.138 20.652-17.474 73.71-2.859 106.753-7.625 0-22.876 0-45.751 0-68.627-104.211 0-208.422 0-312.633 0 0 22.876 0 45.751 0 68.627 35.584 0 71.168 0 106.753 0 17.792 157.587 2.542 348.217 7.625 518.513-25.1 15.568-77.205 4.13-114.378 7.625 0 22.876 0 45.751 0 68.627 68.627 0 137.253 0 205.88 0 0-30.501 0-61.002 0-91.502 44.798 72.122 110.565 123.274 244.006 106.753 22.24-15.886 54.965-21.287 68.627-45.751zM6176.407 279.134c-175.379 0-350.759 0-526.138 0-4.766-189.359 125.18-311.362 320.258-251.631 22.24 20.969 44.798 41.621 68.627 61.002 22.24 20.969 16.839 69.58 53.376 76.252 20.652-4.766 60.366 9.531 68.627-7.625-24.464-130.581-113.742-196.349-244.006-221.131-27.959 0-55.918 0-83.877 0 0 2.542 0 5.083 0 7.625-299.289-11.12-341.863 456.241-175.379 625.266 73.392 59.731 199.844 91.185 320.258 61.002 121.685-61.319 196.666-169.343 198.255-350.759zM6084.905 347.76c14.615 186.817-194.76 276.096-343.134 183.005-40.985-47.975-83.877-94.044-83.877-183.005 142.337 0 284.674 0 427.011 0zM5436.763 27.502c0-22.876 0-45.751 0-68.627-96.586 0-193.172 0-289.757 0 0 22.876 0 45.751 0 68.627 30.501 0 61.002 0 91.502 0 5.401 216.683 74.663 603.026-205.88 533.764-164.895-56.236-136.3-305.961-137.253-526.138 25.1-15.568 77.205-4.13 114.378-7.625 0-22.876 0-45.751 0-68.627-256.715 0-513.43 0-770.145 0 0 22.876 0 45.751 0 68.627 38.126 0 76.252 0 114.378 0 17.792 157.587 2.542 348.217 7.625 518.513-15.568 20.016-76.57-5.401-91.502 15.25 0 20.334 0 40.668 0 61.002 61.002 0 122.003 0 183.005 0 0-198.255 0-396.51 0-594.765 116.92 0 233.839 0 350.759 0 17.792 157.587 2.542 348.217 7.625 518.513-25.1 15.568-77.205 4.13-114.378 7.625 0 22.876 0 45.751 0 68.627 66.085 0 132.17 0 198.255 0 0-27.959 0-55.918 0-83.877 24.146 6.672 58.46 68.309 99.128 83.877 92.138 34.949 223.672 21.287 282.132-38.126 88.325-112.472 41.939-359.655 53.376-549.014 22.876-15.25 71.804-4.448 106.753-7.625zM4399.737 919.65c25.417-20.334 53.694-37.808 45.751-91.502-8.578-59.095-129.311-63.226-137.253 0-7.943 53.694 20.334 71.168 45.751 91.502 15.25 0 30.501 0 45.751 0zM4071.854 19.877c0-20.334 0-40.668 0-61.002-91.502 0-183.005 0-274.507 0 0 22.876 0 45.751 0 68.627 33.043 0 66.085 0 99.128 0 0 249.090 0 498.179 0 747.269-119.461-264.34-216.047-551.556-335.509-815.896-17.792 0-35.584 0-53.376 0-28.912 19.381-34.949 61.637-45.751 99.128-20.334 27.959-25.417 71.168-45.751 99.128-24.782 71.804-49.881 143.29-83.877 205.88-46.069 147.103-112.154 274.189-160.129 419.386-17.792-233.839-2.542-500.721-7.625-747.269 20.652-14.933 66.72-4.448 99.128-7.625 0-22.876 0-45.751 0-68.627-91.502 0-183.005 0-274.507 0 0 17.792 0 35.584 0 53.376 0.953 32.089 58.46 7.625 83.877 15.25 17.792 241.464 2.542 515.971 7.625 770.145-15.568 17.474-63.226 2.859-91.502 7.625 0 25.417 0 50.835 0 76.252 76.252 0 152.504 0 228.756 0 104.211-266.882 207.469-534.717 312.633-800.645 107.706 263.705 213.823 528.362 312.633 800.645 76.252 0 152.504 0 228.756 0 0-25.417 0-50.835 0-76.252-30.501 0-61.002 0-91.502 0 0-256.715 0-513.43 0-770.145 15.568-20.016 76.57 5.401 91.502-15.25zM2615.442 637.518c139.16-54.012 223.355-163.306 221.131-358.384-175.379 0-350.759 0-526.138 0 6.99-132.805 53.376-226.214 160.129-259.257 70.851-24.146 153.457 3.177 198.255 30.501 36.855 29.23 45.433 86.737 83.877 114.378 23.193-4.766 65.767 9.849 76.252-7.625-31.772-125.816-116.284-198.89-251.631-221.131-27.959 0-55.918 0-83.877 0 0 2.542 0 5.083 0 7.625-88.325-1.906-130.581 42.256-183.005 76.252-183.64 224.943-78.476 700.247 305.008 617.641zM2745.070 347.76c25.417 190.312-234.792 294.841-366.009 160.129-25.417-48.293-59.731-87.69-61.002-160.129 142.337 0 284.674 0 427.011 0zM2157.93 584.141c-12.391-18.11-27.324-33.678-38.126-53.376-58.46 49.246-171.567 27.959-221.131-15.25-85.466-94.997-43.527-317.399-53.376-488.012 43.209-5.083 106.753 10.167 137.253-7.625 0-20.334 0-40.668 0-61.002-196.031 4.766-411.125-9.531-594.765 7.625-34.949 20.969-45.116 66.72-61.002 106.753-27.006-79.747-95.95-117.555-183.005-137.253-27.959 0-55.918 0-83.877 0-159.494 1.589-239.876 189.677-160.129 335.509 81.653 88.643 253.538 87.054 427.011 83.877 3.495 69.262-6.354 125.816-30.501 167.754-92.455 90.549-306.914 40.985-312.633-91.502-25.735 4.766-70.851-9.849-83.877 7.625 2.542 203.339 276.096 245.913 434.636 160.129 130.581-85.466 45.116-386.979 91.502-556.639 81.018-30.818 215.412-8.261 320.258-15.25 17.792 157.587 2.542 348.217 7.625 518.513-22.558 20.652-92.455-6.037-114.378 15.25 0 20.334 0 40.668 0 61.002 68.627 0 137.253 0 205.88 0 4.766-28.277-9.849-75.934 7.625-91.502 14.615 106.435 243.688 153.775 305.008 53.376zM1212.406 27.502c72.122 49.881 115.013 128.993 114.378 251.631-133.759-0.953-283.403 13.98-350.759-53.376-15.25-34.949-23.193-102.622-7.625-144.879 29.865-70.533 157.905-84.83 244.006-53.376zM320.258 629.893c342.498 102.94 480.387-288.804 350.759-564.264-49.564-64.814-114.060-114.696-213.505-129.628-25.417 0-50.835 0-76.252 0-89.278 14.933-148.374 60.048-190.63 122.003 0-33.043 0-66.085 0-99.128-63.543 0-127.087 0-190.63 0 0 22.876 0 45.751 0 68.627 30.501 0 61.002 0 91.502 0 17.792 241.464 2.542 515.971 7.625 770.145-18.11 17.474-68.309 2.859-99.128 7.625 0 25.417 0 50.835 0 76.252 63.543 0 127.087 0 190.63 0 0-116.92 0-233.839 0-350.759 25.735 20.016 72.757 84.83 129.628 99.128zM305.008 27.502c311.68-115.966 404.453 314.539 251.631 488.012-45.433 28.277-115.013 73.075-190.63 45.751-54.647-1.271-78.158-33.678-114.378-53.376-108.341-117.555-79.747-412.396 53.376-480.387z" horiz-adv-x="9005" />
<glyph unicode="&#x79;" d="M512 960c-176.732 0-320-143.268-320-320 0-320 320-704 320-704s320 384 320 704c0 176.732-143.27 320-320 320zM512 448c-106.040 0-192 85.96-192 192s85.96 192 192 192 192-85.96 192-192-85.96-192-192-192z" />
<glyph unicode="&#x7a;" d="M938.667 554.667h-85.333v341.333h-682.667v-341.333h-85.333c-46.933 0-85.333-38.4-85.333-85.333v-426.667c0-46.933 28.8-85.333 64-85.333h106.667v-42.667h682.667v42.667h106.667c35.2 0 64 38.4 64 85.333v426.667c0 46.933-38.4 85.333-85.333 85.333zM170.667-0h-42.667v213.333h42.667v-213.333zM768-0h-512v213.333h85.333v-42.667h341.333v42.667h85.333v-213.333zM768 554.667h-512v256h512v-256zM896-0h-42.667v213.333h42.667v-213.333zM938.667 426.667h-85.333v42.667h85.333v-42.667zM341.333 85.334h341.333v42.667h-341.333v-42.667z" />
</font>
</defs>
</svg>
