<?xml version="1.0" standalone="no"?>
<!DOCTYPE svg PUBLIC "-//W3C//DTD SVG 1.1//EN" "http://www.w3.org/Graphics/SVG/1.1/DTD/svg11.dtd" >
<svg xmlns="http://www.w3.org/2000/svg">
<metadata></metadata>
<defs>
<font id="shimmer_bol_beregular" horiz-adv-x="798" >
<font-face units-per-em="2048" ascent="1638" descent="-410" />
<missing-glyph horiz-adv-x="548" />
<glyph horiz-adv-x="2048" />
<glyph horiz-adv-x="2048" />
<glyph unicode="&#xd;" horiz-adv-x="2048" />
<glyph unicode=" "  horiz-adv-x="548" />
<glyph unicode="&#x09;" horiz-adv-x="548" />
<glyph unicode="&#xa0;" horiz-adv-x="548" />
<glyph unicode="!" horiz-adv-x="532" d="M246 66q0 28 19.5 62t49.5 34q26 0 39 -18.5t13 -41.5q0 -29 -21 -63.5t-53 -34.5q-22 0 -34.5 20.5t-12.5 41.5zM301 307q0 60 99.5 309.5t140.5 274.5q12 6 26 6q25 0 50.5 -18t25.5 -45q0 -17 -16 -25q-75 -49 -152 -212.5t-104 -283.5q0 -1 -2.5 -14t-4.5 -20t-6 -18 t-10 -16t-14 -5q-33 0 -33 67z" />
<glyph unicode="&#x22;" horiz-adv-x="516" d="M223 797v90l15 92q4 21 18.5 40t38.5 19q17 0 26 -14.5t9 -32.5q0 -11 -4 -35q-6 -28 -14 -55.5t-9 -34.5q-6 -30 -6 -92q0 -2 0.5 -11.5t0 -14t-2 -13t-4 -13t-8 -8t-13.5 -3.5q-23 0 -35 29.5t-12 56.5zM389 971q15 59 55 59q21 0 32 -18.5t11 -40.5q0 -55 -12 -105 q-10 -62 -10 -102q0 -5 2 -15.5t2 -15.5q0 -13 -8 -22t-21 -9q-10 0 -17.5 4.5t-12 14t-7 18.5t-3.5 22.5t-1.5 21.5t0 22t0.5 16q0 22 -8.5 67.5t-1.5 82.5z" />
<glyph unicode="#" horiz-adv-x="827" d="M31 795q0 14 7 27.5t25 13.5l134 -35q8 21 23.5 58.5t19.5 47.5q-170 38 -170 103q0 19 13 29t30 10q12 0 27 -7t34 -19t25 -15q24 -18 69 -29q26 81 51 103q15 14 33 14q14 0 22.5 -9t8.5 -22t-33 -96q28 -1 83 -3t83 -3q4 14 29 124q-4 8 -4 17q0 18 20.5 28.5 t38.5 10.5q49 0 49 -60q0 -13 -2 -25.5t-7 -27.5t-8 -23t-10.5 -26t-9.5 -23q39 -2 119 -2q66 0 66 -30q0 -11 -32 -20.5t-73 -10.5q-41 -4 -104 -4q-41 -125 -53 -168q29 -5 87 -14.5t87 -14.5q17 -2 33 -11.5t16 -25.5q0 -14 -13 -21t-28 -7q-37 0 -105 14q-76 13 -96 16 q-16 -53 -16 -71q0 -27 -9.5 -70t-29.5 -43q-15 0 -25 31t-10 51q0 41 16 115q-59 9 -190 26q-27 -63 -27 -82l7 -6q6 -7 12 -16.5t6 -18.5q0 -21 -17.5 -35t-37.5 -14q-26 0 -42 20.5t-16 45.5q0 24 27 119q-21 3 -32.5 4.5t-33.5 8t-34.5 14.5t-22.5 23t-10 34zM281 780 q13 -3 78 -19.5t100 -23.5q16 60 39 152q-117 0 -176 8q-35 -97 -41 -117z" />
<glyph unicode="$" horiz-adv-x="1236" d="M31 465q0 23 11 44t32 21q13 0 28 -10q9 -6 12 -19.5t4 -30.5t3 -24q9 -27 24 -51q36 -54 273 -69q27 52 78.5 157.5t78.5 157.5q-6 1 -19 2t-19 2q-10 2 -41.5 5t-53 7.5t-47 13t-39.5 26t-14 42.5q0 13 8.5 24t26.5 20.5t34 16.5t42 14t39.5 10.5t37 8.5t25.5 5 q32 8 154 41q17 27 48.5 80t47.5 79q-12 20 -12 37q0 27 26 27t48 -18.5t22 -45.5q0 -11 -9.5 -31t-20.5 -36.5t-26.5 -39t-19.5 -28.5q65 15 82 17q117 208 156 208q16 0 25 -21t9 -38q0 -32 -24 -45q-49 -62 -66 -88q78 8 117 8q94 0 94 -53q0 -20 -14.5 -34.5 t-34.5 -14.5q-10 0 -30.5 4t-32.5 4q-92 0 -160 -8q-60 -97 -92 -176q198 -62 198 -185q0 -39 -24 -73.5t-58.5 -57t-80 -41.5t-81.5 -29t-71 -16q-19 -83 -23 -108q39 0 39 -37q0 -20 -13 -47t-32 -27q-31 0 -49 36t-18 66q0 35 12 105q-63 -6 -186 -6l-39 -78 q35 -4 35 -41q0 -27 -35 -62.5t-62 -35.5q-21 0 -37 14.5t-16 36.5q0 8 6 24.5t17 39t20 40t21 40t14 26.5q-51 5 -103.5 18t-111.5 36.5t-96 65.5t-37 95zM481 727q67 -3 135 -12q8 16 35 61q-67 -16 -170 -49zM494 324q82 0 165 12q38 153 86 278q-13 2 -47 9t-53 10 q-34 -65 -151 -309zM686 705q16 -3 45 -9.5t45 -9.5q24 56 68 139q-11 -3 -31 -7.5t-36.5 -8.5t-31.5 -8q-43 -67 -59 -96zM745 352q213 46 213 135q0 71 -143 109q-38 -112 -70 -244z" />
<glyph unicode="%" horiz-adv-x="978" d="M31 674q0 36 29 98t76 113t89 51q14 0 22.5 -9.5t8.5 -23.5t-6 -26q-139 -158 -139 -199q61 0 138 71t77 138q0 28 -11.5 49.5t-25.5 32.5t-25.5 30t-11.5 43q0 39 39 39q40 0 83.5 -35t43.5 -75q34 -37 112 -37q43 0 119 18t101 37q36 29 69 29q28 0 50 -16t22 -46 q0 -32 -33 -61q-11 -10 -34 -25.5t-31 -21.5q-24 -22 -66.5 -64.5l-58.5 -58.5q-173 -173 -230 -233q-27 -27 -97.5 -102t-109.5 -114q-26 -26 -37.5 -43.5t-25.5 -50.5q-27 -62 -45 -80q-8 -12 -25 -12q-19 0 -29 20t-10 40q0 40 37 100q54 76 168 199q36 39 101 104.5 t81 81.5q29 30 109 110t123 125q-62 -22 -137 -22q-68 0 -125 31q-8 -79 -67.5 -142t-143.5 -108q-60 -31 -94 -31q-31 0 -55.5 22t-24.5 54zM453 193q0 66 92 169q4 33 56.5 59t106 37t85.5 11q55 0 105 -29.5t50 -85.5q0 -60 -68 -121t-151.5 -96t-138.5 -35 q-43 0 -90 23.5t-47 67.5zM537 195q0 -15 38 -15q35 0 84 17t84 39q34 19 72.5 54t38.5 62q0 33 -90 33q-26 0 -80 -8q6 -9 6 -23q0 -18 -38 -47.5t-76.5 -60t-38.5 -51.5z" />
<glyph unicode="&#x26;" horiz-adv-x="1505" d="M31 293q0 81 39 162t103 145.5t136 114.5t146 82q6 43 15.5 87.5t29.5 106.5t45 108.5t65.5 79.5t87.5 33q82 0 142.5 -76t60.5 -157q0 -55 -36 -119.5t-91 -64.5q-24 0 -42.5 16.5t-18.5 40.5q0 23 11.5 38t26 22t26 25t11.5 46q0 51 -20 84t-63 33q-25 0 -47 -14 t-37 -32t-28 -51t-20 -56t-14 -62.5t-9.5 -55t-6.5 -47.5q10 -10 10 -24q0 -17 -18 -35q-7 -65 -7 -107q0 -302 187 -403q88 70 88 98q0 22 8 59.5t23 37.5q17 0 31 -31.5t14 -50.5q0 -72 -78 -146q68 -13 133 -10q59 4 166.5 42t193.5 103q119 92 119 168q0 29 -24 47 q-67 51 -162 60q-38 0 -62 8q-61 24 -61 59q0 25 29.5 37.5t58.5 12.5q55 0 123 -29.5t120 -84t52 -114.5q0 -46 -16 -85t-50 -73t-60 -54t-71 -50q-87 -52 -182.5 -84t-159.5 -35q-135 -7 -219 25q-86 -61 -185.5 -102t-189.5 -41q-137 0 -230 88.5t-93 224.5zM127 266 q0 -93 67 -142.5t166 -49.5q129 0 281 92q-203 125 -203 438q0 44 2 64q-82 -42 -139 -82t-94 -94q-80 -117 -80 -226z" />
<glyph unicode="'" horiz-adv-x="309" d="M159.5 1049.5q-8.5 37.5 0.5 62.5q4 21 18 40t37 19q21 0 31 -18t10 -41q0 -32 -4 -68q-3 -15 -12 -51q-7 -27 -7 -32v-31q0 -5 2.5 -15.5t2.5 -15.5q0 -13 -8 -22t-21 -9q-10 0 -17.5 4.5t-12 14t-7 18.5t-3.5 22.5t-1.5 21.5t0 22t0.5 16q0 25 -8.5 62.5z" />
<glyph unicode="(" horiz-adv-x="542" d="M31 -131q0 179 184 629q50 116 94 200q59 109 170.5 285.5t157.5 204.5q36 20 78 20q25 0 48 -11t23 -34q0 -8 -2 -12q-5 -17 -14.5 -24.5t-28.5 -13.5t-26 -9q-17 -8 -43 -27q-75 -52 -184 -233t-169 -314q-65 -147 -140 -363.5t-75 -309.5q0 -25 7.5 -33.5t26 -10.5 t26.5 -6q18 -9 18 -32q0 -21 -15.5 -34t-35.5 -13q-52 0 -76 45.5t-24 95.5z" />
<glyph unicode=")" horiz-adv-x="507" d="M-156 -258q0 16 15 16q6 0 15.5 -4t14.5 -4q12 0 29 17q44 44 171.5 321.5t162.5 382.5q110 321 110 473q0 22 -7 63.5t-7 61.5q0 22 11 41.5t36 19.5q38 0 55 -36.5t17 -77.5q0 -107 -41 -270.5t-90 -292.5q-54 -147 -190.5 -440.5t-190.5 -329.5q-27 -19 -49 -19 q-30 0 -46 24.5t-16 53.5z" />
<glyph unicode="*" horiz-adv-x="770" d="M31 907q0 21 11 33.5t32 11.5q12 -1 25.5 -4t29.5 -7.5t25 -6.5q45 -8 139 -16q-3 4 -19.5 25t-26 34t-19 31t-9.5 28q0 19 12 31t31 12q14 0 35 -23.5t34 -45t23 -41.5q3 5 16.5 22.5t23 32.5t12.5 23q4 13 7 20.5t9.5 18.5t15 16.5t19.5 5.5q20 0 33.5 -20t13.5 -37 q0 -36 -90 -133q50 3 204 30q32 4 48 4q26 0 49.5 -13t23.5 -42q0 -15 -11 -25t-26 -10q-9 0 -25 6t-24 6q-27 0 -68 -4.5t-93.5 -11.5t-75.5 -10q1 -3 11 -25t14.5 -32t13 -31.5t13 -35t8 -30t3.5 -28.5q0 -35 -20 -35q-10 0 -17.5 9.5t-9.5 18.5q-10 27 -23.5 53.5t-35 66 t-27.5 50.5l-17.5 -21t-18.5 -22.5t-16.5 -21.5t-17 -23.5t-14.5 -22t-14 -24.5q-29 -55 -68 -55q-35 0 -35 39q0 32 25 57q15 18 88 105q-176 6 -203 18q-24 13 -24 49z" />
<glyph unicode="+" horiz-adv-x="761" d="M31 610q0 19 26 30t47 11q13 0 37 -8q33 -16 203 -16q18 105 33 213q-6 31 13.5 50t49.5 19q20 0 36 -15.5t16 -35.5q0 -17 -15.5 -51t-17.5 -47l-29 -133q1 0 37.5 1.5t54 1.5t55 -1.5t59 -7.5t46.5 -16t37 -28t12 -42q0 -17 -9 -35.5t-26 -18.5q-11 0 -34 23l-9 10 q-26 26 -45 31q-49 6 -100 6q-16 0 -47 -1t-47 -1q-2 -10 -12 -54t-14.5 -72t-4.5 -56q0 -3 0.5 -14.5t0 -19.5t-1 -20.5t-3 -21.5t-6 -17.5t-10 -13t-15.5 -4.5q-34 0 -47.5 25.5t-13.5 58.5q0 25 4.5 54t9 48.5t13.5 54.5t12 50q-107 -10 -131 -10q-41 0 -102.5 20.5 t-61.5 52.5z" />
<glyph unicode="," horiz-adv-x="395" d="M158 -141q0 14 14 28q16 15 30.5 43t30.5 68t19 47q17 39 53 39q21 0 31 -23.5t10 -42.5q0 -29 -65 -108.5t-93 -79.5q-10 0 -20 7t-10 22z" />
<glyph unicode="-" horiz-adv-x="907" d="M252 338q2 9 6.5 15t8 9.5t12.5 5t12 1.5h14.5h13.5q27 0 65 -1t65 -1q29 0 87 2t87 2q1 0 46 2.5t74 1.5q105 -4 105 -49q0 -17 -17 -26t-34 -9q-33 0 -100 4t-101 4q-42 0 -107.5 -9t-107.5 -9q-37 0 -85 18t-44 39z" />
<glyph unicode="." horiz-adv-x="288" d="M150 47q0 24 18 34.5t37 10.5q53 0 53 -43q0 -28 -17 -41.5t-42 -13.5q-20 0 -34.5 18t-14.5 35z" />
<glyph unicode="/" horiz-adv-x="589" d="M31 68q0 7 22 61.5t57 135.5t68 156t65 147.5t38 86.5q90 214 127 314q7 15 18 63q6 21 8.5 30t10.5 29t16.5 29.5t23 18t31.5 8.5q20 0 31.5 -12t11.5 -31q0 -13 -10 -43q-6 -15 -22.5 -44t-22.5 -44q-15 -34 -131 -297q-79 -177 -156 -373q-11 -29 -37.5 -102 t-42.5 -113q-11 -28 -20 -35q-22 -18 -47 -18q-39 0 -39 33z" />
<glyph unicode="0" horiz-adv-x="1032" d="M31 111q0 121 67 289.5t152 316.5q19 33 53.5 79.5t81 99.5t98 86.5t90.5 27.5q116 129 224 129q105 0 154.5 -58.5t49.5 -162.5q0 -128 -52 -256.5t-138 -235.5q-60 -75 -127 -143.5t-153.5 -139t-183 -113t-185.5 -42.5q-56 0 -93.5 33t-37.5 90zM115 111 q0 -30 6.5 -41t28.5 -11q113 0 253 90t254 219.5t192.5 280.5t78.5 266q0 60 -28.5 105t-82.5 45q-76 0 -172 -96q23 -30 23 -68q0 -47 -60.5 -193.5t-97.5 -146.5q-18 0 -18 19q0 16 49 129q49 112 49 163q0 19 -7 26t-24 7q-76 0 -184.5 -161.5t-184 -351.5t-75.5 -281z " />
<glyph unicode="1" horiz-adv-x="460" d="M-27 4q0 50 27 125q47 132 158 422.5t166 447.5q-72 -28 -103 -28q-33 0 -71.5 11t-38.5 36q1 24 22.5 35.5t42.5 11.5q12 0 34 -5t32 -5q27 0 46 12.5t30 30.5t21.5 36.5t27.5 31t41 12.5q27 0 41.5 -8t13.5 -33q0 -29 -109 -308q-24 -63 -53 -135.5t-51 -128t-27 -67.5 q-36 -91 -99.5 -266.5t-64.5 -204.5q0 -1 -0.5 -15.5t-1.5 -19.5t-2.5 -18t-4.5 -19t-7.5 -14t-12 -11.5t-16.5 -3.5q-23 0 -33 27t-8 51z" />
<glyph unicode="2" horiz-adv-x="1009" d="M14 125q3 62 204.5 253.5t305.5 268.5q44 33 94.5 73.5t119 100t113.5 114t46 85.5q2 53 -137 53q-80 0 -179 -26.5t-163 -67.5q-9 -6 -34.5 -28t-47.5 -39t-31 -17q-18 0 -34.5 15t-16.5 34q1 21 22.5 42.5t45.5 35.5q72 47 218.5 92t229.5 45q33 0 68.5 -6.5t72.5 -21 t60 -44t22 -69.5q0 -40 -35 -92q-40 -57 -167 -166q-41 -34 -122 -97.5t-143.5 -116t-113.5 -104.5q-18 -18 -72.5 -73t-91 -93t-68.5 -77q52 16 121 16q100 0 242 -59q5 -2 23 -9.5l24 -10t22 -9t24 -9t22.5 -7t24 -6.5t22.5 -4.5t25 -3.5t24 -1q30 0 82 17.5t75 17.5 q9 0 19 -5.5t10 -14.5q-1 -30 -82 -61.5t-121 -31.5q-48 0 -101.5 18t-94.5 39.5t-97.5 39.5t-109.5 18q-78 0 -137 -22q-12 -5 -34.5 -16t-38.5 -15.5t-40 -5.5q-26 -2 -48.5 10t-21.5 41z" />
<glyph unicode="3" horiz-adv-x="1024" d="M16 162q0 12 8.5 19t18.5 7q20 0 41 -16t39.5 -35t60.5 -35t99 -16q116 0 272 49q98 31 183.5 125t88.5 189q2 51 -33.5 93t-91.5 66t-115.5 36.5t-111.5 12.5q-15 0 -43 -1t-41 -1q-20 0 -40 7.5t-19 25.5q0 35 90 82q153 86 418 274q-129 -34 -232 -34q-27 0 -56.5 4.5 t-62.5 15t-53.5 33t-19.5 53.5q0 17 11 29t28 12q21 0 35.5 -10.5t22.5 -23t27.5 -23t49.5 -10.5q70 0 167.5 20t170.5 47q12 6 30 6q23 0 39 -13.5t15 -37.5q-2 -46 -68 -90q-173 -126 -422 -283q85 -15 176 -49t142 -76q78 -64 75 -174q-3 -80 -42.5 -151t-102 -121 t-139.5 -86.5t-155.5 -54t-149.5 -17.5q-152 0 -252 76q-21 15 -40 36.5t-18 39.5z" />
<glyph unicode="4" horiz-adv-x="1105" d="M27 522q3 45 49 66q153 71 317 215q180 159 236 330q14 53 53 53q25 0 37 -19.5t6 -42.5q-13 -58 -75 -151.5t-118 -157.5q-62 -71 -150 -138t-177 -114q284 17 393 19q28 87 76.5 245.5t62.5 202.5q6 19 18 64t23 79t23 62q20 51 57 51q19 0 28 -11.5t9 -27.5 q0 -12 -6 -24q-22 -68 -67 -199.5t-79.5 -237t-62.5 -202.5h6q204 0 336 -31q33 -7 44.5 -30.5t0.5 -43.5t-35 -20q-10 0 -14 2q-119 31 -363 39q-51 -169 -61 -207q-30 -125 -33 -203q-2 -39 7.5 -53t43.5 -14q27 0 62.5 23.5t54.5 23.5q10 0 18 -7t7 -18q-1 -29 -33 -53 t-67.5 -34.5t-59.5 -10.5q-126 0 -123 131q5 127 102 424q-108 2 -317 -21q-141 -16 -166 -16q-27 0 -45 15t-18 42z" />
<glyph unicode="5" horiz-adv-x="1087" d="M14 156q2 22 17.5 38.5t38.5 16.5q25 0 39 -31t12 -57v-6q61 -41 211 -41q94 0 195.5 27t193 77.5t152.5 133.5t65 182q4 133 -79 194.5t-220 61.5q-139 0 -274 -58q-38 -47 -101 -47q-89 0 -6 172q11 23 33 64l22 41q21 46 39 96l9 32q9 32 13.5 44.5t15.5 36.5 t23.5 36.5t28.5 16.5q3 0 9.5 1t9.5 1q61 0 76 -58q42 -12 118 -12q109 0 178 16t162 66q37 23 58 23q10 0 17 -7t7 -18q-1 -22 -20.5 -43.5t-38.5 -34.5q-129 -86 -350 -86q-113 0 -187 25l-139 -277q117 47 258 47q71 0 131 -9.5t116.5 -34t95 -62t60.5 -98t19 -138.5 q-2 -72 -27 -135t-66 -110.5t-96 -87t-116.5 -67t-130 -46.5t-133.5 -29t-129 -12q-79 -2 -152.5 21t-126.5 73q-31 31 -31 62z" />
<glyph unicode="6" horiz-adv-x="886" d="M16 217q3 93 40.5 212t98 240.5t117 219.5t119.5 194q12 19 21.5 36t15.5 28t13.5 29.5t10 26t12 34t13.5 37.5q10 24 33 24q24 0 39.5 -23t15.5 -46q-2 -64 -125 -254q-6 -9 -29.5 -44.5t-31 -47t-28 -43.5t-30.5 -48t-27 -44.5t-27.5 -48.5t-23.5 -45.5t-24 -49.5 q61 45 145.5 85.5t129.5 53.5q59 17 106 17q107 0 181.5 -66t70.5 -172q-2 -71 -49 -149.5t-120.5 -144.5t-159 -121t-172 -86t-152.5 -31q-101 0 -143.5 62t-39.5 165zM109 213q-2 -47 4.5 -79t31 -54.5t68.5 -22.5q81 0 185.5 60t197.5 137q157 133 162 262q2 70 -41 119 t-111 49q-76 0 -177 -41.5t-167 -95.5q-35 -28 -37 -39q-3 -9 1 -9q1 0 2.5 -0.5t2.5 -0.5q5 -1 18.5 -2t25.5 -2.5t25 -4.5t20.5 -9t7.5 -15q-1 -12 -35 -20.5t-49 -8.5q-51 0 -86 17q-46 -137 -49 -240z" />
<glyph unicode="7" horiz-adv-x="903" d="M51 1161q1 21 16 31t33 10q32 0 65.5 -23t45.5 -51q31 -25 111.5 -36t150.5 -11q103 0 167 14.5t157 59.5q24 12 43 12q26 0 39.5 -17t13.5 -42q-3 -50 -46 -82t-93 -35q-64 -58 -127 -123t-136.5 -153t-128.5 -172t-93.5 -177t-41.5 -171q-2 -65 18 -119t66 -66l11 -4 q41 -10 31 -35q-9 -23 -44 -29l-14 -1q-43 0 -75 21t-48.5 54.5t-23.5 69.5t-5 72q14 399 527 862q-77 -14 -170 -14t-212 22.5t-184 63.5q-53 32 -53 69z" />
<glyph unicode="8" horiz-adv-x="901" d="M18 264q2 58 33.5 123.5t83 127t99.5 109t102 93.5q-51 34 -85 60t-67.5 59.5t-49.5 67.5t-15 69q3 57 53 104q103 103 283 103q67 0 179 -18.5t167 -55.5q15 6 28 6q22 0 40.5 -10t17.5 -31q0 -20 -19 -39q-25 -33 -102 -90q-44 -33 -144 -102.5t-151 -108.5 q52 -35 89.5 -62.5t81 -67t70.5 -76t44.5 -82.5t15.5 -93q-2 -64 -35 -117.5t-82.5 -88.5t-112 -59.5t-122.5 -35t-115 -10.5q-53 0 -102.5 12.5t-93 37.5t-68.5 70.5t-23 104.5zM98 244q-1 -40 21.5 -66.5t63 -37.5t74 -15t73.5 -4q55 0 114 12.5t116.5 37t95.5 69.5 t40 102q1 32 -9 63t-33.5 61t-46.5 54.5t-63.5 55t-68.5 49.5t-76 51q-6 -5 -18.5 -15.5t-18.5 -15.5q-89 -78 -175 -197t-89 -204zM193 975q-1 -40 49.5 -84t160.5 -115q69 56 340 254l-18 12q-51 31 -100 41q-90 19 -179 19q-168 0 -235 -86q-15 -18 -18 -41z" />
<glyph unicode="9" horiz-adv-x="948" d="M35 719q2 39 28 96q50 94 166 184t250.5 145.5t239.5 55.5q99 0 158.5 -45.5t56.5 -142.5q-3 -85 -41.5 -176.5t-104 -180.5t-129.5 -163.5t-144 -163t-120 -140.5q-78 -106 -88 -147q-2 -5 -6.5 -22t-9.5 -25q-20 -49 -53 -49q-20 0 -28.5 19t-6.5 38q0 19 6 40t18.5 44 t23 40t31 42.5t30 37.5t32.5 37.5t27 30.5q194 210 272 320q-129 -82 -321 -82q-47 0 -95 11t-93 34t-72.5 65t-26.5 97zM137 715q-1 -37 15 -63t45 -39t60.5 -18t70.5 -5q87 0 159 33t160 98q35 24 47 24q24 0 37 -16q108 179 111 293q3 56 -23 81t-84 25q-67 0 -168 -38 t-195.5 -95.5t-163 -134t-71.5 -145.5z" />
<glyph unicode=":" horiz-adv-x="458" d="M225 35q0 27 19 38t39 11q61 0 61 -45q0 -31 -20.5 -45t-47.5 -14q-21 0 -36 19t-15 36zM252 383q0 27 19.5 38t39.5 11q62 0 62 -45q0 -31 -20.5 -45t-47.5 -14q-22 0 -37.5 18t-15.5 37z" />
<glyph unicode=";" horiz-adv-x="409" d="M147 -152q0 14 15 29q16 15 30 43t29 66.5t19 46.5q17 39 53 39q22 0 37.5 -20t15.5 -34q0 -29 -70 -113.5t-98 -84.5q-11 0 -21 6.5t-10 21.5zM252 383q0 27 19.5 38t39.5 11q62 0 62 -45q0 -31 -20.5 -45t-47.5 -14q-22 0 -37.5 18t-15.5 37z" />
<glyph unicode="&#x3c;" horiz-adv-x="651" d="M31 510q0 48 39 61q28 9 71.5 43t101 92.5t94.5 98t96.5 106.5t62.5 70q40 51 88 51q14 0 25.5 -8t11.5 -25q0 -12 -13 -34q-20 -25 -22 -27q-49 -53 -110.5 -116.5t-99.5 -101.5t-120 -118t-106 -104q51 -41 116 -96t144.5 -127.5t89.5 -94.5q16 -32 16 -51 q0 -15 -9 -31t-28 -16q-7 0 -12.5 1.5t-9.5 6.5t-5.5 7.5t-5 10t-4.5 9.5q-16 50 -340 286q-35 24 -53 48t-18 59z" />
<glyph unicode="=" horiz-adv-x="698" d="M31 385q0 25 14 41t40.5 22t44 7.5t44.5 1.5q93 0 215 -17q7 -1 55 -2.5t78 -3.5q48 -5 83.5 -16t35.5 -23q0 -27 -29 -35q-12 -4 -39 -4q-29 0 -85 3t-85 3q-168 0 -311 -22q-2 0 -6 -1t-6 -1q-21 0 -35 13t-14 34zM33 567q0 75 201 74h10q102 0 190 -14q4 -1 24.5 -3.5 t48 -6t50.5 -7.5q45 -8 78 -22t33 -27q0 -18 -22 -26.5t-40 -8.5q-36 0 -106.5 8.5t-106.5 8.5q-45 0 -96.5 -4.5t-113.5 -11t-97 -9.5q-21 -2 -37 11.5t-16 37.5z" />
<glyph unicode="&#x3e;" horiz-adv-x="786" d="M174 145q0 73 77.5 183t173.5 200.5t177 143.5q-57 6 -114.5 33t-94.5 65q-52 49 -73 98.5t-21 120.5q0 16 10 31.5t29 15.5q27 0 40.5 -28t18 -63.5t26 -75.5t60.5 -58q120 -59 213 -59q23 0 41.5 -14t18.5 -38q0 -43 -47 -63q-126 -60 -253.5 -190.5t-185.5 -260.5 q35 -18 35 -45q0 -24 -30 -43.5t-52 -19.5q-27 0 -38 21t-11 46z" />
<glyph unicode="?" horiz-adv-x="692" d="M297 43q0 33 29 67.5t63 34.5q22 0 35.5 -16t13.5 -37q0 -33 -30.5 -67.5t-63.5 -34.5q-23 0 -35 16.5t-12 36.5zM319 315q0 11 4 24t9 23.5t16 25t17.5 23t21 23.5t20 20.5t21.5 20.5t18 17q49 47 112.5 117t124 157.5t60.5 130.5q0 22 -18.5 33.5t-46.5 11.5 q-42 0 -121.5 -27.5t-107.5 -54.5q-7 -7 -18.5 -28t-24 -35.5t-27.5 -14.5q-18 0 -26.5 13t-8.5 30q0 44 41 83.5t98.5 64t113.5 39t91 14.5q61 0 107.5 -30t46.5 -91q0 -44 -32.5 -104t-60.5 -94t-74 -85q-6 -7 -9 -10q-27 -28 -79 -85t-94 -100t-83 -81q6 -18 6 -37 q0 -23 -11.5 -43t-33.5 -20q-25 0 -38.5 23t-13.5 46z" />
<glyph unicode="@" horiz-adv-x="1150" d="M31 8q0 139 79.5 278.5t196.5 254.5q61 60 129 116.5t154 115.5t176.5 94.5t167.5 35.5q93 0 139.5 -50.5t46.5 -143.5q0 -83 -31 -180.5t-77 -180.5q-23 -41 -63.5 -95.5t-93 -114.5t-111.5 -101t-105 -41q-32 0 -62 20t-34 52q-88 -72 -170 -72q-45 0 -78 20t-33 66 q0 56 63 153.5t153 175.5t155 78q36 0 59 -18.5t23 -54.5q0 -33 -13 -70h3q12 1 19 -13.5t7 -27.5q0 -25 -49 -112t-49 -113q0 -10 8 -10q37 0 82.5 35.5t89.5 93.5t72 101t55 89q40 73 69 159t29 154q0 123 -106 123q-59 0 -138.5 -34t-158.5 -87t-143.5 -103.5 t-116.5 -98.5q-97 -86 -185 -244.5t-88 -271.5q0 -85 58 -124.5t151 -39.5q87 0 171 30t192 85q11 8 26 8q8 0 14.5 -5t6.5 -14q0 -28 -55 -65q-60 -42 -181 -73.5t-200 -31.5q-122 0 -188 64t-66 188zM344 80q0 -6 25 -6q60 0 120 47t103 110q-6 6 -6 17q0 12 25.5 60 t25.5 73q0 20 -16 20q-38 0 -105.5 -62.5t-119.5 -140t-52 -118.5z" />
<glyph unicode="A" horiz-adv-x="1206" d="M-10 -106q0 39 36.5 115.5t69.5 76.5q19 0 19 -16t-24.5 -71.5t-24.5 -80.5q0 -16 20 -16q9 0 22.5 8.5t23.5 17.5t24.5 23t17.5 16q214 196 348 330q-54 -8 -82 -8q-26 0 -46.5 19t-20.5 46q0 11 7 19t19 8q89 0 222 14q26 27 159 170q88 101 297 355q14 17 48 56 t57.5 70t40.5 62q2 4 8.5 16.5t10 17.5t10 14t14 14t16.5 8q8 4 16 4q18 0 33 -15t15 -34q0 -17 -37 -105q-32 -80 -45 -106q-84 -219 -144 -482h19q11 0 40 -6t29 -12t-16 -15.5t-37 -13.5q-20 -5 -45 -10q-39 -195 -39 -305q0 -107 33 -158q12 -16 12 -29q0 -20 -24 -20 q-31 0 -53.5 26.5t-32 67t-13.5 73t-4 60.5q0 119 31 271q-31 -4 -155 -20.5t-191 -26.5q-88 -90 -296.5 -284t-256.5 -214q-27 -10 -51 -10q-38 0 -59 21.5t-21 58.5zM758 412q141 15 274 24q55 247 135 469q-304 -374 -409 -493z" />
<glyph unicode="B" horiz-adv-x="1177" d="M-10 891q0 35 99 73.5t233 66.5t247.5 47t165.5 24q1 2 6 10.5t8 13t8 10t10.5 8.5t12.5 3q15 0 30.5 -11.5t18.5 -27.5h19q34 0 71 -2q47 -4 108 -16t107 -32t78.5 -57t32.5 -86q0 -45 -26 -87.5t-65 -75t-92.5 -62.5t-98.5 -49t-93 -35q318 -43 318 -266 q0 -96 -66 -179.5t-164 -135.5t-202 -81.5t-189 -29.5q-37 0 -79 9t-83.5 27.5t-68.5 53t-27 78.5q0 55 40.5 93.5t104 55t115 23t99.5 6.5q59 0 59 -22q0 -12 -17.5 -20.5t-29.5 -8.5q-33 0 -77.5 -6.5t-94 -20t-83.5 -40.5t-34 -62q0 -24 14 -41t32.5 -25.5t47.5 -13 t47 -5.5t43 -1q74 0 164 26t171.5 71t136.5 114.5t55 146.5q0 46 -30 82.5t-75 59t-102 37.5t-107 20.5t-94 5.5q-13 0 -39.5 -5t-40.5 -5q-18 0 -34.5 11.5t-16.5 31.5q0 31 39 31q158 0 369 108q28 14 54.5 29.5t58 39t50.5 50.5t19 53q0 42 -32 71t-84 41t-92.5 16.5 t-82.5 4.5q-48 0 -71 -2q-269 -389 -371 -561q-130 -214 -187 -334q-4 -10 -17.5 -46t-22.5 -54q-14 -31 -46 -31q-36 0 -36 39v6q3 48 48.5 143.5t127 227.5t143 226.5t153 229t99.5 146.5q-149 -19 -330.5 -64t-259.5 -98q-17 -12 -43 -12q-22 0 -40.5 10t-18.5 31z" />
<glyph unicode="C" horiz-adv-x="794" d="M-10 184q0 257 196 551q39 57 98.5 123t134 134.5t157.5 113.5t149 45q67 0 102 -45t35 -113q0 -86 -26 -194t-76 -152q-25 -20 -39 -20q-13 0 -20 11t-7 21q0 17 11 35q29 49 46 130t17 147q0 23 -0.5 33t-4.5 28.5t-14.5 26.5t-27.5 8q-45 0 -108 -37t-122.5 -91.5 t-109 -108t-78.5 -95.5q-89 -128 -152 -282t-63 -285q0 -95 38.5 -146t127.5 -51q141 0 312 96t274 218q12 14 43 56t51 62q24 19 35 19q8 0 14 -6t6 -15q0 -8 -4 -12q-1 -2 -3 -5t-3 -5q-39 -59 -58 -86.5t-52 -70t-60.5 -68t-68.5 -57t-91 -60.5q-236 -143 -387 -143 q-84 0 -158 38q-114 55 -114 252z" />
<glyph unicode="D" horiz-adv-x="1292" d="M-10 -10q0 33 84 33q18 -1 37 -1q56 0 112 7q162 288 318 530q31 47 91.5 131t80.5 113q4 5 27.5 33.5t36.5 48t20 37.5q1 3 6 16t8.5 20.5t11.5 15t17 7.5q61 0 61 -37q0 -20 -13.5 -42.5t-38 -50.5t-30.5 -36q-87 -117 -241 -348q-4 -7 -45 -73.5t-78.5 -128.5 t-75.5 -127.5t-49 -88.5q212 47 458 164q67 32 161 98.5t187 148.5t157.5 174t64.5 161q0 43 -27 77t-73 55t-97 35.5t-110 21t-100.5 9t-78.5 2.5q-167 0 -356.5 -40.5t-320.5 -110.5q-32 -49 -91 -49q-23 0 -43 9.5t-20 31.5q0 15 10 28q26 43 108.5 79.5t184 59t214 39 t198.5 23t137 6.5q50 0 111.5 -5.5t143.5 -23t147.5 -45t111 -76t45.5 -110.5q0 -79 -49 -167.5t-122 -164t-164.5 -147.5t-169 -121t-142.5 -82q-198 -101 -490 -156q-14 -55 -49 -55q-14 0 -30 12.5t-25 26.5q-12 -2 -46 -6.5t-57.5 -7t-44.5 -2.5t-47 14.5t-26 34.5z" />
<glyph unicode="E" horiz-adv-x="1011" d="M-10 141q0 318 446 615q-10 20 -10 43q0 27 12.5 60.5t30.5 55.5q46 65 131.5 116.5t177.5 76.5t174 25q89 0 146 -39.5t57 -128.5q0 -31 -13 -74t-36 -43q-19 0 -32 14t-13 33q0 13 4 36t4 34q0 88 -113 88q-85 0 -187 -30t-161 -79q-98 -77 -98 -151v-11q118 47 199 47 q28 0 58 -17t30 -46q0 -28 -37.5 -51t-79.5 -33t-70 -10q-63 0 -112 14q-166 -90 -267 -215q-135 -176 -135 -315q0 -70 42.5 -116.5t101.5 -64.5t131 -18q92 0 194.5 27t190.5 71q191 93 364 285q10 10 36.5 40.5t41.5 45.5q16 20 35 20q11 0 19 -8t8 -18t-7 -17 q-135 -230 -388 -381t-517 -151q-109 0 -197.5 39.5t-132.5 128.5q-28 54 -28 102zM608 741q103 5 103 23q-1 1 -2 1l-1 -1q-2 0 -5 -1t-5 -1q-25 0 -90 -21z" />
<glyph unicode="F" horiz-adv-x="1218" d="M-10 174q0 108 74 185t182 77q65 0 65 -28q0 -15 -92 -52q-5 -2 -12.5 -4.5t-9.5 -3.5q-111 -69 -111 -174q0 -60 38 -103.5t92 -62t116 -18.5q40 0 80 6q74 11 137 32t112.5 46.5t94.5 64.5t78.5 77t69 93.5t61.5 104t61 118.5q-32 -8 -172 -42.5t-215 -51.5 q-27 -6 -57 -6q-20 0 -51 8t-31 23q0 10 4 14q8 10 44 21.5t87 22t98 19.5t95 17t59 10q34 7 95 20t79 17q102 214 160 344q-107 -67 -267.5 -113.5t-285.5 -46.5q-182 0 -256 93q-29 34 -29 61q0 21 16 21q5 0 10.5 -2.5t9 -5.5t9.5 -8t8 -7q78 -76 246 -76q60 0 156 15 q128 20 454 221q9 21 29.5 40t44.5 19q22 0 43 -10.5t21 -30.5q0 -12 -25 -45q-5 -7 -12.5 -15t-11.5 -13t-9.5 -13.5t-9.5 -17.5q-1 -2 -5.5 -12t-6.5 -13q-34 -68 -97 -190t-88 -172q11 2 39.5 8.5t43.5 9t39 7t44.5 6t40.5 1.5l8 -2q31 0 31 -20q0 -10 -33.5 -23.5 t-77.5 -21.5q-20 -4 -49.5 -9t-48 -8.5t-24.5 -5.5l-48 -12q-112 -215 -133 -248q-121 -194 -276.5 -293.5t-372.5 -99.5q-65 0 -124 12.5t-114 40t-87.5 80.5t-32.5 125z" />
<glyph unicode="G" horiz-adv-x="1187" d="M-10 -420q0 50 23 113t55 104q25 25 30 25q21 0 21 -23q0 -15 -25 -78q-24 -58 -24 -96q0 -52 24.5 -74t77.5 -22q149 0 379 188q134 112 276.5 313.5t249.5 403.5q-155 -118 -295 -188q-341 -164 -467 -164q-35 0 -68 6.5t-65.5 21.5t-52.5 44.5t-20 70.5q0 36 14 80 q38 108 132 231.5t210 230t241.5 195t233.5 138.5q41 18 76 18q77 0 120.5 -63.5t43.5 -141.5q0 -29 -8 -63t-30 -64t-52 -30q-11 0 -21 6.5t-10 19.5q0 5 4 17q20 53 20 119q0 106 -53 106q-74 0 -234.5 -107t-263.5 -196q-76 -65 -141 -141q-61 -70 -122.5 -182 t-61.5 -181q0 -31 15.5 -41t51.5 -10q97 0 251 60.5t278 129.5q132 73 284 197q13 10 50 42.5t59 47.5q16 12 39 12q39 0 39 -47q0 -37 -43 -110q-12 -22 -35.5 -57t-26.5 -40q-31 -46 -84 -136t-77 -128q-60 -94 -118.5 -173.5t-138.5 -168.5t-160 -155t-179.5 -117.5 t-200.5 -71.5q-35 -6 -72 -6q-69 0 -109 33t-40 102z" />
<glyph unicode="H" horiz-adv-x="1087" d="M-10 543q0 18 12 31.5t31 13.5q24 0 67 -37q38 -12 82 -12q32 0 137 14q73 118 180.5 310t112.5 235q-24 -1 -77 -33.5t-68 -32.5q-10 0 -25.5 7t-15.5 18q0 17 83.5 68t108.5 51q26 0 61.5 -19t35.5 -43q0 -40 -307 -553q267 29 561 35l10 20l145 308q62 126 72 153 q15 37 43 37q25 0 45.5 -24.5t20.5 -47.5q0 -18 -17 -32q-152 -257 -227 -412q43 0 87 -9t44 -28q0 -11 -24 -20.5t-56 -10.5q-33 -2 -86 -2q-89 -192 -154 -360q-5 -13 -18 -43.5t-21 -49t-16.5 -45.5t-11.5 -48q-3 -13 -6 -20.5t-11.5 -15t-21.5 -7.5q-26 0 -38.5 22 t-12.5 45q0 11 10 41t27.5 73t37 88t44 98t42 90.5t37 79t23.5 50.5q-313 -10 -576 -41q-43 -67 -120 -194q-76 -119 -101 -168l6 2q20 4 29 4q19 0 19 -14q0 -22 -38 -61.5t-61 -39.5q-28 0 -46.5 25t-18.5 51q0 8 21 44.5t55.5 90.5t64.5 99.5t64.5 96.5t37.5 56 q-78 -8 -118 -8q-19 0 -43.5 3t-53.5 10.5t-48 23.5t-19 37z" />
<glyph unicode="I" horiz-adv-x="870" d="M-10 231q0 90 46.5 173t127.5 134.5t172 51.5q4 0 19.5 -5t15.5 -10q0 -3 -14 -14.5t-31 -19.5q-15 -6 -45 -21q-124 -67 -177 -170q-32 -63 -32 -145q0 -101 46 -148t146 -47q112 0 211.5 54.5t161.5 148.5q108 166 198.5 425t90.5 439v8q-37 -17 -166 -219 q-38 -64 -60 -121q-103 -251 -139 -358l4 4q35 35 51 35q4 0 10.5 -4.5t6.5 -9.5q0 -36 -43.5 -95t-79.5 -59q-45 0 -45 53q0 75 77.5 274t135.5 306q25 45 61.5 101t92.5 120.5t94 75.5q10 2 28 2q58 0 58 -43q0 -83 -14 -186.5t-44 -220t-72 -231.5t-103 -220t-132.5 -185 t-164.5 -128t-195 -48q-134 0 -215.5 84t-81.5 219z" />
<glyph unicode="J" horiz-adv-x="1183" d="M-10 -582q0 42 33.5 96t87.5 105.5t95 86t81 63.5q82 60 182 109t232.5 102t195.5 83q98 173 171 391.5t73 387.5q0 164 -62 164q-56 0 -182 -91q-67 -49 -153.5 -129.5t-175.5 -178.5t-149.5 -200.5t-60.5 -173.5q0 -106 156 -106q74 0 170.5 28t163.5 68q13 10 29 10 q13 0 25.5 -7.5t12.5 -24.5q0 -15 -12 -23q-49 -47 -176.5 -84t-204.5 -37q-45 0 -85 9.5t-74.5 30.5t-55 58t-20.5 87q0 97 90 246t215 281.5t266.5 228.5t235.5 96q39 0 65.5 -26t38 -69.5t15.5 -79.5t4 -75q0 -162 -60.5 -355t-152.5 -370q99 58 173.5 125.5t147.5 163.5 l4 6q12 16 29 16q18 0 18 -22q0 -11 -8 -23q-124 -230 -424 -375q-140 -238 -348 -408t-463 -239q-50 -10 -61 -10q-33 0 -57.5 15.5t-24.5 49.5zM68 -574v-1q37 0 118 26q185 62 361 202.5t289 309.5q-34 -15 -100 -38t-81 -29q-117 -45 -198 -97q-45 -28 -98 -66 t-124.5 -94.5t-118 -113.5t-46.5 -96q0 -1 -2 -3z" />
<glyph unicode="K" horiz-adv-x="1101" d="M-10 -49q0 13 35.5 72t95.5 149t109.5 162t108.5 157t62 89q14 22 106 140.5t164 220.5t72 126q0 6 -18 6q-38 0 -94.5 -38t-77.5 -38q-16 0 -40 8.5t-24 24.5q0 30 105 72.5t151 42.5q78 0 78 -68q0 -38 -18.5 -80.5t-36.5 -68t-51 -66.5q-181 -233 -303 -403 q40 21 96 41q31 12 71 25.5t91.5 30t81.5 26.5q162 55 229 92q3 2 22.5 13t38.5 22t39.5 24t33.5 23t13 14q0 7 -1 18.5t-1 15.5t3.5 10t13 7.5t26.5 1.5q78 0 78 -45q0 -4 -4 -16q-12 -35 -108.5 -90.5t-177 -90.5t-138.5 -57q-6 -2 -63.5 -23t-108 -40t-109.5 -42.5 t-96.5 -43.5t-42.5 -31q-2 -2 -2 -10q0 -64 67 -121.5t142 -81.5q186 -59 332 -59q63 0 115 8q11 1 34 5.5t35 4.5q4 0 9.5 -3.5t5.5 -8.5l-2 -4q-18 -35 -91 -51.5t-128 -16.5q-97 0 -205 23q-54 11 -112.5 30.5t-123 50t-114 76.5t-66.5 99q-148 -230 -176 -277 q-1 -2 -7 -10.5t-8 -11.5t-7.5 -11t-8.5 -11.5t-8.5 -10.5t-10 -10t-10.5 -7.5t-11 -6.5t-11.5 -3.5t-13.5 -1.5q-35 0 -35 27z" />
<glyph unicode="L" horiz-adv-x="1140" d="M-10 -20q0 45 36 120.5t93.5 137t105.5 61.5q33 0 101 -45q133 141 194 215q78 96 158 223q11 17 59.5 99.5t87.5 146.5t85.5 128t70.5 79q56 31 100 31q39 0 63.5 -23t24.5 -63q0 -56 -31.5 -206t-54.5 -239q-15 -53 -63 -53q-13 0 -28 6t-15 18q0 13 12 25 q80 257 80 385q0 55 -12 55q-17 0 -55.5 -45t-86 -116t-90.5 -138.5t-83 -134t-50 -80.5q-40 -62 -95 -130.5t-97.5 -115t-110.5 -118.5q66 -51 98.5 -74.5t87.5 -54t109.5 -42.5t120.5 -12q20 0 37 1t34 3.5t29 4.5t29.5 7.5t26 8t28 11t27 12t31 14t32.5 14.5q26 13 41 13 q9 0 19 -6t10 -17q0 -13 -27 -35l-8 -6q-71 -50 -156 -80.5t-165 -30.5q-214 0 -453 216l-19.5 -19.5l-28 -28t-32 -31.5t-37 -35t-36.5 -32.5t-38 -31.5t-33 -24t-30.5 -18t-22.5 -6q-28 0 -50.5 13t-22.5 43zM98 45q29 11 176 158q-20 12 -30 12q-35 0 -89.5 -66 t-56.5 -104z" />
<glyph unicode="M" horiz-adv-x="1400" d="M-10 4q0 26 25.5 41.5t47.5 15.5q46 0 173 131t262.5 302.5t246 321t142.5 202.5q1 2 8.5 15.5t11.5 19t13 12t20 6.5q21 0 44.5 -18t23.5 -41q0 -3 -66 -191q-65 -171 -76 -213q-9 -26 -69 -231q311 238 727 686q36 43 51 43q21 0 41 -23.5t20 -44.5q0 -16 -55 -92 q-45 -65 -63 -92q-63 -105 -133 -246.5t-132.5 -311.5t-62.5 -263q0 -36 12.5 -52t44.5 -16q11 0 33 6t33 7q26 0 26 -21q0 -26 -48.5 -43.5t-80.5 -17.5q-50 0 -79 27t-29 79q0 100 49.5 258.5t106.5 287.5t122 257q-590 -555 -620 -555h-10q-58 0 -58 43q0 67 78 305 q26 83 84 254q-94 -135 -210 -292t-257 -327.5t-205 -212.5q-83 -57 -129 -57q-17 0 -40 13.5t-23 27.5z" />
<glyph unicode="N" horiz-adv-x="1062" d="M-10 -8q0 14 5.5 23.5t11 13.5t18.5 12q43 27 122 136.5t136 203.5q128 209 282 528q-1 8 -1 15q0 49 48 49q29 0 54.5 -13.5t25.5 -39.5q0 -10 -2 -32t-2 -32q0 -61 4.5 -130t11 -151.5t9.5 -128.5q6 -92 6 -180q1 -8 1 -46.5t2 -69.5t7 -41q0 -3 4 -3q2 0 6.5 5 t9.5 12.5t9.5 15t8.5 14t5 7.5q42 73 110 219.5t122 262t132 237t152 182.5q42 35 115 57.5t131 22.5q41 0 41 -35q0 -22 -17.5 -36.5t-39.5 -14.5q-9 0 -28 4t-28 4q-32 0 -73.5 -21.5t-67.5 -48.5q-85 -88 -215 -342q-32 -63 -66 -134t-68 -144.5t-48 -102.5 q-4 -8 -21 -43.5t-29 -60t-29 -57t-32 -56t-27 -35.5q-32 -32 -65 -32q-47 0 -69.5 34.5t-22.5 79.5q0 340 -47 666q-150 -283 -209 -387q-156 -280 -250 -371q-55 -55 -98 -55q-35 0 -35 39z" />
<glyph unicode="O" d="M-10 111q0 121 67 289.5t152 316.5q19 33 53.5 79.5t81.5 99.5q46 52 98 86q44 28 78 29q6 0 12 -1q116 129 224 129q105 0 155 -58.5t50 -162.5q0 -128 -52.5 -256.5t-138.5 -235.5q-60 -75 -127 -143.5t-153.5 -139t-183 -113t-185.5 -42.5q-56 0 -93.5 33t-37.5 90z M74 111q0 -30 6.5 -41t28.5 -11q113 0 253 90t254 219.5t192.5 280.5t78.5 266q0 60 -28.5 105t-82.5 45q-76 0 -172 -96q23 -30 23 -68q0 -47 -60.5 -193.5t-97.5 -146.5q-18 0 -18 19q0 16 49 129q49 112 49 163q0 19 -7 26t-24 7q-76 0 -184.5 -161.5t-184 -351.5 t-75.5 -281z" />
<glyph unicode="P" horiz-adv-x="1013" d="M-10 975q0 15 12 33q109 6 334.5 26t341.5 25q25 40 29 53q16 53 49 53q18 0 26.5 -16.5t8.5 -34.5q0 -22 -11 -51h39q430 0 430 -174q0 -49 -44.5 -101t-112 -95t-163.5 -87t-182.5 -76t-186.5 -64t-157.5 -48.5t-113.5 -30.5q-205 -310 -205 -360q0 -7 6 -7 q11 0 38 21.5t40 21.5q8 0 14 -8t6 -16q0 -34 -39 -66t-73 -32q-29 0 -46.5 19.5t-17.5 47.5q0 14 4 31.5t13 39.5t17 41t23 46t24 44t26.5 45.5t24.5 40t23.5 37.5t18.5 29q-18 0 -29.5 12.5t-11.5 31.5q0 23 15.5 38t38.5 15q6 0 22 -4l29 4q122 188 248 362 q108 139 123 160l-84 -4q-30 -2 -285 -29q-15 -2 -46.5 -6.5t-50.5 -7t-45.5 -4.5t-48.5 -2q-26 0 -48.5 11t-22.5 36zM356 485q74 20 160.5 46.5t204.5 71t210 90t157 101t65 105.5q0 17 -6 29q-30 57 -322 57h-98q-194 -241 -371 -500z" />
<glyph unicode="Q" horiz-adv-x="647" d="M-10 129q0 93 26 242.5t58 234.5q0 147 82 260q79 110 212 205.5t248 95.5q179 0 179 -237q0 -133 -52.5 -296.5t-130.5 -268.5q-115 -151 -239 -263q0 -8 -0.5 -33t0 -38.5t1.5 -34t3.5 -37t7.5 -31.5q23 -71 98 -71q9 0 27 4t27 4q5 0 11.5 -5.5t6.5 -13.5 q0 -19 -40 -32t-64 -13q-36 0 -63.5 16.5t-43 40t-26 58.5t-14 62t-5.5 61q-132 -105 -197 -105q-34 0 -57.5 19.5t-34.5 52t-15.5 62t-4.5 61.5zM80 172q0 -154 31 -154q54 0 184 117q1 30 4 65t9.5 86t19 84t28.5 33q19 0 28 -20t9 -43q0 -18 -2 -38.5t-5.5 -45.5 t-4.5 -39q336 356 336 713q0 168 -90 168q-87 0 -226.5 -97t-185.5 -180q-20 -34 -31 -67q18 14 29 14q12 0 20.5 -12.5t8.5 -22.5q0 -15 -15 -41t-41 -62t-28 -40q1 -15 16 -72l4 -14q0 -19 -15 -34t-34 -15q-12 0 -20 8q-29 -139 -29 -291z" />
<glyph unicode="R" horiz-adv-x="983" d="M-10 928q0 28 24 49q28 23 278.5 44t375.5 23q3 5 11.5 25.5t15 33t18.5 24.5t24 12q18 0 25.5 -16.5t7.5 -35.5q0 -16 -4 -40q453 0 453 -160q0 -46 -47 -93.5t-128 -87t-167 -74t-187.5 -63.5t-164.5 -45.5t-122 -29.5q106 -186 263 -340q73 -73 159.5 -117t200.5 -74 q80 -18 80 -43q0 -16 -37 -16q-29 0 -59 6q-120 20 -215.5 64t-178.5 124q-134 126 -280 357q-6 -9 -30.5 -46.5t-46 -71t-52 -81t-54.5 -88t-46 -79.5t-34 -67.5t-12 -41.5q0 -1 2 -3t6 -4t9 -2q8 0 23.5 7.5t23.5 7.5q14 0 14 -17q0 -25 -28.5 -40t-51.5 -15 q-30 0 -48.5 18t-18.5 48q0 20 10.5 51t24.5 62.5t39 75.5t44.5 76.5t50 80t46 71.5t43 64.5t31.5 46.5q-6 21 7.5 38.5t33.5 22.5q84 121 290 396q-467 -13 -565 -68q-16 -8 -27 -8q-16 0 -23 13t-7 26zM420 578q82 16 183.5 43t226.5 68.5t207.5 95.5t82.5 106q0 15 -6 27 q-31 51 -293 51q-48 0 -104 -2q-183 -225 -297 -389z" />
<glyph unicode="S" horiz-adv-x="1052" d="M-10 23q0 46 22 88.5t55.5 73t78.5 56.5t84.5 42t80.5 28q147 41 320 41q128 0 176 -18q5 -2 10.5 -7t5.5 -8q0 -9 -13 -13.5t-24 -4.5q-61 -8 -96 -10q-20 -2 -86.5 -6.5t-98.5 -7.5t-83.5 -13t-91.5 -24q-50 -18 -103 -48t-100 -77.5t-47 -91.5q0 -29 24 -42.5 t60 -13.5q117 0 373 123q44 21 74.5 36.5t84.5 45t92.5 55t84 61t74 68.5t48 72.5t19.5 77.5q0 26 -6 47q-24 82 -369 82q-10 0 -44 -2q-34 -3 -66 -3h-34.5h-40.5q-42 0 -76.5 5.5t-65.5 15t-48.5 28t-17.5 44.5v10q8 28 97 85t159 93.5t123 61.5q104 46 302.5 116 t262.5 69q26 0 57 -14.5t31 -37.5q0 -16 -10 -23q-14 -12 -58.5 -22.5t-104 -19.5t-69.5 -11q-66 -13 -143 -43q-38 -14 -112.5 -44.5t-175.5 -74.5t-173 -86t-72 -63q0 -3 5 -3t13 0.5t17 -0.5h54q12 0 82.5 1.5t115.5 1.5t119 -4.5t123.5 -12.5t96.5 -26t67 -43 q34 -39 34 -98q0 -98 -77.5 -199.5t-171.5 -165.5q-94 -61 -194.5 -117.5t-233 -109t-217.5 -52.5q-203 0 -203 132z" />
<glyph unicode="T" horiz-adv-x="768" d="M166 1063q0 29 39 29q23 0 64 -9t46 -10q74 -10 181 -10q192 0 288 10q12 15 32.5 28t39.5 13q27 0 27 -24v-3q61 10 108 15q24 3 78 11t94.5 12.5t77.5 4.5q55 0 55 -32q0 -20 -14 -29.5t-29 -9.5q-6 0 -18 2t-18 2q-34 0 -106.5 -16t-92.5 -19l-176 -22 q-78 -130 -164.5 -294t-169 -367t-82.5 -302q0 -61 45 -88q6 -4 23 -11t29 -14.5t16 -17.5q-3 -12 -18 -17.5t-27 -5.5q-60 0 -105 41t-45 101q0 104 73 301t157 366.5t157 292.5q-166 -16 -315 -16q-250 0 -250 88z" />
<glyph unicode="U" horiz-adv-x="1185" d="M-10 879q0 21 33 26l10 2q12 2 29 9t38.5 20t39.5 24.5t43 29.5t38.5 28t36 27.5t25.5 19.5q193 145 249 145q25 0 48.5 -11.5t23.5 -39.5q0 -13 -8 -29q-11 -24 -76 -160.5t-116.5 -248.5t-112.5 -251.5t-96 -241.5t-35 -146q0 -12 3 -15.5t13 -3.5q55 0 147 73 t185.5 179.5t162.5 193t111 146.5q53 75 107 168q8 13 56 99.5t89.5 155t57.5 77.5q13 8 34 8q62 0 62 -39l-70 -147q-59 -127 -125 -282t-137.5 -355.5t-71.5 -273.5q0 -22 8 -31.5t29 -9.5q53 0 140 66t135 126q1 2 10 12.5t15.5 17.5t15.5 16t17 13.5t15 4.5q8 0 12.5 -6 t4.5 -11q0 -20 -39 -78q-118 -174 -305 -235q-28 -8 -41 -8q-42 0 -77.5 28t-35.5 72q0 178 166 571q-235 -370 -508 -553q-79 -52 -117 -65q-44 -14 -71 -14q-43 0 -66.5 26t-23.5 68q0 67 92 298t174.5 411t157.5 335q-5 -4 -33 -24t-48 -33.5t-55 -38t-62 -42.5 t-61.5 -40.5t-61.5 -38.5t-53 -30t-45 -21.5t-30 -7.5q-16 0 -34.5 9t-18.5 26z" />
<glyph unicode="V" horiz-adv-x="913" d="M-10 625q0 12 10.5 21.5t28 18.5t22.5 13q42 27 90 90q12 16 90 129.5t145.5 206t80.5 92.5q34 0 61 -18t27 -54q0 -28 -3 -57t-10 -76t-8 -57q-23 -160 -51 -338q-29 -173 -29 -365q0 -48 5 -102q7 -66 14 -73q3 -3 6 -3q32 0 86.5 61.5t108 147.5t92.5 154.5t57 105.5 q3 6 28 56.5t41 82t45.5 87.5t53 95t50.5 81t51.5 67.5t43.5 34.5q19 8 43 8q28 0 72.5 -18t44.5 -41q0 -6 -4 -10.5t-7 -5.5t-5 -1q-11 0 -35.5 10.5t-38.5 10.5q-11 0 -20 -6q-15 -10 -47 -57.5t-71.5 -118t-73 -132t-69.5 -129.5t-43 -81q-29 -51 -68.5 -116t-100.5 -157 t-118.5 -152.5t-92.5 -60.5q-84 0 -109 35t-25 121q0 175 39 503t45 412q-32 -43 -93.5 -122.5t-74.5 -96.5q-7 -9 -31 -44t-44.5 -62.5t-46.5 -59t-51 -50t-44 -19.5h-10q-16 -2 -36.5 9.5t-20.5 29.5z" />
<glyph unicode="W" horiz-adv-x="1251" d="M-10 543q0 41 26 59q28 46 58 93t88 127.5t108 139t107.5 103.5t97.5 45q27 0 45 -23.5t25.5 -60t10.5 -65t3 -54.5q0 -100 -35 -352q-8 -64 -25.5 -192t-25.5 -191q29 57 82.5 161t97.5 189t84 160q26 56 111 187.5t115 131.5q39 0 58 -26.5t19 -65.5q0 -66 -17 -197 t-19 -159q-7 -71 -19.5 -214.5t-19.5 -215.5q154 244 283 508.5t190 494.5q-14 2 -24.5 13t-10.5 28q0 28 22.5 51t51.5 23t43 -19t14 -46q0 -147 -223 -582q-3 -5 -30 -59t-51 -100t-60 -116t-66 -125t-60 -107.5t-51 -83.5t-30 -34q-12 -4 -17 -4q-33 0 -56.5 30.5 t-23.5 63.5q0 37 19 172q41 261 47 351q1 31 4 87t5 102t3 87q-29 -47 -60.5 -101.5t-68.5 -121t-59 -103.5q-41 -69 -101 -180q-5 -9 -26.5 -53.5t-44 -89t-48.5 -91.5t-47.5 -77.5t-33.5 -32.5q-24 -4 -39 -4q-58 0 -58 41q0 8 2 12q5 29 25.5 136.5t32 177t18.5 139.5 q4 35 17 128.5t19.5 160.5t6.5 129q0 88 -20 88q-33 0 -159 -143.5t-126 -176.5q0 -63 -25 -97.5t-83 -70.5q-33 -22 -50 -22q-26 0 -26 37z" />
<glyph unicode="X" horiz-adv-x="1105" d="M-10 -131q0 12 2 18q10 38 215 289t323 387q-57 531 -86 543h-2q-45 0 -116.5 -55t-137.5 -123h2q9 0 9 -10q0 -17 -37.5 -40.5t-52.5 -23.5q-37 0 -37 31q0 45 126 159t177 132q40 14 67 14q72 0 103 -66q14 -28 37 -241q5 -43 13 -127t11 -109q90 98 279 287 q12 12 45 46.5t57 57.5t49 43q16 15 47.5 29t53.5 14q20 0 20 -16q0 -13 -41 -47q-20 -16 -39 -33.5t-42 -41t-34.5 -35.5t-39.5 -42.5t-35 -38.5q-196 -209 -308 -338q66 -502 119 -516q2 -2 8 -2q70 0 239 134t243 221l10 12q32 37 51 37q8 0 12.5 -6.5t4.5 -12.5 q0 -36 -103 -140t-217 -197t-154 -111q-48 -23 -92 -23q-77 0 -112 60q-41 74 -82 458q-234 -268 -420 -491h4q23 0 23 -18q0 -13 -42 -60t-63 -47q-13 0 -20 0.5t-17 4t-15 12t-5 22.5z" />
<glyph unicode="Y" horiz-adv-x="1325" d="M-10 690q0 11 7.5 20t20.5 9q11 0 23 -7.5t23 -17t33.5 -17t52.5 -7.5q122 0 300.5 95.5t294.5 199.5q2 2 15 14.5t22 21.5q5 6 39 44.5t60.5 67t31.5 30.5q8 4 25 4q20 0 40.5 -10t20.5 -29q0 -12 -75 -141q-8 -13 -40 -67t-52.5 -89t-57 -98t-61.5 -109.5t-58 -107.5 t-54.5 -108t-42 -94t-30.5 -83t-10 -59q0 -13 4 -18t15 -5q33 0 131 51q109 58 218.5 157.5t204 221.5t168.5 235t144 238q2 30 15.5 55t39.5 25q24 0 51 -15.5t27 -41.5q0 -2 -1 -6.5t-1 -6.5q-12 -34 -35 -137q-33 -139 -69 -248q-14 -41 -42.5 -135t-46.5 -145 q-29 -83 -57.5 -155.5t-70.5 -160.5t-86.5 -160t-104 -144.5t-124 -123.5t-145 -87t-167.5 -46q-18 -2 -58 -2q-55 0 -106.5 11t-98 34t-81.5 57t-55.5 83t-20.5 108q0 19 8.5 52.5t24.5 33.5q28 0 37 -78q18 -102 99.5 -162.5t188.5 -60.5q191 0 394 203q48 48 118 158 q238 367 318 858q-39 -60 -78 -116t-98.5 -135t-116.5 -145.5t-127 -135.5t-135 -117t-135.5 -78.5t-133.5 -30.5q-44 0 -73 21t-29 65q0 194 317 745q-354 -270 -598 -270q-30 0 -63 7.5t-63.5 30t-30.5 54.5z" />
<glyph unicode="Z" horiz-adv-x="1005" d="M-10 0q0 15 6 27q21 55 455 497q158 161 526 529q-53 -4 -201.5 -23.5t-230.5 -19.5q-19 0 -48.5 3.5t-65.5 11.5t-61.5 23.5t-25.5 36.5q0 14 15 21.5t30 7.5q34 0 66 -18q44 -9 92 -9q33 0 96 5t90 6q41 1 89.5 7t79 11t91 16l82.5 15q18 6 35 6q16 0 29.5 -8t13.5 -25 q0 -13 -10 -30q-12 -21 -37 -49.5t-46.5 -48.5t-56.5 -51t-45 -40q-209 -197 -307 -303q-12 -13 -66 -67.5t-81 -84.5q-164 -173 -346 -380q40 -3 166 -3q27 0 96 -1t108 -1t104 3.5t110 10.5t97 21.5t93 36.5q3 1 17.5 8.5t24.5 11t19 3.5q7 0 15 -5.5t8 -15.5 q0 -21 -47 -55q-80 -51 -241 -73.5t-296 -22.5h-72h-52h-31q-22 0 -69 -2t-82.5 -7.5t-70.5 -13.5q-3 0 -10.5 -1t-11.5 -1q-43 0 -43 41z" />
<glyph unicode="[" horiz-adv-x="679" d="M31 -492q0 16 6.5 38t17 49t13.5 38q156 467 215 621q66 176 154.5 445.5t88.5 336.5q0 42 2 49q9 31 47 31q25 0 76 -12t76 -12q12 0 32.5 -4.5t28.5 -4.5q17 0 51.5 13.5t53.5 13.5q18 0 33.5 -9t15.5 -26q0 -42 -86 -57q-41 -6 -98 -6t-113 6q-126 -336 -185 -495 t-155 -435t-166 -502q47 6 94 6q54 0 152 -14t98 -41q0 -13 -24 -21t-39 -8q-11 0 -35 2.5t-37 2.5q-32 0 -66 -5.5t-80.5 -16.5t-64.5 -15q-34 -6 -65 -6q-41 0 -41 38z" />
<glyph unicode="\" horiz-adv-x="589" d="M31 1104q0 19 12.5 31t32.5 12q17 0 31.5 -8.5t23 -18t16.5 -29.5t10.5 -29t8.5 -30q11 -48 18 -63q35 -102 125 -314q6 -14 38 -86.5t65 -147.5t68 -156t57 -135.5t22 -61.5q0 -33 -39 -33q-43 0 -59 37l-8 16q-14 34 -39.5 106.5t-40.5 108.5q-68 173 -154 373 q-116 263 -131 297q-4 10 -20.5 38.5t-26.5 52t-10 40.5z" />
<glyph unicode="]" horiz-adv-x="598" d="M-362 -487q0 18 19 25t38 7q5 0 16 -1t17 -1q20 -3 68.5 -10.5t84.5 -11.5t70 -6q69 196 228 712.5t267 792.5q-1 0 -4 -1t-5.5 -1.5t-6.5 0.5q-12 3 -36.5 8t-37.5 8q-70 17 -118 17q-3 0 -15 -0.5t-21.5 -0.5t-23 1t-23.5 3t-20 6t-15 11t-5 16q0 11 20 20.5t47 10.5 q33 2 78 2q73 0 158 -20q13 -2 47.5 -13.5t54.5 -11.5q24 0 37.5 -13.5t13.5 -37.5q0 -34 -36 -92q-15 -26 -29.5 -59t-23 -57.5t-22 -64t-20.5 -59.5q-26 -76 -73.5 -227t-73.5 -227q-105 -299 -129 -369q-98 -300 -98 -346q0 -113 -91 -113q-14 0 -38 8q-27 9 -61 16.5 t-52.5 10.5t-66 10t-56.5 8q-22 4 -42.5 17.5t-20.5 32.5z" />
<glyph unicode="^" horiz-adv-x="729" d="M31 555q0 19 12.5 33t42 31t31.5 18q25 14 98 74q9 8 64.5 56t82.5 77q31 69 80 69q32 0 49 -30t19 -62q57 -128 160 -231q28 -28 28 -51q0 -29 -39 -29q-29 0 -65 16q-53 25 -184 238q-68 -63 -102 -93.5t-95 -72t-121 -66.5q-16 -8 -31 -8q-12 0 -21 9t-9 22z" />
<glyph unicode="_" horiz-adv-x="548" d="M-33 -45h654v-55h-654v55z" />
<glyph unicode="`" horiz-adv-x="251" d="M31 1114q0 19 22 19q31 0 99.5 -45.5t68.5 -77.5q0 -29 -35 -29q-8 0 -20 6q-8 15 -10 27q-10 8 -66 47q-59 41 -59 53z" />
<glyph unicode="a" horiz-adv-x="673" d="M-10 94q0 44 52 144t89 149q123 172 240 172q35 0 59.5 -15.5t24.5 -51.5q0 -3 -4 -23q4 2 12 2q19 0 35 -8.5t16 -26.5q0 -11 -20 -61q-70 -186 -70 -250q0 -37 35 -37t85.5 36t99.5 87t94 102t79 87t45 36q7 0 12 -5t5 -11q0 -11 -9 -29q-15 -42 -73 -115 q-32 -42 -67.5 -81.5t-85 -87t-102 -76.5t-96.5 -29q-57 0 -80.5 40.5t-23.5 98.5q0 47 12 90q-221 -221 -293 -221q-26 0 -48.5 30t-22.5 54zM76 109q38 3 107.5 62t119.5 114q27 29 68 100q-13 22 -13 33q0 9 3.5 27.5t3.5 27.5q0 8 -7 8q-32 0 -91.5 -59t-92.5 -107 q-24 -33 -59.5 -104t-38.5 -102z" />
<glyph unicode="b" horiz-adv-x="655" d="M123 213q0 143 39 293q44 165 138 358t196 281q11 8 22 8q28 0 49 -21t21 -47q0 -24 -21 -94q-78 -259 -282 -526q-12 -14 -34 -50t-38 -53q-6 -31 -6 -122v-16v-25t0.5 -30t2 -34.5t3.5 -33.5t5.5 -32t8 -25t11.5 -18t16 -6q27 0 66 42.5t62.5 80.5t45.5 78 q-26 32 -41.5 77t-15.5 85q0 50 26.5 88.5t79.5 38.5q90 0 90 -117q0 -26 -5 -48t-9 -32t-18 -36t-19 -37q44 -23 86 -23q44 0 83.5 27.5t62.5 60.5t43.5 60.5t31.5 27.5q17 0 17 -20q0 -18 -11 -33q-33 -70 -102.5 -126t-140.5 -56q-48 0 -92 18q-25 -41 -61.5 -89t-86 -95 t-80.5 -47q-45 0 -75.5 27.5t-44 73.5t-18.5 85t-5 82zM268 571q92 139 168 281t76 209q0 1 1.5 3.5t2.5 4.5v1v1q-21 0 -103.5 -170t-109.5 -239q-26 -62 -35 -91zM446 379q0 -40 19 -80q37 60 37 92q0 18 -6 36.5t-19 18.5q-31 0 -31 -67z" />
<glyph unicode="c" horiz-adv-x="495" d="M-18 109q0 23 6 47q20 82 124 216t181 183q26 16 57 16q28 0 52 -17.5t24 -47.5q0 -29 -21 -101.5t-40 -91.5q-19 -24 -46 -24q-11 0 -18.5 7t-7.5 19q0 10 24 74q25 60 25 82q0 10 -6 10q-30 0 -84.5 -62t-89.5 -114q-31 -46 -59.5 -107t-28.5 -98q0 -22 18 -22 q71 0 150.5 29t152.5 77.5t135 101t115 109.5l8 8q20 25 37 25q15 0 15 -14q0 -10 -7 -21q-26 -56 -97 -125.5t-156.5 -128t-178 -99t-155.5 -40.5q-56 0 -92.5 26.5t-36.5 82.5z" />
<glyph unicode="d" horiz-adv-x="700" d="M-35 16q0 62 50 168t117.5 198t117.5 126q56 35 98 35q57 0 85.5 -40t31.5 -97q13 32 40 94t36 86q23 61 63 135q50 91 132 220.5t120 148.5q20 10 41 10q32 0 53 -24.5t21 -55.5q0 -69 -156.5 -294.5t-298.5 -389.5q-65 -172 -65 -242q0 -15 5 -18.5t25 -3.5 q46 0 102 35.5t109 93.5t86 100t64 86q25 35 43 35q8 0 13 -7.5t5 -15.5q0 -9 -12 -39q-27 -50 -73 -110t-103.5 -118.5t-124 -98t-121.5 -39.5q-100 0 -100 88q0 55 24 131q-249 -222 -309 -238q-27 -10 -51 -10q-26 0 -47 11.5t-21 39.5zM45 43q23 0 66 31q131 81 284 241 q-8 8 -8 25q0 8 2 25t2 26q0 25 -12 44.5t-31 19.5q-45 0 -117 -78q-37 -35 -111.5 -165t-74.5 -169zM598 545q27 32 82 108q47 65 129 199t82 166q8 0 8 -6q-24 0 -100 -110.5t-101 -158.5q-43 -70 -100 -198z" />
<glyph unicode="e" horiz-adv-x="438" d="M-35 57q0 38 30.5 113.5t74 150.5t99.5 131t101 56q39 0 67 -34t28 -73q0 -41 -27.5 -80t-65.5 -63q-30 -19 -87 -45.5t-97 -36.5q-41 -87 -41 -123q0 -10 2.5 -12t11.5 -2q122 10 281.5 119t241.5 223q16 22 28 22q8 0 12.5 -7t4.5 -13q0 -23 -17 -49 q-81 -121 -231.5 -228t-288.5 -137q-8 -2 -26 -2q-38 0 -69.5 25.5t-31.5 64.5zM139 274q60 21 94 52q58 58 58 92q0 8 -6 8q-26 0 -65.5 -42.5t-80.5 -109.5z" />
<glyph unicode="f" horiz-adv-x="473" d="M-188 -461q0 97 82.5 314.5t173 406t151.5 291.5q17 29 50 78.5t82 116.5t97 124.5t95 97.5t75 40q21 0 31 -18.5t10 -41.5q0 -81 -67 -193t-141 -196q-115 -128 -254 -227q29 -58 56 -77t93 -22h10q46 0 88 15q47 18 79 43.5t57 51.5t42.5 44.5t26.5 18.5q7 0 13 -3.5 t6 -9.5q0 -2 -6 -20q-43 -79 -134 -143q-90 -64 -173 -64h-3q-96 0 -147 43q0 -7 1 -20.5t1 -20.5q0 -99 -19.5 -212.5t-54.5 -203.5q-14 -34 -27.5 -63.5t-39.5 -76t-51.5 -79t-61 -56.5t-70.5 -24q-41 0 -56 23t-15 63zM-119 -444q0 -33 17 -33q36 0 87 89t86 183.5 t42 136.5q22 116 22 261v22q-254 -521 -254 -659zM281 494q27 23 75 71q45 43 127 162.5t90 169.5q-34 -22 -124 -151t-168 -252z" />
<glyph unicode="g" horiz-adv-x="593" d="M-137 -535q0 117 73 250.5t168 210.5q83 69 195 125l84 201q-165 -211 -297 -244h-10q-30 0 -54 26.5t-24 55.5q0 55 67.5 171.5t159 214t148.5 97.5q42 0 64 -28t24 -68q17 10 33 10q26 0 26 -30q0 -76 -104 -353q33 18 55 33q155 88 217 154q11 13 30.5 42t31.5 42l6 8 q20 20 32 20q17 0 17 -18q0 -17 -12 -37q-49 -95 -167.5 -185t-246.5 -153q-74 -182 -113 -258q-24 -48 -56 -100.5t-80 -118t-103.5 -107.5t-104.5 -42q-20 0 -32.5 7t-18 20t-7 25t-1.5 29zM-72 -524q0 -13 1.5 -16t9.5 -3q5 0 30 17q60 41 125.5 137t98.5 176 q42 112 63 158q-86 -47 -143 -107q-58 -61 -121.5 -178t-63.5 -184zM86 102q28 5 83 47t91 76q15 15 28.5 32t28.5 37.5t24 33.5t26 39t24 36q-12 9 -12 27q0 2 0.5 10t1 14.5t0 13.5t-3.5 11t-8 4q-36 0 -104.5 -76.5t-122.5 -169t-56 -135.5z" />
<glyph unicode="h" horiz-adv-x="659" d="M-10 45q0 33 124 294.5t179 365.5q3 6 24 46.5t37 69t42.5 75t49.5 79t48.5 65t49.5 49.5t44 17q29 0 44 -20.5t15 -47.5q0 -48 -52 -144.5t-127.5 -202t-139.5 -187t-109 -133.5l-45 -95l-12 -24q201 246 293 246q25 0 45 -13.5t20 -40.5q0 -11 -11 -39t-26.5 -61 t-17.5 -39q-53 -111 -53 -186q0 -60 41 -60q33 0 83.5 37t102 94t89 102.5t65.5 84.5l6 8q13 18 28 18q17 0 17 -20q0 -15 -13 -37q-24 -39 -66 -93.5t-96 -113.5t-113 -100t-101 -41q-61 0 -89 39q-26 36 -26 108v11q3 87 80 254q-73 -59 -147 -136.5t-119 -148.5 q-3 -5 -17 -30t-24.5 -42t-26 -34t-27.5 -19q-6 -2 -22 -2q-47 0 -47 47zM348 635q236 334 236 399q0 1 1 3q2 3 1 3q-20 0 -104 -150.5t-134 -254.5z" />
<glyph unicode="i" horiz-adv-x="344" d="M23 98q0 44 18 103q11 40 64 155t73 123q16 4 25 4q16 0 32.5 -10t16.5 -27q0 -20 -72 -159q-67 -138 -67 -181q0 -11 3.5 -13.5t16.5 -2.5q119 0 359 303q31 31 45 31q9 0 14.5 -7.5t5.5 -15.5q0 -10 -8 -26q-6 -12 -12 -21q-69 -109 -160 -198t-195 -133 q-43 -17 -76 -17q-42 0 -62.5 25t-20.5 67zM240 569q0 41 27.5 93.5t68.5 52.5q20 0 41.5 -12.5t21.5 -32.5q0 -17 -26 -43q-5 -5 -16.5 -15.5t-16.5 -15.5l-12 -16q-38 -43 -62 -43q-26 0 -26 32z" />
<glyph unicode="j" horiz-adv-x="415" d="M-430 -502q0 47 26.5 101t69 103t82 86.5t78.5 68.5q117 93 301 223q71 167 98 317q-121 -153 -137 -153q-8 0 -13 8t-5 16q0 13 3.5 26t12.5 27.5t14.5 22.5t19 25t15.5 20l98 129v6q0 14 11.5 28.5t27.5 14.5q21 0 34 -23t13 -46q0 -17 -2 -25q-6 -27 -19.5 -96.5 t-25.5 -118.5t-28 -94q16 11 76 54t86 62t70 52.5t79 62.5l8 6q15 15 31 15q20 0 20 -23q0 -21 -32 -53q-38 -35 -174 -139q-146 -111 -213 -158q-34 -76 -75 -153.5t-97.5 -164.5t-114 -152.5t-124.5 -109t-128 -43.5q-86 0 -86 78zM-367 -487q0 -19 37 -19q40 0 86 31.5 t92 87.5t72.5 93.5t59.5 88.5q49 75 108 197l14 -15l-28 -18q-71 -49 -127 -94q-47 -38 -113 -98.5t-133.5 -139.5t-67.5 -114zM319 645q0 35 27 76t66 41q16 0 31.5 -8t15.5 -23q0 -14 -27 -37q-1 -1 -13.5 -9.5t-17.5 -14.5q-1 -1 -13 -18t-22 -25.5t-20 -8.5q-11 0 -19 7 t-8 20z" />
<glyph unicode="k" horiz-adv-x="643" d="M0 45q0 30 101.5 257t221 464.5t162.5 288.5q46 53 88 53q29 0 45.5 -21.5t16.5 -48.5q0 -10 -4 -26q-35 -139 -129 -269q-155 -210 -273 -342q-2 -1 -67 -143q164 199 309 254q43 16 68 16q45 0 45 -26q0 -14 -23 -37l-8 -6q-43 -36 -128 -92.5t-108 -73.5 q-10 -29 -10 -74q0 -36 10 -71.5t35 -63t60 -27.5q67 0 189 113t175 197q34 47 53 47t19 -21q0 -16 -23 -53q-29 -48 -75 -104.5t-104 -114.5t-123.5 -96.5t-119.5 -38.5q-44 0 -77 24.5t-50 63t-25.5 78t-8.5 77.5q-22 -21 -40 -45t-42.5 -63.5t-32.5 -50.5 q-46 -61 -66 -66q-8 -2 -24 -2q-37 0 -37 43zM340 639q229 316 229 399q0 1 1 3q1 3 1 4t-2 2q-25 0 -229 -408z" />
<glyph unicode="l" horiz-adv-x="382" d="M72 152q0 94 35 230.5t79 248.5q17 42 49.5 107t78.5 143.5t98 133t92 54.5q23 0 33 -21t10 -47q0 -99 -66 -241t-151.5 -261t-167.5 -204q-19 -81 -19 -135q0 -86 45 -86q98 0 353 329l4 5q12 12 22 12t15.5 -8t5.5 -17q0 -13 -8 -33q-18 -36 -66.5 -96t-107 -120.5 t-121 -104t-101.5 -43.5q-43 0 -69.5 26t-34.5 58t-8 70zM207 457q40 50 117 172q45 74 101 194.5t56 169.5q0 2 -2 2l6 -4q-1 1 -2 -1q-1 -4 -2 -5q-45 -48 -105 -152t-95 -184q-46 -102 -74 -192z" />
<glyph unicode="m" horiz-adv-x="970" d="M-39 37q0 10 31.5 78.5t81.5 172.5l51 103q5 9 11 23l5 14q9 53 49 53q21 0 35.5 -14t14.5 -35q0 -13 -24 -61t-65 -123t-42 -76l-9 -14q23 24 69 70.5t69 70.5q170 174 184 174q21 0 48.5 -15.5t27.5 -35.5q0 -5 -12 -46t-24 -80l-13 -38q-4 -16 -12.5 -42.5 t-10.5 -35.5q82 85 143 144q161 165 185 172q6 2 16 2q22 0 36.5 -11.5t14.5 -33.5q0 -13 -5 -28.5t-14 -36t-11 -26.5q-1 -2 -13.5 -35t-16.5 -44.5t-14.5 -42t-15 -48t-8.5 -40t-4 -39.5q0 -43 26 -43q40 0 140 82t153 139q37 37 66 82l6 6q12 20 31 20q10 0 15 -7.5 t5 -16.5q0 -17 -22 -56q-32 -49 -107 -124.5t-166.5 -140t-144.5 -64.5q-30 0 -50.5 24t-27 51.5t-6.5 55.5q0 86 49 223q-281 -281 -299 -287q-16 -4 -25 -4q-18 0 -36.5 9.5t-18.5 27.5q0 20 43 143q15 50 35 109q-37 -34 -74.5 -71.5t-89 -92t-71.5 -74.5 q-23 -25 -47.5 -49.5t-40 -38.5t-17.5 -14h-8h-4q-18 -2 -45 8t-27 27z" />
<glyph unicode="n" horiz-adv-x="630" d="M-25 55q0 12 41.5 100t90 188t57.5 124q11 29 35 29q21 0 32 -18.5t11 -37.5q0 -50 -109 -245q22 25 68 75t69 76q6 6 46 53t73 82.5t43 38.5q0 2 4 2h2q24 0 55 -17t31 -40q0 -12 -2 -16q-7 -16 -31 -73t-37 -89.5t-25.5 -80.5t-12.5 -83q0 -45 28 -45q39 0 88 34.5 t92.5 84t82 99t67.5 84t39 34.5q7 0 11.5 -7t4.5 -14q0 -25 -26 -67q-24 -39 -66.5 -91t-95.5 -107.5t-112 -93.5t-103 -38q-50 0 -73 41.5t-23 89.5q0 87 63 250q-81 -101 -192 -226t-144 -137q-8 -4 -26 -4q-23 0 -39.5 10.5t-16.5 34.5z" />
<glyph unicode="o" horiz-adv-x="514" d="M45 74q0 81 17.5 154t78.5 180q6 13 22 28t32 15q22 0 22 -29q0 -9 -8.5 -37.5t-20 -63.5t-12.5 -38q-43 -123 -43 -195q0 -35 27 -35q20 0 46.5 17t39.5 29t37 36q17 17 28 39q-43 15 -68.5 51t-25.5 86t32 107t83 57t79.5 -43t28.5 -92q0 -54 -18 -109q48 3 109 45 t104.5 82.5t48.5 40.5q14 0 14 -18q0 -13 -6 -25q-33 -71 -124 -128.5t-173 -65.5q-32 -60 -73 -101q-100 -100 -179 -100q-46 0 -72 34t-26 79zM291 307q0 -49 49 -69q14 41 14 90q0 82 -24 82q-19 0 -29 -37.5t-10 -65.5z" />
<glyph unicode="p" horiz-adv-x="579" d="M-258 -498q0 58 144 365.5t202 380.5q10 14 24.5 51t30.5 85.5t21 61.5q17 49 20 54q13 16 29 16q18 0 27.5 -11.5t9.5 -27.5q0 -15 -17 -57l-4 -8q162 145 240 145q44 0 66 -30.5t22 -73.5q0 -79 -82 -222q151 42 266 189q18 24 31 24q7 0 11.5 -6.5t4.5 -13.5 q0 -20 -14 -43q-26 -49 -65 -87.5t-89 -66t-93.5 -45t-102.5 -35.5q-118 -176 -252 -176q-31 0 -58.5 20t-27.5 54q0 24 17 45.5t39.5 35.5t59 28t61.5 20.5t62 15.5t46 11q33 61 66.5 137.5t33.5 110.5q0 24 -18 24q-9 0 -33 -8q-83 -32 -169 -125t-126 -184 q-53 -122 -186 -408q-8 -17 -24 -52t-25.5 -55.5t-25 -49.5t-30.5 -52q-2 -3 -9 -13t-12.5 -16t-13 -14t-15 -12t-15.5 -4q-12 0 -21 6q-6 9 -6 16zM160 47q0 -8 18 -8q61 0 129 72q-26 -8 -69 -25q-78 -28 -78 -39z" />
<glyph unicode="q" horiz-adv-x="606" d="M-78 -539q0 66 30.5 154.5t69 163.5t103.5 175.5t103.5 154t99.5 135.5q-176 -176 -240 -176q-37 0 -61.5 20t-24.5 57q0 59 75.5 171t177.5 203t167 91q75 0 94 -84q18 11 33 11q17 0 27 -11.5t10 -27.5q0 -21 -236 -361q30 -10 60 -10q36 0 79.5 12.5t73.5 32.5 q112 72 207 244q12 20 29 20q22 0 22 -28q0 -3 -1 -9.5t-1 -9.5q-18 -61 -99.5 -159.5t-137.5 -131.5q-35 -20 -85 -34.5t-87 -14.5q-33 0 -54 8q-13 -52 -30.5 -104.5t-44 -123t-37.5 -101.5q-20 -54 -49 -115q-21 -38 -53.5 -85.5t-81.5 -99t-80 -51.5q-30 0 -44 26 t-14 58zM-8 -539q27 0 89.5 110.5t90.5 174.5q59 133 102 285q-51 -73 -57 -82q-66 -95 -144.5 -250.5t-78.5 -230.5q0 -1 -1 -3zM86 152q0 -5 6 -5q50 0 309 271q8 8 25 26.5t25 26.5q-2 4 -3 7.5t-2 7.5t-2 6v22q-3 16 -18 16q-41 0 -124 -77t-149.5 -169t-66.5 -132z" />
<glyph unicode="r" horiz-adv-x="520" d="M111 422q0 25 15.5 45t41.5 20q16 0 27.5 -9t11.5 -27q0 -15 -6 -27q35 2 82.5 17t72.5 36q37 31 52 31q21 0 40 -9.5t19 -29.5q0 -15 -27.5 -54.5t-63 -84.5t-44.5 -62q-80 -136 -80 -178q0 -12 8.5 -19.5t22.5 -7.5q48 0 149 68q43 30 81.5 69t88.5 101t68 82l4 4 q9 12 24 12q19 0 19 -22q0 -11 -6 -23q-39 -72 -144.5 -182t-171.5 -139q-80 -33 -135 -33q-34 0 -66 17.5t-32 52.5q0 81 145 309q-8 -2 -27.5 -8t-31.5 -9q-79 -18 -82 -18q-24 0 -39.5 28.5t-15.5 49.5z" />
<glyph unicode="s" horiz-adv-x="440" d="M12 12q0 5 6 23q5 8 27.5 17t55.5 17.5t62.5 15t61 13t39.5 8.5q19 38 19 58q0 100 -150 192q-20 32 -20 54q0 26 21 40.5t44 14.5q41 0 41 -39q0 -3 -6 -33q13 -17 57 -60.5t64 -79t20 -81.5q0 -11 -4 -39q111 47 180 160q7 10 20.5 32.5t20.5 32.5q8 12 25.5 28.5 t28.5 16.5q16 0 16 -18q0 -8 -4 -20q-2 -3 -5 -9.5t-5 -9.5q-59 -114 -130.5 -184t-181.5 -105q-68 -96 -204 -96q-32 0 -65.5 11.5t-33.5 39.5zM123 18h8q22 0 51 11l-26 -4q-5 -1 -16.5 -3.5t-16.5 -3.5z" />
<glyph unicode="t" horiz-adv-x="409" d="M-41 762q0 13 10.5 19.5t22.5 6.5q22 0 67 -5t68 -5q96 0 203 17l94 186q5 11 17 20t24 9q21 0 33 -16t12 -36q0 -30 -45 -139q31 7 127 29.5t149 32.5q98 16 148 16q37 0 37 -29q0 -32 -49 -32q-39 0 -80 -8t-95 -22.5t-79 -19.5q-87 -22 -195 -45q-52 -109 -139 -249 q-50 -79 -96 -194.5t-46 -188.5q0 -21 6 -29t23 -8q36 0 90.5 35.5t111 91t98.5 101.5t75 87l4 6q13 17 29 17q8 0 13 -7.5t5 -15.5q0 -19 -12 -35q-28 -47 -75 -105t-105.5 -115.5t-124.5 -96.5t-119 -39q-98 0 -98 115q0 46 12.5 102.5t25.5 99.5t44 112.5t45 99 t52.5 104.5t43.5 86q-116 -17 -205 -17q-40 0 -83.5 15.5t-43.5 48.5z" />
<glyph unicode="u" horiz-adv-x="608" d="M29 90q0 50 12 103.5t39.5 115t44.5 96.5t53 101q10 18 35 18q19 0 31 -10t12 -29q0 -9 -16 -45t-37 -78t-23 -47q-74 -156 -74 -202q0 -13 7 -13q23 0 73 45t108 113t94.5 112.5t62.5 78.5q2 19 14.5 34t32.5 15q18 0 36.5 -10.5t18.5 -28.5q0 -10 -15.5 -46 t-36.5 -79.5t-22 -46.5q-69 -158 -69 -205q0 -1 -1 -4q1 -5 3 -6q45 0 108 52.5t113 115.5t94 115.5t57 52.5q9 0 14 -6.5t5 -12.5q0 -15 -8 -27q-2 -5 -8 -11.5t-7 -8.5q-3 -4 -25 -35.5t-30.5 -42.5t-32 -42.5t-36.5 -46.5t-37.5 -43t-41 -42.5t-40 -34t-42.5 -29t-41 -17 t-42 -7.5q-43 0 -62.5 19.5t-19.5 62.5q0 58 30 133q-169 -205 -282 -205q-49 0 -49 78z" />
<glyph unicode="v" horiz-adv-x="438" d="M33 43q0 16 3 36t11 47.5t12 41.5t15 46.5t12 35.5q13 37 24.5 107.5t18.5 97.5q15 39 45 39q22 0 31.5 -23.5t9.5 -48.5q0 -51 -39 -195q-9 -31 -26 -87.5t-23 -76.5q77 52 183 179.5t106 187.5q0 14 -7.5 39t-7.5 39q0 15 8 28t25 13q34 0 50 -29q15 -26 14 -54v-7 q-2 -37 -11.5 -68.5t-34 -68t-35 -50.5t-48.5 -59q-2 -2 -17 -20.5t-23.5 -28.5t-26.5 -30.5t-31 -34t-31 -32.5t-32 -31.5t-29 -25t-27.5 -19.5t-22.5 -9t-29 -2q-67 0 -67 63z" />
<glyph unicode="w" horiz-adv-x="804" d="M51 88q0 51 19 133q15 67 67 175t96 108q20 0 33 -20.5t13 -37.5q0 -15 -23 -53q-4 -7 -20.5 -33t-21.5 -35t-18.5 -33t-19 -36.5t-14.5 -34.5t-13 -38.5t-7 -37.5t-3 -41q0 -22 6 -22q31 0 149 122.5t159 178.5q5 6 21 28t26 33.5t27.5 23t33.5 11.5q49 0 49 -51 q0 -24 -26 -41q-90 -134 -90 -256q0 -21 2 -31q47 11 106 69.5t98 117.5q62 94 62 209q0 9 -4 27.5t-4 27.5q0 20 16.5 30.5t34.5 10.5q30 0 42.5 -31t12.5 -67q0 -83 -53.5 -186t-134.5 -184.5t-158 -109.5q-12 -4 -25 -4q-48 0 -81 51q-9 9 -9 45q0 50 15 123 q-237 -249 -269 -249q-44 0 -69 33t-25 75z" />
<glyph unicode="x" horiz-adv-x="591" d="M-66 -186q0 66 250 370q-61 135 -61 240q0 32 14 62t43 30q10 0 17.5 -3.5t12 -10.5t7 -13t3.5 -17.5t1.5 -18t0 -18.5t-0.5 -15q0 -76 29 -158q42 50 90.5 106t79.5 91.5t39 44.5q47 53 73 53q17 0 25 -13.5t8 -29.5t-6.5 -30.5t-12 -20.5t-20.5 -21 q-121 -109 -243 -254q59 -133 123 -133q50 0 114.5 61t114 133.5t91.5 133.5t52 61q7 0 11 -6t4 -12q0 -26 -23 -72q-25 -55 -58.5 -111.5t-82 -121t-107.5 -105.5t-116 -41q-98 0 -185 140q-7 -8 -15 -18t-16.5 -22t-13.5 -18q-14 -18 -41.5 -53.5t-49 -64t-38.5 -54.5 q2 2 6 2q25 0 25 -26q0 -27 -24 -62t-54 -35q-24 0 -45 12t-21 38z" />
<glyph unicode="y" horiz-adv-x="651" d="M2 -424q0 100 166 315q82 101 217 207q28 101 45 197q-34 -46 -70 -87.5t-84.5 -90t-97.5 -78t-88 -29.5q-28 0 -39.5 24t-11.5 54q0 48 11 98t36 108.5t40.5 91t50.5 97.5q7 14 11 21q11 20 35 20q18 0 30.5 -11t12.5 -30q0 -16 -76 -168q-73 -158 -73 -204q0 -13 8 -13 q59 0 336 348q3 21 16 35.5t35 14.5q51 0 51 -47q0 -23 -74 -275q13 9 63 46t71 52.5t60 45.5t68.5 55.5t57.5 52.5q12 12 25 12q16 0 16 -16q0 -24 -86 -100.5t-162 -135t-141 -104.5q-64 -209 -104 -301q-122 -281 -271 -281q-35 0 -59.5 20t-24.5 56zM70 -418 q0 -20 22 -20q36 0 78.5 51.5t80.5 131.5t61.5 138.5t41.5 110.5q-78 -72 -151 -168q-43 -54 -88 -129t-45 -115z" />
<glyph unicode="z" horiz-adv-x="452" d="M-109 -416q0 100 60.5 201t146.5 186q65 63 201 158q2 12 5 39t5 41q-145 -84 -166 -84q-12 0 -20 7.5t-8 19.5q0 19 30.5 91.5t65.5 143.5q-35 -45 -45 -55q-7 -7 -18.5 -10.5t-19 4t-1.5 28.5q6 19 82 116t94 97q17 0 38 -11.5t21 -31.5q0 -14 -40 -110t-72 -166l35 22 q60 35 71 35q15 0 26 -10t11 -25q0 -10 -4 -22q-12 -39 -16 -64q140 108 237 224q16 22 31 22q6 0 10 -5.5t4 -10.5q0 -21 -28 -66q-61 -89 -123 -143.5t-146 -108.5q-24 -172 -84 -348q-12 -39 -26.5 -75.5t-40 -81.5t-53.5 -77t-68 -54.5t-84 -22.5q-59 0 -85 43.5 t-26 103.5zM-47 -430q0 -72 57 -72q16 0 31.5 6t29.5 18t26.5 24.5t25.5 33t22 35.5t20.5 38.5t17 36t15.5 35.5t13 29q45 107 74 293q-74 -50 -133 -104q-75 -68 -137 -176.5t-62 -196.5z" />
<glyph unicode="{" horiz-adv-x="532" d="M31 -471q0 50 19.5 102t47 98.5t55 93.5t47 104.5t19.5 115.5q0 51 -10 80q-2 7 -6.5 11t-13 6t-13.5 3t-17 1.5t-16 0.5q-71 0 -71 35q0 13 12 29q-8 8 -8 20q0 51 94 45q63 26 144 101t81 129q0 23 -17.5 48t-42.5 49.5t-50 53.5t-42.5 71t-17.5 91q0 101 57 181 t145 120.5t187 40.5q15 0 36.5 -4t44.5 -12t39 -22.5t16 -33.5q0 -11 -10 -16.5t-21 -5.5q-22 0 -61.5 11t-59.5 11q-110 0 -194.5 -79t-84.5 -187q0 -49 25.5 -92t55.5 -70.5t55.5 -67.5t25.5 -83q0 -59 -48.5 -122.5t-110.5 -105.5t-115 -59q46 -17 73 -70t27 -104 q0 -68 -24 -134.5t-75.5 -160t-64.5 -121.5q-28 -61 -28 -102q0 -32 24 -53.5t63 -30t71 -11t65 -1.5h37q14 0 26 -2q12 -1 21.5 -6.5t9.5 -10.5q0 -13 -49 -22.5t-72 -9.5q-32 0 -65 3.5t-73 13t-70.5 25t-51 43t-20.5 62.5z" />
<glyph unicode="|" horiz-adv-x="686" d="M31 -561q0 6 135 409q142 424 149 447q139 443 207 711q15 66 21 79q6 14 10 21.5t12.5 18t20 15.5t26.5 5q21 0 32 -13.5t11 -33.5q0 -23 -120 -381q-25 -78 -57 -174l-51 -153t-21 -66q-10 -30 -82 -263t-134.5 -429.5t-70.5 -204.5q-25 -25 -51 -25q-37 0 -37 37z" />
<glyph unicode="}" horiz-adv-x="649" d="M-371 -623q0 5 13 12.5t30 10.5q27 6 41 6q96 14 192.5 60.5t157.5 111.5q7 7 27 26.5t30 31t24 30t20 37t6 37.5q0 60 -45 184q-45 133 -45 217q0 75 32.5 126.5t100.5 68.5q-31 36 -31 82q0 55 26 115.5t65 111.5t84 107.5t84 104.5t65 102t26 100q0 17 -11.5 28 t-37 16t-44.5 6.5t-56 2.5q-104 5 -109 6q-59 10 -59 43q0 43 76 43q27 0 43 -2l16 -10q-1 -2 -3 -5t-3 -5q43 -2 85 -8.5t87.5 -20.5t73.5 -40.5t28 -61.5q0 -53 -35.5 -118.5t-86 -128t-101 -125.5t-86 -128.5t-35.5 -118.5q0 -31 24 -47t52 -18.5t52 -11t24 -27.5 q0 -14 -27 -27q7 -11 7 -25q0 -12 -9 -19t-20 -7q-17 0 -47 8t-47 8q-55 0 -88 -43t-33 -102q0 -64 48 -185.5t48 -189.5q0 -82 -58.5 -157.5t-143.5 -124.5t-177 -78t-164 -29q-25 0 -43 2q-18 1 -30.5 7t-12.5 11z" />
<glyph unicode="~" horiz-adv-x="718" d="M31 207q0 23 28 39q6 4 55.5 39.5t83 52t64.5 16.5q35 0 60.5 -22.5t39.5 -49t41 -49t64 -22.5q39 0 95 19t63 44q8 23 28 23q14 0 24.5 -10t10.5 -23q0 -26 -26 -47q-94 -94 -207 -94q-50 0 -77.5 18.5t-49.5 51.5q-1 2 -6.5 11.5t-7.5 12.5t-7.5 11t-9.5 11l-10 7.5 t-12.5 6t-14.5 1.5q-33 0 -68 -23t-59 -55q-15 -18 -37 -18q-20 0 -42.5 13t-22.5 36z" />
<glyph unicode="&#xa1;" horiz-adv-x="473" d="M29 -537q0 14 16 25q75 49 152 212.5t104 283.5q0 1 2.5 14t4.5 20t6 18t10 16t14 5q20 0 33.5 -27t13.5 -48q0 -60 -99 -309.5t-141 -274.5q-12 -6 -24 -6q-25 0 -58.5 22t-33.5 49zM319 186q0 28 21.5 63.5t52.5 35.5q24 0 36.5 -20.5t12.5 -41.5q0 -28 -20 -62 t-51 -34q-25 0 -38.5 17.5t-13.5 41.5z" />
<glyph unicode="&#xa2;" horiz-adv-x="706" d="M31 442q0 76 28 146q18 47 52 101.5t78 107.5t99.5 89t106.5 38q4 33 4 100q0 7 -1.5 32.5t0 37.5t6.5 29.5t19.5 25.5t37.5 8q24 0 42.5 -13t18.5 -38q0 -3 -22 -102q-16 -62 -27 -99q119 -54 119 -219q0 -17 -2 -37.5t-7 -47.5t-16.5 -44.5t-27.5 -17.5 q-21 0 -38.5 15.5t-17.5 37.5q0 7 11 51q8 40 8 66q0 90 -45 122q-88 -361 -121 -526q21 2 45 9t40.5 13t46.5 21.5t39.5 20.5t43.5 25t37 22q36 22 51 22q14 0 25.5 -10.5t11.5 -26.5q0 -12 -33 -45q-61 -58 -149.5 -94t-174.5 -39q-7 -35 -20 -105.5t-20 -105.5q4 2 10 2 q26 0 26 -32q0 -26 -16.5 -53t-44.5 -27q-49 0 -49 88q0 75 37 235q-98 11 -154.5 64.5t-56.5 152.5zM119 430q0 -105 141 -123q9 40 38.5 162t48 205.5t34.5 163.5q-58 -21 -120.5 -97t-102 -164t-39.5 -147z" />
<glyph unicode="&#xa3;" horiz-adv-x="1241" d="M31 -20q0 45 36 120.5t93.5 137t105.5 61.5q34 0 101 -45q98 101 180 199q-22 -2 -63.5 -6.5t-63.5 -6.5q-23 -2 -39 11.5t-16 37.5q0 75 200 74h10q9 0 28 -1t28 -1q34 47 88 131q11 17 59.5 99.5t87.5 146.5t85.5 128t70.5 79q56 31 100 31q39 0 63.5 -23t24.5 -63 q0 -56 -31.5 -206t-54.5 -239q-15 -53 -63 -53q-13 0 -28 6t-15 18q0 13 12 25q80 257 80 385q0 55 -12 55q-17 0 -55.5 -45t-86 -116t-90.5 -138.5t-83 -134t-50 -80.5l-8 -12q100 -11 164 -23q45 -8 77.5 -22t32.5 -27q0 -18 -20.5 -26t-40.5 -8q-36 0 -106.5 8t-106.5 8 q-46 0 -66 -2q-64 -82 -229 -260q66 -51 98.5 -74.5t87.5 -54t109.5 -42.5t120.5 -12q20 0 37 1t34 3.5t29 4.5t29.5 7.5t26 8t28 11t27 12t31 14t32.5 14.5q26 13 41 13q9 0 19 -6t10 -17q0 -13 -27 -35l-8 -6q-71 -50 -156 -80.5t-165 -30.5q-214 0 -453 216l-19.5 -19.5 l-28 -28t-32 -31.5t-37 -35t-36.5 -32.5t-38 -31.5t-33 -24t-30.5 -18t-22.5 -6q-28 0 -50.5 13t-22.5 43zM139 45q29 11 176 158q-20 12 -30 12q-35 0 -89.5 -66t-56.5 -104z" />
<glyph unicode="&#xa4;" horiz-adv-x="1087" d="M23 528q0 25 13.5 41t40 22t44 7.5t45.5 1.5h16q6 14 41 76q-53 -6 -145 -14q-21 -2 -38 11.5t-17 35.5q0 75 199 73h4h3h4h58q41 56 98 118.5t129.5 128.5t152 108.5t144.5 42.5q68 0 103.5 -45t35.5 -113q0 -86 -26 -194t-76 -152q-21 -21 -39 -21q-15 0 -22 10.5 t-7 22.5q0 7 11 35q30 49 46.5 128.5t16.5 147.5q0 60 -11 78q-11 19 -36 19q-43 0 -104 -35t-119.5 -87.5t-107 -105t-79.5 -94.5l25 -4q4 -1 24.5 -3t48 -5.5t50.5 -7.5q44 -8 76 -22t32 -27q0 -18 -21 -26.5t-40 -8.5q-35 0 -106 8t-107 8q-27 0 -39 -2q-27 -44 -51 -90 q27 -2 86 -10q5 -1 53.5 -3.5t81.5 -5.5q48 -3 83.5 -14t35.5 -24q0 -37 -70 -37q-27 0 -83 3t-85 3q-47 0 -145 -4q-72 -171 -72 -305q0 -96 38 -146.5t128 -50.5q142 0 312.5 95.5t273.5 217.5q9 11 42 55t54 64q17 17 33 17q8 0 14 -5t6 -14q0 -12 -10 -22 q-39 -59 -58 -86.5t-52 -70t-60.5 -68t-68.5 -57t-91 -60.5q-241 -146 -387 -146q-74 0 -157 39q-33 16 -57 45.5t-36 66t-17 71t-5 71.5q0 126 55 276q-8 -1 -25.5 -3t-25.5 -3q-4 -2 -14 -2q-21 0 -34 13t-13 34z" />
<glyph unicode="&#xa5;" horiz-adv-x="870" d="M31 297q0 25 14 41t40.5 22t44 7.5t44.5 1.5q35 0 105 -4q4 9 13 26.5t13 26.5q-39 -2 -113 -11t-106 -12q-21 -2 -37 11.5t-16 35.5q0 75 199 74h10q63 0 94 -2q-34 76 -56.5 234.5t-50.5 228.5q-16 45 -43 72q-2 2 -13.5 11.5t-16.5 15t-13.5 15t-12 18t-3.5 17.5 q0 25 20 42.5t43 17.5q11 0 23 -4q23 -7 38.5 -23.5t21.5 -31.5t12 -40q4 -20 17 -57.5t17 -52.5q16 -56 39 -150q14 -50 26 -136t17 -109q37 59 109.5 168.5t89.5 136.5q3 4 28.5 39t38 55t26.5 49.5t14 48.5q0 17 0.5 26t4 21.5t10.5 19t20 11t32 4.5q26 0 46 -12.5 t20 -40.5q0 -52 -115 -193q-110 -138 -129 -165q-75 -116 -152 -248q8 -1 111 -15q46 -8 79.5 -22t33.5 -27q0 -18 -22 -26.5t-40 -8.5q-28 0 -78 6t-71 7q-11 -15 -27 -15q-20 0 -35 19l-37 -64l31 -4q4 -1 52.5 -3t80.5 -5q48 -3 83.5 -14.5t35.5 -24.5q0 -37 -68 -37 q-29 0 -85 3t-85 3q-15 0 -47 -1t-47 -1q-86 -146 -86 -192q-2 -2 0 -2q19 -30 19 -53q0 -41 -49 -41q-28 0 -47 16t-19 45q0 41 100 221q-18 -1 -73 -8.5t-74 -7.5q-21 0 -35 13t-14 34z" />
<glyph unicode="&#xa6;" horiz-adv-x="360" d="M-20 -397q0 27 38 168q8 29 19 71t17.5 66.5t8.5 32.5q16 66 37 184q27 151 35 164q12 26 43 26q47 0 47 -36l-22 -99q-40 -168 -56 -254q-10 -50 -27.5 -151.5t-27.5 -151.5q-6 -26 -26.5 -41.5t-47.5 -15.5q-38 0 -38 37zM170 508q0 55 29 182q50 220 65 309 q15 77 15 121q0 56 49 56q23 0 38 -14t15 -38q0 -14 -25 -137q-27 -113 -32 -143q-1 -5 -41 -176q-29 -127 -29 -166q0 -4 1 -12t1 -11q-4 -22 -27 -22q-21 0 -40 14t-19 37z" />
<glyph unicode="&#xa7;" horiz-adv-x="1359" d="M31 -203q0 46 22 88.5t55.5 73t78.5 57t85 42.5t80 28q147 41 320 41q132 0 178 -18q3 -2 8.5 -8t5.5 -9t-2 -6t-6.5 -4.5l-7.5 -2.5t-8 -2t-6 -1q-19 -3 -53.5 -6t-45.5 -4q-15 -1 -87 -6t-102 -8.5t-82.5 -13.5t-92.5 -24q-50 -18 -103 -48t-100 -77.5t-47 -91.5 q0 -55 84 -55q117 0 373 123q44 21 74.5 36.5t84.5 45t92.5 55t84 61t74 68.5t48 72.5t19.5 77.5q0 26 -6 47q-24 82 -369 82q-10 0 -44 -2t-66 -2.5t-74.5 0t-77 5.5t-65.5 14.5t-48.5 28t-17.5 44.5q0 39 127 116q-47 9 -83 31t-36 57q0 7 2 11q10 39 151 119.5t226 117.5 q103 47 302 118t265 71q25 0 56.5 -15.5t31.5 -38.5q0 -12 -12 -24q-14 -12 -62 -23t-112.5 -20.5t-73.5 -11.5q-67 -16 -127 -39q-41 -16 -112 -45t-174 -74t-174.5 -87t-71.5 -63q0 -3 5.5 -3t13 1t15.5 0q10 -1 22 -1t21.5 0.5t10.5 0.5q12 0 82.5 1t115.5 1t119 -4.5 t123.5 -12.5t97 -26t68.5 -43q33 -42 33 -98q0 -57 -31 -121q22 -37 22 -84q0 -67 -41.5 -141.5t-95.5 -128.5t-112 -94q-70 -45 -142 -86.5t-166 -89t-183.5 -76.5t-154.5 -29q-202 0 -202 133zM401 494q0 -3 5 -3t13 1t17 0h53q9 0 98.5 1t133.5 -0.5t119 -6t128 -17.5 t89 -33q6 24 6 49q0 26 -6 47q-24 82 -367 82q-18 0 -52 -1t-52 -1q-1 -1 -30 -15t-50 -25t-48 -27t-42 -29t-15 -22z" />
<glyph unicode="&#xa8;" horiz-adv-x="270" d="M31 1053q0 17 15 28t30 11q20 0 37.5 -9t17.5 -28q0 -18 -18.5 -30.5t-34.5 -12.5q-15 0 -31 12t-16 29zM141 1053q0 17 16.5 27t32.5 10q18 0 34 -9t16 -28t-19.5 -30t-34.5 -11q-18 0 -31.5 11.5t-13.5 29.5z" />
<glyph unicode="&#xa9;" horiz-adv-x="1253" d="M31 504q0 146 121 270q102 108 299 197.5t342 89.5q63 0 116.5 -34.5t87.5 -90.5q226 -71 226 -274q0 -89 -57 -169.5t-145.5 -137t-194 -98.5t-204.5 -62.5t-176 -20.5q-66 0 -124.5 10t-112.5 34.5t-93 61.5t-62 94t-23 130zM104 467q0 -64 26.5 -109.5t73 -69 t99.5 -34t117 -10.5q137 0 289 46t270 122q77 45 106 92q62 94 62 182q0 67 -30 104.5t-95 65.5q-7 -20 -31 -20q-32 0 -61 43q-29 2 -90 2q-74 0 -119 -8t-94 -39q-7 -7 -17 -7q-18 0 -28.5 15t-10.5 30q0 27 25 48q16 13 101.5 23.5t125.5 10.5q13 0 36 -1t36 -1 q-13 18 -30.5 23.5t-47.5 5.5q-112 0 -264.5 -56t-253.5 -126q-83 -59 -139 -149t-56 -183zM358 512q0 60 43 135t110.5 129.5t129.5 54.5q73 0 128.5 -58.5t55.5 -131.5q0 -68 -47 -68q-13 0 -26 7.5t-13 23.5q0 61 -19 104.5t-65 43.5q-45 0 -94 -44t-80.5 -103 t-31.5 -105q0 -66 124 -66q82 0 185 35q30 6 35 6q13 0 23.5 -6.5t10.5 -19.5q0 -37 -99 -65t-150 -28q-37 0 -73 8t-70.5 24.5t-55.5 48.5t-21 75z" />
<glyph unicode="&#xaa;" horiz-adv-x="540" d="M-111 41q0 6 3.5 11.5t7 8t10.5 6t10 5.5q45 37 133 140t103 150q-19 27 -19 54q0 24 16 44.5t42 20.5q16 0 27 -9.5t11 -27.5q0 -16 -6 -28q29 0 79.5 17t74.5 36q40 33 51 33q23 0 42.5 -10t19.5 -31q0 -14 -28 -54t-63.5 -85t-44.5 -62q-79 -134 -79 -178 q0 -12 8.5 -19.5t21.5 -7.5q46 0 150 70q43 28 81.5 68t85.5 98.5t70 83.5l4 6q12 12 23 12q20 0 20 -22q0 -13 -8 -25q-38 -71 -143 -181t-170 -138q-76 -35 -137 -35q-34 0 -65.5 17.5t-31.5 53.5q0 45 47 136.5t99 173.5q-122 -34 -127 -35q-37 -76 -135.5 -202 t-149.5 -126q-13 0 -23 7.5t-10 23.5z" />
<glyph unicode="&#xab;" horiz-adv-x="968" d="M72 657q0 25 18.5 38.5t42.5 13.5q89 0 213 59q14 7 25.5 15.5t20 20.5t14 21t11 26t8 24.5t7 28t6.5 26.5q14 63 51 63q21 0 30 -15.5t9 -31.5q0 -71 -20.5 -120.5t-71.5 -98.5q-38 -38 -95.5 -65t-113.5 -33q58 -39 129 -102.5t138.5 -137.5t113 -152.5t45.5 -134.5 q0 -25 -11 -46t-38 -21q-22 0 -52 19.5t-30 43.5q0 25 35 45q-57 130 -184 260.5t-254 190.5q-47 20 -47 63zM428 559q0 49 39 62q66 20 176 168.5t158 257.5q26 62 76 73q13 4 26 -1t17 -21q2 -13 -7 -39q-11 -21 -12 -27q-37 -172 -354 -485q75 -58 205.5 -172t146.5 -146 q14 -31 14 -51q0 -17 -8.5 -33t-27.5 -16q-15 0 -22 9.5t-13 27.5q-9 25 -85 89.5t-137.5 110.5t-119.5 87q-24 18 -36.5 28.5t-24 31.5t-11.5 46z" />
<glyph unicode="&#xac;" horiz-adv-x="839" d="M31 664q0 24 17.5 39.5t41.5 15.5q18 0 44.5 -10.5t39.5 -24.5q94 -12 195 -12q197 0 321 41q40 10 51 10q26 0 47 -13t21 -40q0 -22 -29 -43q-5 -4 -12.5 -8.5t-15.5 -8.5t-11 -6q-22 -14 -74.5 -91.5t-52.5 -98.5q0 -12 19 -27q12 -12 12 -27q0 -38 -47 -38 q-30 0 -61 21t-31 52q0 74 117 217q-29 -2 -111.5 -10t-139.5 -12t-112 -4q-27 0 -57.5 2.5t-73.5 9.5t-70.5 24t-27.5 42z" />
<glyph unicode="&#xad;" horiz-adv-x="907" d="M252 338q2 9 6.5 15t8 9.5t12.5 5t12 1.5h14.5h13.5q27 0 65 -1t65 -1q29 0 87 2t87 2q1 0 46 2.5t74 1.5q105 -4 105 -49q0 -17 -17 -26t-34 -9q-33 0 -100 4t-101 4q-42 0 -107.5 -9t-107.5 -9q-37 0 -85 18t-44 39z" />
<glyph unicode="&#xae;" horiz-adv-x="520" d="M-76 53q-9 21 0 41q24 38 76.5 104t82 114.5t32.5 88.5q-4 16 -4 21q0 25 15.5 45t41.5 20q16 0 27.5 -9t11.5 -27q0 -15 -6 -27q35 2 82.5 17t72.5 36q37 31 52 31q21 0 40 -9.5t19 -29.5q0 -15 -27.5 -54.5t-63 -84.5t-44.5 -62q-80 -136 -80 -178q0 -12 8.5 -19.5 t22.5 -7.5q48 0 149 68q43 30 81.5 69t88.5 101t68 82l4 4q9 12 24 12q19 0 19 -22q0 -11 -6 -23q-39 -72 -144.5 -182t-171.5 -139q-80 -33 -135 -33q-34 0 -66 17.5t-32 52.5q0 81 145 309q-8 -2 -27.5 -8t-31.5 -9q-54 -12 -70 -16q-11 -5 -40.5 -54t-75 -124t-78.5 -121 q-11 -14 -30.5 -11t-29.5 17z" />
<glyph unicode="&#xaf;" horiz-adv-x="366" d="M66 1051q5 20 28 20l8 -2h60q8 0 24.5 1t24.5 1q2 0 22 1t33 1q24 -2 38.5 -9.5t14.5 -19.5q0 -10 -9 -16t-19 -6q-14 0 -45 2t-47 2q-12 0 -26 -2.5t-19 -3.5q-4 -2 -23 -2q-10 0 -26 5t-28 13t-11 15z" />
<glyph unicode="&#xb0;" horiz-adv-x="268" d="M31 989q0 25 15 53.5t42 28.5q10 0 20.5 -5.5t10.5 -14.5q0 -5 -19.5 -27t-19.5 -35q24 0 64 30t40 50q0 21 -55 21q-10 0 -31.5 -4.5t-31.5 -4.5q-3 0 -7.5 1t-9 6t-4.5 12q0 13 33.5 23t50.5 10q20 0 43 -4.5t44.5 -18.5t21.5 -35q0 -41 -56 -87t-96 -46 q-23 0 -39 11.5t-16 35.5z" />
<glyph unicode="&#xb1;" d="M-2 680q0 15 10.5 22t22.5 7q22 0 67.5 -5.5t67.5 -5.5q62 0 127 9q54 114 67 147q22 72 70 72q43 0 43 -41q0 -42 -65 -164q156 27 311 65l102 207q17 29 43 29q22 0 33.5 -15.5t11.5 -35.5q0 -30 -51 -152q14 3 40 9.5t40 9.5q275 59 375 59q22 0 22 -20 q0 -18 -17 -28.5t-32 -10.5q-29 0 -160 -25l-82 -20.5t-81 -18.5q-61 -11 -140 -31q-22 -45 -77 -140t-95 -166t-73 -160.5t-33 -155.5q0 -21 6 -29t24 -8q46 0 126.5 64t141.5 129.5t105 121.5l4 7q16 16 29 16q20 0 20 -23q0 -10 -12 -34q-28 -47 -75 -105t-105.5 -116.5 t-125 -98t-120.5 -39.5q-96 0 -96 117q0 61 22 151q-89 -103 -195.5 -198.5t-162.5 -95.5q-28 0 -60 17.5t-32 47.5q0 121 217 582q-97 -9 -131 -9q-41 0 -84 14.5t-43 47.5zM131 61q35 8 121.5 84t132.5 125q3 3 51.5 57t86.5 98.5t44 57.5l57 114t58 114 q-264 -58 -315 -68q-43 -85 -89 -183t-96 -225t-51 -174z" />
<glyph unicode="&#xb2;" horiz-adv-x="374" d="M31 754q0 28 28.5 68t62.5 72t62.5 60t28.5 35q0 3 -5 1q-4 -1 -5 -1q-28 0 -79.5 -25.5t-57.5 -25.5q-13 0 -20 9.5t-7 19.5q0 36 38 63.5t79.5 39t70.5 11.5q28 0 58 -16.5t30 -42.5q0 -46 -59 -113.5t-127 -126.5q24 -8 64 -8q17 0 52 7t54 7q15 0 30 -9.5t15 -26.5 q0 -24 -48.5 -40t-80.5 -16q-2 0 -34.5 -1.5t-51 0t-45 6t-40 18.5t-13.5 35z" />
<glyph unicode="&#xb3;" horiz-adv-x="385" d="M31 723q0 21 45 27q7 1 35 3.5t43 5t39.5 9t38 16t24 26t10.5 38.5q0 10 -2.5 13t-11.5 3q-14 0 -39 -5t-39 -5q-43 0 -43 37q0 28 19 43t41.5 17.5t41.5 8t19 17.5q0 18 -33 18q-14 0 -43 -8t-45 -8q-18 0 -31.5 11t-13.5 30q0 23 26.5 40.5t56 24.5t52.5 7 q51 0 85 -23.5t34 -77.5q0 -34 -16 -71q30 -38 30 -84q0 -41 -22.5 -71.5t-58 -47t-71 -24t-69.5 -7.5q-22 0 -62 10.5t-40 26.5z" />
<glyph unicode="&#xb4;" horiz-adv-x="251" d="M31 1010q0 32 68.5 77.5t99.5 45.5q8 0 15 -5.5t7 -13.5q0 -7 -24.5 -27t-60 -44.5t-40.5 -28.5q-2 -12 -10 -27q-12 -6 -23 -6q-32 0 -32 29z" />
<glyph unicode="&#xb5;" horiz-adv-x="428" d="M90 127q0 28 4.5 59t9.5 58t17.5 63.5t20.5 61t26 65t26.5 60t30 62.5t28.5 56.5t29.5 57.5t26.5 51q-13 0 -36 -1t-35 -1q-22 0 -43 3.5t-41.5 17.5t-20.5 36q0 13 11 20t22 7q123 0 184 2l96 190q5 11 16.5 20t24.5 9q22 0 33.5 -15.5t11.5 -35.5q0 -42 -55 -160 q39 2 127 10q68 7 246 37q14 3 40 9.5t47 10t40 3.5q8 0 15 -5.5t7 -13.5q0 -13 -15.5 -25t-29.5 -16q-141 -46 -514 -90q-21 -42 -76 -136.5t-92.5 -162.5t-69.5 -156t-32 -153q0 -23 5.5 -31t23.5 -8q46 0 126.5 64t140.5 129.5t105 121.5l7 7q14 18 26 18q10 0 15.5 -8 t5.5 -17q0 -8 -13 -34q-28 -47 -75 -104.5t-105.5 -116t-124.5 -97.5t-119 -39q-98 0 -98 117z" />
<glyph unicode="&#xb6;" horiz-adv-x="1234" d="M31 672q0 77 32 138t82 98t117.5 61t132 33.5t131.5 9.5q145 0 321.5 -30t317.5 -77q39 -13 39 -39q0 -19 -21.5 -29t-41.5 -10t-74 13q-207 -540 -297 -748q-79 -182 -149 -401q-8 -24 -20.5 -74t-20.5 -74q-9 -23 -19 -34t-31 -11q-16 0 -28.5 10.5t-12.5 26.5 q0 46 87 287t129 340q57 133 280 698q-31 7 -87 20t-102 23t-87 17q-110 -309 -136 -385q25 2 50.5 -3.5t25.5 -25.5q0 -49 -104 -49q-70 -203 -139 -408q-5 -16 -44 -121.5t-63 -177.5q-86 -247 -86 -280q0 -27 -19.5 -49.5t-46.5 -22.5q-17 0 -26.5 10.5t-9.5 26.5 q0 50 83 286t134 365q49 121 135 371q-42 1 -70.5 2t-77.5 6t-83.5 13t-75 24t-66 38t-42.5 56t-17 76zM111 662q0 -23 10 -42t31.5 -31.5t41 -21.5t52.5 -15.5t50.5 -9t51 -6t39.5 -4.5q46 -4 70 -4h30q23 67 68.5 202t67.5 202q-50 4 -70 4q-383 0 -438 -242 q-4 -20 -4 -32z" />
<glyph unicode="&#xb7;" horiz-adv-x="419" d="M-166 756q0 9 4.5 15t14.5 8.5t15.5 3t19 0t14.5 -0.5q252 0 450 27l94 184q5 11 16.5 20t24.5 9q22 0 33.5 -15.5t11.5 -35.5q0 -32 -45 -142q16 3 58.5 12.5t75.5 15t57 5.5q22 0 22 -18q0 -15 -34.5 -32.5t-83.5 -29.5q-31 -7 -77 -15t-50 -9q-23 -47 -79.5 -143.5 t-97 -169.5t-74.5 -164.5t-34 -159.5q0 -21 5.5 -29t23.5 -8q46 0 126.5 64t140.5 129.5t105 121.5l7 7q12 16 26 16q10 0 15.5 -7t5.5 -16q0 -8 -13 -34q-28 -47 -75 -105t-105.5 -116.5t-124.5 -98t-119 -39.5q-98 0 -98 117q0 40 7 84t24 95t30.5 88.5t41.5 96.5 t40.5 85.5t45 89.5t38.5 75q-267 -39 -376 -39q-38 0 -72.5 13t-34.5 45z" />
<glyph unicode="&#xb8;" horiz-adv-x="546" d="M127 -485q0 18 33 18q51 26 110.5 77t59.5 85q0 12 -17 12t-48 -12t-46 -12q-11 0 -18.5 15.5t-7.5 27.5q0 15 5.5 20.5t16 7t14.5 4.5q14 9 36 36t28 44q5 21 24 21q13 0 22 -11t9 -22q0 -27 -47 -68h4q26 0 51 -13t25 -40q0 -46 -88.5 -131.5t-132.5 -85.5q-9 0 -21 7 t-12 20z" />
<glyph unicode="&#xb9;" horiz-adv-x="196" d="M31 985q0 30 29.5 63t60.5 33q45 0 45 -92q0 -40 -10.5 -120.5t-10.5 -120.5q0 -15 11 -41q-1 -15 -18.5 -24t-31.5 -9q-43 0 -43 39q0 7 3 16q12 73 24 227q-13 -8 -31 -8q-15 0 -21.5 12t-6.5 25z" />
<glyph unicode="&#xba;" horiz-adv-x="462" d="M-117 37q0 14 25 29l4 2l2 2q56 34 144 155.5t122 198.5q1 3 9 32t19 41.5t32 12.5q37 0 59.5 -32t22.5 -68q0 -31 34.5 -93.5t34.5 -111.5q0 -13 -4 -37q103 43 174 154q7 10 19.5 32.5t19.5 32.5q34 43 53 43q17 0 17 -18q0 -12 -6 -21q-4 -10 -9 -16 q-58 -112 -127 -180.5t-176 -100.5q-66 -94 -198 -94q-32 0 -64.5 11.5t-32.5 39.5q0 7 9 21q6 10 37.5 21.5t64 19t74.5 16t49 10.5q20 30 20 56q0 68 -80 198q-21 -51 -82 -142t-130 -168t-101 -77q-13 0 -24 7.5t-11 23.5zM127 45v21q21 -9 43 -9q-27 -4 -43 -12zM170 57 q9 0 33 4l-13 -2q-3 0 -10 -1t-10 -1z" />
<glyph unicode="&#xbb;" horiz-adv-x="1101" d="M244 1102q4 16 17 21t26 1q49 -11 75 -73q48 -109 158 -257.5t176 -168.5q39 -13 39 -62q0 -43 -33 -76q-25 -23 -79 -59q-4 -3 -33 -24.5t-49.5 -37t-53.5 -41.5t-57.5 -46.5t-49 -42t-39.5 -39t-19 -27.5q-4 -12 -6.5 -18t-10 -12.5t-18.5 -6.5q-19 0 -28 16t-9 33 q0 19 14 51q16 32 146.5 146t205.5 172q-317 313 -354 485q-1 6 -11 28t-7 38zM510 106q0 56 45.5 134.5t113 152.5t138.5 137.5t129 102.5q-56 6 -113.5 33t-95.5 65q-51 49 -71.5 98.5t-20.5 120.5q0 16 9 31.5t30 15.5q26 0 39.5 -28t18 -63.5t26 -75.5t59.5 -58 q124 -59 213 -59q24 0 43 -13.5t19 -37.5q0 -43 -48 -64q-127 -60 -254 -190.5t-184 -260.5q35 -20 35 -45q0 -24 -30 -43.5t-52 -19.5q-27 0 -38 21t-11 46z" />
<glyph unicode="&#xbc;" horiz-adv-x="948" d="M31 209q0 40 37 100q52 74 168 199q69 72 198.5 202.5t181.5 184.5q10 11 35.5 36t38.5 40q3 4 15 20.5t17.5 23.5t18 21t21.5 20t22.5 11.5t26.5 5.5q22 0 36.5 -17.5t14.5 -39.5q0 -33 -33 -62q-10 -9 -32.5 -24.5t-32.5 -24.5q-24 -19 -107 -102q-145 -145 -247 -252 q-36 -37 -105.5 -110.5t-105.5 -110.5q-23 -22 -34 -39t-26 -51l-30 -60l-7 -8q-15 -22 -32 -22q-19 0 -29 19.5t-10 39.5zM125 973q0 30 30 64t60 34q19 0 30 -18.5t14 -37t3 -36.5q0 -41 -11 -122t-11 -122q0 -6 10 -41q0 -15 -17 -23.5t-32 -8.5q-18 0 -30.5 10.5 t-12.5 29.5q0 2 1 7.5t1 7.5q17 92 24 227q-16 -8 -28 -8q-17 0 -24 12t-7 25zM457 332q0 16 19 35t53.5 42.5t35.5 24.5q9 7 31 30t42 39.5t34 16.5q21 0 37 -8q2 8 2 27q0 4 -2 12t-2 12q0 15 11 22t23 7q26 0 43 -17.5t17 -42.5q0 -13 -12 -47.5t-28.5 -77t-19.5 -51.5 h86q37 -2 64 -11.5t27 -22.5q0 -28 -44 -33q-26 0 -159 -10q-6 -24 -6 -54q0 -59 16 -106l2 -4q0 -1 1 -3t1 -3q0 -12 -10 -17.5t-19 -5.5q-34 0 -49.5 52t-15.5 98q0 24 2 36q-74 -8 -109 -8q-27 0 -49 20.5t-22 47.5zM594 358h68l16 52l-10 -7q-63 -35 -74 -45z" />
<glyph unicode="&#xbd;" horiz-adv-x="948" d="M31 209q0 40 37 100q52 74 168 199q69 72 198.5 202.5t181.5 184.5q10 11 35.5 36t38.5 40q3 4 15 20.5t17.5 23.5t18 21t21.5 20t22.5 11.5t26.5 5.5q22 0 36.5 -17.5t14.5 -39.5q0 -33 -33 -62q-10 -9 -32.5 -24.5t-32.5 -24.5q-24 -19 -107 -102q-145 -145 -247 -252 q-36 -37 -105.5 -110.5t-105.5 -110.5q-24 -22 -35 -39t-25 -51l-30 -60l-7 -8q-15 -22 -32 -22q-19 0 -29 19.5t-10 39.5zM125 973q0 30 30 64t60 34q19 0 30 -18.5t14 -37t3 -36.5q0 -41 -11 -122t-11 -122q0 -6 10 -41q0 -15 -17 -23.5t-32 -8.5q-18 0 -30.5 10.5 t-12.5 29.5q0 2 1 7.5t1 7.5q17 92 24 227q-16 -8 -28 -8q-17 0 -24 12t-7 25zM483 199q0 37 46.5 90.5t92.5 95t46 49.5q0 2 -13 2q-27 0 -78.5 -26.5t-58.5 -26.5q-24 0 -24 29q0 37 37.5 64.5t78.5 38.5t70 11q30 0 60 -16t30 -43q0 -75 -188 -238q27 -8 63 -8 q19 0 54 7.5t53 7.5q15 0 30 -10.5t15 -28.5q0 -23 -49 -39.5t-80 -16.5q-2 0 -35 -1.5t-51 0t-45 6t-40.5 18.5t-13.5 35z" />
<glyph unicode="&#xbe;" horiz-adv-x="948" d="M23 684q0 12 16 18.5t29 6.5q10 2 35.5 4.5t42.5 5t41 9.5t38 16t24.5 25t10.5 38q0 18 -16 18q-14 0 -39 -5t-39 -5q-43 0 -43 35q0 28 19 43.5t42.5 18t42.5 8.5t19 18q0 16 -33 16q-15 0 -45 -7t-45 -7q-18 0 -30.5 10.5t-12.5 28.5q0 24 26.5 41.5t55 24t51.5 6.5 q52 0 86.5 -23t34.5 -76q0 -29 -19 -73q33 -38 33 -82q0 -41 -22.5 -72t-58.5 -47t-72 -23.5t-70 -7.5q-22 0 -62 10.5t-40 26.5zM55 190q0 41 37 101q49 70 168 198q67 71 196 201t185 189q4 4 32 30.5t42 42.5q3 4 14.5 20.5t17.5 24t18.5 21t21.5 20t22.5 12t26.5 5.5 q22 0 36.5 -18t14.5 -40q0 -28 -33 -61q-11 -10 -34.5 -25t-31.5 -22q-17 -15 -34.5 -32t-39 -39.5t-32.5 -33.5q-207 -207 -248 -249q-30 -31 -101 -107t-110 -115q-23 -23 -33.5 -40t-25.5 -50q-28 -56 -31 -61l-6 -8q-14 -21 -33 -21t-29 19t-10 38zM457 332q0 16 19 35 t53.5 42.5t35.5 24.5q9 7 31 30t42 39.5t34 16.5q21 0 37 -8q2 8 2 27q0 4 -2 12t-2 12q0 15 11 22t23 7q26 0 43 -17.5t17 -42.5q0 -13 -12 -47.5t-28.5 -77t-19.5 -51.5h86q37 -2 64 -11.5t27 -22.5q0 -28 -44 -33q-26 0 -159 -10q-6 -24 -6 -54q0 -59 16 -106l2 -4 q0 -1 1 -3t1 -3q0 -12 -10 -17.5t-19 -5.5q-34 0 -49.5 52t-15.5 98q0 24 2 36q-74 -8 -109 -8q-27 0 -49 20.5t-22 47.5zM594 358h68l16 52l-10 -7q-63 -35 -74 -45z" />
<glyph unicode="&#xbf;" horiz-adv-x="606" d="M33 -471q0 44 32.5 104t60.5 94t74 85q6 7 9 10q26 28 79 85t95 100t82 81q-6 18 -6 37q0 23 11.5 42t33.5 19q25 0 38 -22.5t13 -44.5q0 -42 -49 -99q-20 -24 -78 -77q-49 -47 -112.5 -117.5t-124 -158t-60.5 -130.5q0 -22 19 -33.5t47 -11.5q42 0 121.5 27.5 t107.5 54.5q3 3 26.5 40.5t43.5 37.5q34 0 34 -43q0 -44 -41 -83.5t-98.5 -64t-113.5 -39t-91 -14.5q-61 0 -107 30t-46 91zM436 342q0 33 31 67.5t65 34.5q22 0 34 -17t12 -38q0 -31 -29.5 -65.5t-63.5 -34.5q-22 0 -35.5 16t-13.5 37z" />
<glyph unicode="&#xc0;" horiz-adv-x="1206" d="M-10 -106q0 39 36.5 115.5t69.5 76.5q19 0 19 -16t-24.5 -71.5t-24.5 -80.5q0 -16 20 -16q9 0 22.5 8.5t23.5 17.5t24.5 23t17.5 16q214 196 348 330q-54 -8 -82 -8q-26 0 -46.5 19t-20.5 46q0 11 7 19t19 8q89 0 222 14q26 27 159 170q88 101 297 355q14 17 48 56 t57.5 70t40.5 62q2 4 8.5 16.5t10 17.5t10 14t14 14t16.5 8q8 4 16 4q18 0 33 -15t15 -34q0 -17 -37 -105q-32 -80 -45 -106q-84 -219 -144 -482h19q11 0 40 -6t29 -12t-16 -15.5t-37 -13.5q-20 -5 -45 -10q-39 -195 -39 -305q0 -107 33 -158q12 -16 12 -29q0 -20 -24 -20 q-31 0 -53.5 26.5t-32 67t-13.5 73t-4 60.5q0 119 31 271q-31 -4 -155 -20.5t-191 -26.5q-88 -90 -296.5 -284t-256.5 -214q-27 -10 -51 -10q-38 0 -59 21.5t-21 58.5zM758 412q141 15 274 24q55 247 135 469q-304 -374 -409 -493zM1239 1339q0 19 23 19q31 0 99.5 -45.5 t68.5 -77.5q0 -29 -35 -29q-9 0 -21 6q-8 15 -10 27q-10 8 -66 47q-59 41 -59 53z" />
<glyph unicode="&#xc1;" horiz-adv-x="1206" d="M-10 -106q0 39 36.5 115.5t69.5 76.5q19 0 19 -16t-24.5 -71.5t-24.5 -80.5q0 -16 20 -16q9 0 22.5 8.5t23.5 17.5t24.5 23t17.5 16q214 196 348 330q-54 -8 -82 -8q-26 0 -46.5 19t-20.5 46q0 11 7 19t19 8q89 0 222 14q26 27 159 170q88 101 297 355q14 17 48 56 t57.5 70t40.5 62q2 4 8.5 16.5t10 17.5t10 14t14 14t16.5 8q8 4 16 4q18 0 33 -15t15 -34q0 -17 -37 -105q-32 -80 -45 -106q-84 -219 -144 -482h19q11 0 40 -6t29 -12t-16 -15.5t-37 -13.5q-20 -5 -45 -10q-39 -195 -39 -305q0 -107 33 -158q12 -16 12 -29q0 -20 -24 -20 q-31 0 -53.5 26.5t-32 67t-13.5 73t-4 60.5q0 119 31 271q-31 -4 -155 -20.5t-191 -26.5q-88 -90 -296.5 -284t-256.5 -214q-27 -10 -51 -10q-38 0 -59 21.5t-21 58.5zM758 412q141 15 274 24q55 247 135 469q-304 -374 -409 -493zM1198 1214q0 32 68.5 77.5t99.5 45.5 q8 0 15.5 -5t7.5 -13q0 -7 -24.5 -27t-60 -44.5t-40.5 -28.5q-2 -8 -11 -27q-12 -6 -22 -6q-33 0 -33 28z" />
<glyph unicode="&#xc2;" horiz-adv-x="1206" d="M-10 -106q0 39 36.5 115.5t69.5 76.5q19 0 19 -16t-24.5 -71.5t-24.5 -80.5q0 -16 20 -16q9 0 22.5 8.5t23.5 17.5t24.5 23t17.5 16q214 196 348 330q-54 -8 -82 -8q-26 0 -46.5 19t-20.5 46q0 11 7 19t19 8q89 0 222 14q26 27 159 170q88 101 297 355q14 17 48 56 t57.5 70t40.5 62q2 4 8.5 16.5t10 17.5t10 14t14 14t16.5 8q8 4 16 4q18 0 33 -15t15 -34q0 -17 -37 -105q-32 -80 -45 -106q-84 -219 -144 -482h19q11 0 40 -6t29 -12t-16 -15.5t-37 -13.5q-20 -5 -45 -10q-39 -195 -39 -305q0 -107 33 -158q12 -16 12 -29q0 -20 -24 -20 q-31 0 -53.5 26.5t-32 67t-13.5 73t-4 60.5q0 119 31 271q-31 -4 -155 -20.5t-191 -26.5q-88 -90 -296.5 -284t-256.5 -214q-27 -10 -51 -10q-38 0 -59 21.5t-21 58.5zM758 412q141 15 274 24q55 247 135 469q-304 -374 -409 -493zM1198 1214q0 9 58.5 56t74.5 47 q10 0 23 -13t21.5 -27t20.5 -35t15 -25q23 -23 23 -31q0 -7 -10.5 -13t-16.5 -6q-7 0 -14 3t-12.5 6t-12.5 10.5t-10.5 12t-10 14.5t-8.5 14t-7.5 14.5t-6.5 11.5q-45 -25 -61 -61q-4 -16 -21 -16q-12 0 -28.5 12t-16.5 26z" />
<glyph unicode="&#xc3;" horiz-adv-x="1206" d="M-10 -106q0 39 36.5 115.5t69.5 76.5q19 0 19 -16t-24.5 -71.5t-24.5 -80.5q0 -16 20 -16q9 0 22.5 8.5t23.5 17.5t24.5 23t17.5 16q214 196 348 330q-54 -8 -82 -8q-26 0 -46.5 19t-20.5 46q0 11 7 19t19 8q89 0 222 14q26 27 159 170q88 101 297 355q14 17 48 56 t57.5 70t40.5 62q2 4 8.5 16.5t10 17.5t10 14t14 14t16.5 8q8 4 16 4q18 0 33 -15t15 -34q0 -17 -37 -105q-32 -80 -45 -106q-84 -219 -144 -482h19q11 0 40 -6t29 -12t-16 -15.5t-37 -13.5q-20 -5 -45 -10q-39 -195 -39 -305q0 -107 33 -158q12 -16 12 -29q0 -20 -24 -20 q-31 0 -53.5 26.5t-32 67t-13.5 73t-4 60.5q0 119 31 271q-31 -4 -155 -20.5t-191 -26.5q-88 -90 -296.5 -284t-256.5 -214q-27 -10 -51 -10q-38 0 -59 21.5t-21 58.5zM758 412q141 15 274 24q55 247 135 469q-304 -374 -409 -493zM1157 1255q0 17 46 44.5t63 27.5 q25 0 46.5 -31.5t43.5 -31.5q19 0 40 7t25 17q6 12 17 12q20 0 20 -18q0 -27 -40.5 -48.5t-65.5 -21.5q-44 0 -62 35l-8 10q-8 15 -18 15q-18 0 -41 -21.5t-31 -21.5q-11 0 -23 6.5t-12 19.5z" />
<glyph unicode="&#xc4;" horiz-adv-x="1206" d="M-10 -106q0 39 36.5 115.5t69.5 76.5q19 0 19 -16t-24.5 -71.5t-24.5 -80.5q0 -16 20 -16q9 0 22.5 8.5t23.5 17.5t24.5 23t17.5 16q214 196 348 330q-54 -8 -82 -8q-26 0 -46.5 19t-20.5 46q0 11 7 19t19 8q89 0 222 14q26 27 159 170q88 101 297 355q14 17 48 56 t57.5 70t40.5 62q2 4 8.5 16.5t10 17.5t10 14t14 14t16.5 8q8 4 16 4q18 0 33 -15t15 -34q0 -17 -37 -105q-32 -80 -45 -106q-84 -219 -144 -482h19q11 0 40 -6t29 -12t-16 -15.5t-37 -13.5q-20 -5 -45 -10q-39 -195 -39 -305q0 -107 33 -158q12 -16 12 -29q0 -20 -24 -20 q-31 0 -53.5 26.5t-32 67t-13.5 73t-4 60.5q0 119 31 271q-31 -4 -155 -20.5t-191 -26.5q-88 -90 -296.5 -284t-256.5 -214q-27 -10 -51 -10q-38 0 -59 21.5t-21 58.5zM758 412q141 15 274 24q55 247 135 469q-304 -374 -409 -493zM1198 1257q0 17 15 28t30 11 q20 0 37.5 -8.5t17.5 -27.5q0 -18 -18.5 -30.5t-34.5 -12.5t-31.5 11.5t-15.5 28.5zM1309 1257q0 17 16.5 27t32.5 10q18 0 33.5 -9t15.5 -28t-19 -29.5t-34 -10.5q-18 0 -31.5 11t-13.5 29z" />
<glyph unicode="&#xc5;" horiz-adv-x="1206" d="M-10 -106q0 39 36.5 115.5t69.5 76.5q19 0 19 -16t-24.5 -71.5t-24.5 -80.5q0 -16 20 -16q9 0 22.5 8.5t23.5 17.5t24.5 23t17.5 16q214 196 348 330q-54 -8 -82 -8q-26 0 -46.5 19t-20.5 46q0 11 7 19t19 8q89 0 222 14q26 27 159 170q88 101 297 355q14 17 48 56 t57.5 70t40.5 62q2 4 8.5 16.5t10 17.5t10 14t14 14t16.5 8q8 4 16 4q18 0 33 -15t15 -34q0 -17 -37 -105q-32 -80 -45 -106q-84 -219 -144 -482h19q11 0 40 -6t29 -12t-16 -15.5t-37 -13.5q-20 -5 -45 -10q-39 -195 -39 -305q0 -107 33 -158q12 -16 12 -29q0 -20 -24 -20 q-31 0 -53.5 26.5t-32 67t-13.5 73t-4 60.5q0 119 31 271q-31 -4 -155 -20.5t-191 -26.5q-88 -90 -296.5 -284t-256.5 -214q-27 -10 -51 -10q-38 0 -59 21.5t-21 58.5zM758 412q141 15 274 24q55 247 135 469q-304 -374 -409 -493zM1239 1174q0 25 15 53t42 28 q10 0 20.5 -5.5t10.5 -14.5q0 -5 -19.5 -26.5t-19.5 -34.5q24 0 64.5 29.5t40.5 49.5q0 21 -56 21q-10 0 -31.5 -4t-31.5 -4q-21 0 -21 18q0 13 33.5 23t50.5 10q21 0 43.5 -4.5t44 -18t21.5 -34.5q0 -41 -56 -87.5t-96 -46.5q-23 0 -39 12t-16 36z" />
<glyph unicode="&#xc6;" horiz-adv-x="2048" d="M2 -109q0 37 37 115t70 78q6 0 12 -5t6 -13q0 -15 -24.5 -70t-24.5 -80q0 -16 20 -16q9 0 22.5 8.5t23.5 17.5t24.5 23t17.5 16q254 236 349 330q-54 -8 -82 -8q-26 0 -47 18t-21 45q0 12 7.5 19.5t19.5 7.5q69 0 221 16q82 86 158 170q132 149 299 355q14 17 47.5 56 t57 69.5t40.5 60.5q2 4 8.5 16.5t10 18t10 14t14 14t16.5 9.5q2 0 8 1t9 1q17 0 32 -15.5t15 -32.5q0 -14 -15.5 -54.5t-40.5 -98t-26 -59.5q-72 -181 -133 -439q104 122 284 240q-10 23 -10 43q0 55 43 117q70 98 213 158.5t271 60.5q89 0 146.5 -40.5t57.5 -129.5 q0 -30 -14 -72.5t-37 -42.5q-19 0 -32 13t-13 32q0 13 5 36t5 34q0 90 -112 90q-84 0 -187 -30.5t-164 -78.5q-98 -77 -98 -153v-11q121 48 199 48q29 0 59.5 -17t30.5 -47q0 -40 -68.5 -67t-117.5 -27q-66 0 -115 16q-171 -96 -264 -217l-6 -8q2 -2 2 -8q0 -9 -23 -19 q-108 -155 -108 -280q0 -70 41.5 -116.5t100.5 -64.5t132 -18q187 0 385 98q191 96 365 285q6 7 32.5 39t42.5 49q19 19 35 19q10 0 18.5 -8t8.5 -19q0 -8 -4 -16q-137 -230 -390.5 -380.5t-517.5 -150.5q-136 0 -225 55q-34 10 -63 52q-64 73 -64 168q0 72 27 155 q5 30 18 101q-311 -43 -346 -48q-77 -81 -291 -279t-264 -218q-28 -12 -51 -12q-36 0 -57 22t-21 59zM748 412q141 15 274 24q55 247 135 469q-304 -374 -409 -493zM1599 705q103 4 103 22q-1 1 -2.5 0.5l-4.5 -1.5t-5 -1q-29 0 -91 -20z" />
<glyph unicode="&#xc7;" horiz-adv-x="794" d="M-10 184q0 257 196 551q39 57 98.5 123t134 134.5t157.5 113.5t149 45q67 0 102 -45t35 -113q0 -86 -26 -194t-76 -152q-25 -20 -39 -20q-13 0 -20 11t-7 21q0 17 11 35q29 49 46 130t17 147q0 23 -0.5 33t-4.5 28.5t-14.5 26.5t-27.5 8q-45 0 -108 -37t-122.5 -91.5 t-109 -108t-78.5 -95.5q-89 -128 -152 -282t-63 -285q0 -95 38.5 -146t127.5 -51q141 0 312 96t274 218q12 14 43 56t51 62q24 19 35 19q8 0 14 -6t6 -15q0 -8 -4 -12q-1 -2 -3 -5t-3 -5q-39 -59 -58 -86.5t-52 -70t-60.5 -68t-68.5 -57t-91 -60.5q-236 -143 -387 -143 q-84 0 -158 38q-114 55 -114 252zM66 -403q0 18 32 18q51 26 110.5 77t59.5 85q0 12 -16 12q-17 0 -48 -12.5t-46 -12.5q-11 0 -19 16t-8 27q0 15 5.5 20.5t16.5 7.5t15 5q14 9 35.5 36t27.5 44q5 21 25 21q13 0 22 -11t9 -22q0 -27 -47 -68h4q25 0 50 -13t25 -40 q0 -46 -88.5 -131.5t-132.5 -85.5q-9 0 -20.5 7t-11.5 20z" />
<glyph unicode="&#xc8;" horiz-adv-x="1011" d="M-10 141q0 318 446 615q-10 20 -10 43q0 27 12.5 60.5t30.5 55.5q46 65 131.5 116.5t177.5 76.5t174 25q89 0 146 -39.5t57 -128.5q0 -31 -13 -74t-36 -43q-19 0 -32 14t-13 33q0 13 4 36t4 34q0 88 -113 88q-85 0 -187 -30t-161 -79q-98 -77 -98 -151v-11q118 47 199 47 q28 0 58 -17t30 -46q0 -28 -37.5 -51t-79.5 -33t-70 -10q-63 0 -112 14q-166 -90 -267 -215q-135 -176 -135 -315q0 -70 42.5 -116.5t101.5 -64.5t131 -18q92 0 194.5 27t190.5 71q191 93 364 285q10 10 36.5 40.5t41.5 45.5q16 20 35 20q11 0 19 -8t8 -18t-7 -17 q-135 -230 -388 -381t-517 -151q-109 0 -197.5 39.5t-132.5 128.5q-28 54 -28 102zM608 741q103 5 103 23q-1 1 -2.5 0.5t-5 -1.5t-5.5 -1q-25 0 -90 -21zM809 1278q0 18 22 18q31 0 99.5 -45t68.5 -77q0 -29 -34 -29q-9 0 -21 6q-8 15 -10 27q-10 8 -66 47q-59 41 -59 53z " />
<glyph unicode="&#xc9;" horiz-adv-x="1011" d="M-10 141q0 318 446 615q-10 20 -10 43q0 27 12.5 60.5t30.5 55.5q46 65 131.5 116.5t177.5 76.5t174 25q89 0 146 -39.5t57 -128.5q0 -31 -13 -74t-36 -43q-19 0 -32 14t-13 33q0 13 4 36t4 34q0 88 -113 88q-85 0 -187 -30t-161 -79q-98 -77 -98 -151v-11q118 47 199 47 q28 0 58 -17t30 -46q0 -28 -37.5 -51t-79.5 -33t-70 -10q-63 0 -112 14q-166 -90 -267 -215q-135 -176 -135 -315q0 -70 42.5 -116.5t101.5 -64.5t131 -18q92 0 194.5 27t190.5 71q191 93 364 285q10 10 36.5 40.5t41.5 45.5q16 20 35 20q11 0 19 -8t8 -18t-7 -17 q-135 -230 -388 -381t-517 -151q-109 0 -197.5 39.5t-132.5 128.5q-28 54 -28 102zM608 741q103 5 103 23q-1 1 -2.5 0.5t-5 -1.5t-5.5 -1q-25 0 -90 -21zM748 1194q0 32 68 77.5t99 45.5q8 0 15.5 -5.5t7.5 -13.5q0 -7 -24.5 -27t-60 -44.5t-40.5 -28.5q-2 -12 -10 -27 q-12 -6 -23 -6q-32 0 -32 29z" />
<glyph unicode="&#xca;" horiz-adv-x="1011" d="M-10 141q0 318 446 615q-10 20 -10 43q0 27 12.5 60.5t30.5 55.5q46 65 131.5 116.5t177.5 76.5t174 25q89 0 146 -39.5t57 -128.5q0 -31 -13 -74t-36 -43q-19 0 -32 14t-13 33q0 13 4 36t4 34q0 88 -113 88q-85 0 -187 -30t-161 -79q-98 -77 -98 -151v-11q118 47 199 47 q28 0 58 -17t30 -46q0 -28 -37.5 -51t-79.5 -33t-70 -10q-63 0 -112 14q-166 -90 -267 -215q-135 -176 -135 -315q0 -70 42.5 -116.5t101.5 -64.5t131 -18q92 0 194.5 27t190.5 71q191 93 364 285q10 10 36.5 40.5t41.5 45.5q16 20 35 20q11 0 19 -8t8 -18t-7 -17 q-135 -230 -388 -381t-517 -151q-109 0 -197.5 39.5t-132.5 128.5q-28 54 -28 102zM608 741q103 5 103 23q-1 1 -2.5 0.5t-5 -1.5t-5.5 -1q-25 0 -90 -21zM850 1194q0 9 58.5 55.5t74.5 46.5q10 0 23 -13t21.5 -27t20.5 -35t15 -25q22 -22 22 -31q0 -7 -10 -12.5t-16 -5.5 q-7 0 -14 3t-12.5 6t-12.5 10.5t-10.5 12t-10 14.5t-8.5 14t-7.5 14.5t-6.5 11.5q-46 -26 -62 -62q-4 -16 -20 -16q-12 0 -28.5 12.5t-16.5 26.5z" />
<glyph unicode="&#xcb;" horiz-adv-x="1011" d="M-10 141q0 318 446 615q-10 20 -10 43q0 27 12.5 60.5t30.5 55.5q46 65 131.5 116.5t177.5 76.5t174 25q89 0 146 -39.5t57 -128.5q0 -31 -13 -74t-36 -43q-19 0 -32 14t-13 33q0 13 4 36t4 34q0 88 -113 88q-85 0 -187 -30t-161 -79q-98 -77 -98 -151v-11q118 47 199 47 q28 0 58 -17t30 -46q0 -28 -37.5 -51t-79.5 -33t-70 -10q-63 0 -112 14q-166 -90 -267 -215q-135 -176 -135 -315q0 -70 42.5 -116.5t101.5 -64.5t131 -18q92 0 194.5 27t190.5 71q191 93 364 285q10 10 36.5 40.5t41.5 45.5q16 20 35 20q11 0 19 -8t8 -18t-7 -17 q-135 -230 -388 -381t-517 -151q-109 0 -197.5 39.5t-132.5 128.5q-28 54 -28 102zM608 741q103 5 103 23q-1 1 -2.5 0.5t-5 -1.5t-5.5 -1q-25 0 -90 -21zM809 1217q0 17 14.5 27.5t30.5 10.5q20 0 37.5 -8.5t17.5 -27.5q0 -18 -18.5 -30.5t-34.5 -12.5q-15 0 -31 12t-16 29 zM920 1217q0 17 16 26.5t33 9.5q18 0 33.5 -8.5t15.5 -27.5t-19 -30t-34 -11q-18 0 -31.5 11.5t-13.5 29.5z" />
<glyph unicode="&#xcc;" horiz-adv-x="870" d="M-10 231q0 90 46.5 173t127.5 134.5t172 51.5q4 0 19.5 -5t15.5 -10q0 -3 -14 -14.5t-31 -19.5q-15 -6 -45 -21q-124 -67 -177 -170q-32 -63 -32 -145q0 -101 46 -148t146 -47q112 0 211.5 54.5t161.5 148.5q108 166 198.5 425t90.5 439v8q-37 -17 -166 -219 q-38 -64 -60 -121q-103 -251 -139 -358l4 4q35 35 51 35q4 0 10.5 -4.5t6.5 -9.5q0 -36 -43.5 -95t-79.5 -59q-45 0 -45 53q0 75 77.5 274t135.5 306q25 45 61.5 101t92.5 120.5t94 75.5q10 2 28 2q58 0 58 -43q0 -83 -14 -186.5t-44 -220t-72 -231.5t-103 -220t-132.5 -185 t-164.5 -128t-195 -48q-134 0 -215.5 84t-81.5 219zM850 1339q0 19 22 19q31 0 99.5 -45.5t68.5 -77.5q0 -29 -34 -29q-9 0 -21 6q-8 15 -10 27q-10 8 -66 47q-59 41 -59 53z" />
<glyph unicode="&#xcd;" horiz-adv-x="870" d="M-10 231q0 90 46.5 173t127.5 134.5t172 51.5q4 0 19.5 -5t15.5 -10q0 -3 -14 -14.5t-31 -19.5q-15 -6 -45 -21q-124 -67 -177 -170q-32 -63 -32 -145q0 -101 46 -148t146 -47q112 0 211.5 54.5t161.5 148.5q108 166 198.5 425t90.5 439v8q-37 -17 -166 -219 q-38 -64 -60 -121q-103 -251 -139 -358l4 4q35 35 51 35q4 0 10.5 -4.5t6.5 -9.5q0 -36 -43.5 -95t-79.5 -59q-45 0 -45 53q0 75 77.5 274t135.5 306q25 45 61.5 101t92.5 120.5t94 75.5q10 2 28 2q58 0 58 -43q0 -83 -14 -186.5t-44 -220t-72 -231.5t-103 -220t-132.5 -185 t-164.5 -128t-195 -48q-134 0 -215.5 84t-81.5 219zM850 1214q0 32 68.5 77.5t99.5 45.5q22 0 22 -18q0 -7 -24.5 -27t-60 -44.5t-40.5 -28.5q-2 -12 -10 -27q-12 -6 -22 -6q-33 0 -33 28z" />
<glyph unicode="&#xce;" horiz-adv-x="870" d="M-10 231q0 90 46.5 173t127.5 134.5t172 51.5q4 0 19.5 -5t15.5 -10q0 -3 -14 -14.5t-31 -19.5q-15 -6 -45 -21q-124 -67 -177 -170q-32 -63 -32 -145q0 -101 46 -148t146 -47q112 0 211.5 54.5t161.5 148.5q108 166 198.5 425t90.5 439v8q-37 -17 -166 -219 q-38 -64 -60 -121q-103 -251 -139 -358l4 4q35 35 51 35q4 0 10.5 -4.5t6.5 -9.5q0 -36 -43.5 -95t-79.5 -59q-45 0 -45 53q0 75 77.5 274t135.5 306q25 45 61.5 101t92.5 120.5t94 75.5q10 2 28 2q58 0 58 -43q0 -83 -14 -186.5t-44 -220t-72 -231.5t-103 -220t-132.5 -185 t-164.5 -128t-195 -48q-134 0 -215.5 84t-81.5 219zM850 1255q0 9 58.5 56t74.5 47q10 0 23 -13t21.5 -27.5t20.5 -35t15 -25.5q22 -22 22 -30q0 -7 -10 -13t-16 -6q-7 0 -14 3t-12.5 6t-12.5 10.5t-10.5 12t-10 14.5t-8.5 14t-7.5 14.5t-6.5 11.5q-46 -26 -62 -61 q-4 -16 -20 -16q-12 0 -28.5 12t-16.5 26z" />
<glyph unicode="&#xcf;" horiz-adv-x="870" d="M-10 231q0 90 46.5 173t127.5 134.5t172 51.5q4 0 19.5 -5t15.5 -10q0 -3 -14 -14.5t-31 -19.5q-15 -6 -45 -21q-124 -67 -177 -170q-32 -63 -32 -145q0 -101 46 -148t146 -47q112 0 211.5 54.5t161.5 148.5q108 166 198.5 425t90.5 439v8q-37 -17 -166 -219 q-38 -64 -60 -121q-103 -251 -139 -358l4 4q35 35 51 35q4 0 10.5 -4.5t6.5 -9.5q0 -36 -43.5 -95t-79.5 -59q-45 0 -45 53q0 75 77.5 274t135.5 306q25 45 61.5 101t92.5 120.5t94 75.5q10 2 28 2q58 0 58 -43q0 -83 -14 -186.5t-44 -220t-72 -231.5t-103 -220t-132.5 -185 t-164.5 -128t-195 -48q-134 0 -215.5 84t-81.5 219zM850 1257q0 17 15 28t30 11q20 0 37.5 -8.5t17.5 -27.5q0 -18 -18.5 -30.5t-34.5 -12.5t-31.5 11.5t-15.5 28.5zM961 1257q0 17 16.5 27t32.5 10q18 0 33.5 -9t15.5 -28t-19 -29.5t-34 -10.5q-18 0 -31.5 11t-13.5 29z " />
<glyph unicode="&#xd0;" horiz-adv-x="1292" d="M-10 -10q0 33 84 33q74 -3 149 6q126 222 256 434q-54 -4 -78 -4q-42 0 -86.5 18.5t-44.5 54.5q0 41 70 41q26 0 81 -4t83 -4h43q23 37 48 73t66 93t52 72q4 5 27.5 33.5t36.5 48t20 37.5q1 3 6 16t8.5 20.5t11.5 15t17 7.5q61 0 61 -37q0 -20 -13.5 -42.5t-38 -50.5 t-30.5 -36q-97 -132 -172 -246h31q22 0 53 -2.5t73 -9t70.5 -21.5t28.5 -36q0 -17 -16 -26t-33 -9q-33 0 -100 4t-101 4q-13 0 -36.5 -1t-34.5 -1q-42 -65 -136.5 -221.5t-115.5 -200.5q212 47 458 164q67 32 161 98.5t187 148.5t157.5 174t64.5 161q0 43 -27 77t-73 55 t-97 35.5t-110 21t-100.5 9t-78.5 2.5q-167 0 -356.5 -40.5t-320.5 -110.5q-32 -49 -91 -49q-23 0 -43 9.5t-20 31.5q0 15 10 28q26 43 108.5 79.5t184 59t214 39t198.5 23t137 6.5q50 0 111.5 -5.5t143.5 -23t147.5 -45t111 -76t45.5 -110.5q0 -79 -49 -167.5t-122 -164 t-164.5 -147.5t-169 -121t-142.5 -82q-198 -101 -490 -156q-14 -55 -49 -55q-14 0 -30 12.5t-25 26.5q-12 -2 -46 -6.5t-57.5 -7t-44.5 -2.5t-47 14.5t-26 34.5z" />
<glyph unicode="&#xd1;" horiz-adv-x="1062" d="M-10 -8q0 14 5.5 23.5t11 13.5t18.5 12q43 27 122 136.5t136 203.5q128 209 282 528q-8 64 47 64q29 0 54.5 -13.5t25.5 -39.5q0 -10 -2 -32t-2 -32q0 -61 4.5 -130t11 -151.5t9.5 -128.5q6 -92 6 -180q1 -8 1 -46.5t2 -69.5t7 -41q0 -3 4 -3q2 0 6.5 5t9.5 12.5t9.5 15 t8.5 14t5 7.5q42 73 110 219.5t122 262t132 237t152 182.5q42 35 115 57.5t131 22.5q41 0 41 -35q0 -22 -17.5 -36.5t-39.5 -14.5q-9 0 -28 4t-28 4q-32 0 -73.5 -21.5t-67.5 -48.5q-85 -88 -215 -342q-32 -63 -66 -134t-68 -144.5t-48 -102.5q-4 -8 -21 -43.5t-29 -60 t-29 -57t-32 -56t-27 -35.5q-32 -32 -65 -32q-47 0 -69.5 34.5t-22.5 79.5q0 340 -47 666q-150 -283 -209 -387q-156 -280 -250 -371q-55 -55 -98 -55q-35 0 -35 39zM809 1153q0 17 46 44.5t63 27.5q25 0 46.5 -32t43.5 -32q19 0 40 7.5t25 17.5q6 12 17 12q20 0 20 -18 q0 -27 -40.5 -48.5t-65.5 -21.5q-44 0 -62 35l-8 10q-7 14 -19 14q-18 0 -40.5 -21.5t-30.5 -21.5q-11 0 -23 7t-12 20z" />
<glyph unicode="&#xd2;" d="M-10 111q0 121 67 289.5t152 316.5q19 33 53.5 79.5t81 99.5t98 86.5t90.5 27.5q116 129 224 129q105 0 155 -58.5t50 -162.5q0 -128 -52.5 -256.5t-138.5 -235.5q-60 -75 -127 -143.5t-153.5 -139t-183 -113t-185.5 -42.5q-56 0 -93.5 33t-37.5 90zM74 111 q0 -30 6.5 -41t28.5 -11q113 0 253 90t254 219.5t192.5 280.5t78.5 266q0 60 -28.5 105t-82.5 45q-76 0 -172 -96q23 -30 23 -68q0 -47 -60.5 -193.5t-97.5 -146.5q-18 0 -18 19q0 16 49 129q49 112 49 163q0 19 -7 26t-24 7q-76 0 -184.5 -161.5t-184 -351.5t-75.5 -281z M707 1298q0 19 22 19q31 0 99.5 -45.5t68.5 -77.5q0 -29 -35 -29q-8 0 -20 6q-9 19 -11 27q-17 14 -65 47q-59 41 -59 53z" />
<glyph unicode="&#xd3;" d="M-10 111q0 121 67 289.5t152 316.5q19 33 53.5 79.5t81 99.5t98 86.5t90.5 27.5q116 129 224 129q105 0 155 -58.5t50 -162.5q0 -128 -52.5 -256.5t-138.5 -235.5q-60 -75 -127 -143.5t-153.5 -139t-183 -113t-185.5 -42.5q-56 0 -93.5 33t-37.5 90zM74 111 q0 -30 6.5 -41t28.5 -11q113 0 253 90t254 219.5t192.5 280.5t78.5 266q0 60 -28.5 105t-82.5 45q-76 0 -172 -96q23 -30 23 -68q0 -47 -60.5 -193.5t-97.5 -146.5q-18 0 -18 19q0 16 49 129q49 112 49 163q0 19 -7 26t-24 7q-76 0 -184.5 -161.5t-184 -351.5t-75.5 -281z M686 1194q0 32 68.5 77.5t99.5 45.5q8 0 15.5 -5.5t7.5 -13.5q0 -7 -24.5 -27t-60 -44.5t-40.5 -28.5q-2 -8 -11 -27q-12 -6 -22 -6q-33 0 -33 29z" />
<glyph unicode="&#xd4;" d="M-10 111q0 121 67 289.5t152 316.5q19 33 53.5 79.5t81 99.5t98 86.5t90.5 27.5q116 129 224 129q105 0 155 -58.5t50 -162.5q0 -128 -52.5 -256.5t-138.5 -235.5q-60 -75 -127 -143.5t-153.5 -139t-183 -113t-185.5 -42.5q-56 0 -93.5 33t-37.5 90zM74 111 q0 -30 6.5 -41t28.5 -11q113 0 253 90t254 219.5t192.5 280.5t78.5 266q0 60 -28.5 105t-82.5 45q-76 0 -172 -96q23 -30 23 -68q0 -47 -60.5 -193.5t-97.5 -146.5q-18 0 -18 19q0 16 49 129q49 112 49 163q0 19 -7 26t-24 7q-76 0 -184.5 -161.5t-184 -351.5t-75.5 -281z M686 1214q0 9 58.5 56t74.5 47q10 0 23 -13t21.5 -27t20.5 -35t15 -25q23 -23 23 -31q0 -7 -10.5 -13t-16.5 -6q-7 0 -14 3t-12.5 6t-12.5 10.5t-10.5 12t-10 14.5t-8.5 14t-7.5 14.5t-6.5 11.5q-45 -25 -61 -61q-4 -16 -21 -16q-12 0 -28.5 12t-16.5 26z" />
<glyph unicode="&#xd5;" d="M-10 111q0 121 67 289.5t152 316.5q19 33 53.5 79.5t81 99.5t98 86.5t90.5 27.5q116 129 224 129q105 0 155 -58.5t50 -162.5q0 -128 -52.5 -256.5t-138.5 -235.5q-60 -75 -127 -143.5t-153.5 -139t-183 -113t-185.5 -42.5q-56 0 -93.5 33t-37.5 90zM74 111 q0 -30 6.5 -41t28.5 -11q113 0 253 90t254 219.5t192.5 280.5t78.5 266q0 60 -28.5 105t-82.5 45q-76 0 -172 -96q23 -30 23 -68q0 -47 -60.5 -193.5t-97.5 -146.5q-18 0 -18 19q0 16 49 129q49 112 49 163q0 19 -7 26t-24 7q-76 0 -184.5 -161.5t-184 -351.5t-75.5 -281z M645 1214q0 17 46 44.5t63 27.5q25 0 46.5 -31.5t43.5 -31.5q19 0 40 7t25 17q7 13 17 13q20 0 20 -19q0 -27 -40.5 -48.5t-65.5 -21.5q-44 0 -62 35l-8 11q-7 14 -18 14q-18 0 -41 -21.5t-31 -21.5q-11 0 -23 6.5t-12 19.5z" />
<glyph unicode="&#xd6;" d="M-10 111q0 121 67 289.5t152 316.5q19 33 53.5 79.5t81 99.5t98 86.5t90.5 27.5q116 129 224 129q105 0 155 -58.5t50 -162.5q0 -128 -52.5 -256.5t-138.5 -235.5q-60 -75 -127 -143.5t-153.5 -139t-183 -113t-185.5 -42.5q-56 0 -93.5 33t-37.5 90zM74 111 q0 -30 6.5 -41t28.5 -11q113 0 253 90t254 219.5t192.5 280.5t78.5 266q0 60 -28.5 105t-82.5 45q-76 0 -172 -96q23 -30 23 -68q0 -47 -60.5 -193.5t-97.5 -146.5q-18 0 -18 19q0 16 49 129q49 112 49 163q0 19 -7 26t-24 7q-76 0 -184.5 -161.5t-184 -351.5t-75.5 -281z M666 1196q0 17 15 28t30 11q20 0 37.5 -9t17.5 -28q0 -18 -18.5 -30.5t-34.5 -12.5q-15 0 -31 12t-16 29zM776 1196q0 17 16.5 27t32.5 10q18 0 33.5 -9t15.5 -28t-19 -30t-34 -11q-18 0 -31.5 11.5t-13.5 29.5z" />
<glyph unicode="&#xd7;" horiz-adv-x="765" d="M31 397q0 14 24 40.5t64 58t76.5 58.5t76 55t47.5 34q-12 14 -36 44.5t-43.5 53.5t-38.5 43q-2 2 -21 19t-28.5 26.5t-24.5 26t-22 31t-7 26.5q0 15 11.5 25t25.5 10q17 0 36 -12.5t29.5 -24t29 -36t22.5 -29.5q21 -26 129 -158q3 2 44 35.5t73.5 58.5t74.5 56t71.5 49 t41.5 18q17 0 33 -10t16 -31q0 -41 -139 -129q-76 -49 -168 -102q34 -39 67.5 -75t91 -94t70.5 -71q29 -25 29 -49q0 -13 -9 -21t-20 -8q-25 0 -89.5 58t-114 112.5t-86.5 98.5q-89 -79 -148 -140q-11 -10 -30 -29.5t-35.5 -35t-32.5 -27.5q-20 -12 -35 -12q-23 0 -39 17.5 t-16 39.5z" />
<glyph unicode="&#xd8;" d="M-10 111q0 121 67 289.5t152 316.5q19 33 53.5 79.5t81 99.5t98 86.5t90.5 27.5q64 72 117 98q19 12 37 16q30 15 70 15q105 0 155 -58.5t50 -162.5q0 -128 -52.5 -256.5t-138.5 -235.5q-64 -80 -133.5 -152t-168 -146.5t-189.5 -109.5q-8 -4 -13 -4q-68 -26 -145 -26 q-56 0 -93.5 33t-37.5 90zM74 111q0 -30 6.5 -41t28.5 -11q42 0 114 21q29 75 116.5 276.5t121.5 276.5q14 33 41.5 98t40.5 98q6 24 6 43t-7 26t-24 7q-76 0 -184.5 -161.5t-184 -351.5t-75.5 -281zM344 137q133 81 259 218.5t205 290t79 269.5q0 60 -28.5 105t-82.5 45 q-20 0 -41 -6q-6 -23 -26.5 -61t-24.5 -48q-32 -66 -133 -297q-91 -210 -154 -372q-2 -7 -53 -144z" />
<glyph unicode="&#xd9;" horiz-adv-x="1185" d="M-10 879q0 21 33 26l10 2q12 2 29 9t38.5 20t39.5 24.5t43 29.5t38.5 28t36 27.5t25.5 19.5q193 145 249 145q25 0 48.5 -11.5t23.5 -39.5q0 -13 -8 -29q-11 -24 -76 -160.5t-116.5 -248.5t-112.5 -251.5t-96 -241.5t-35 -146q0 -12 3 -15.5t13 -3.5q55 0 147 73 t185.5 179.5t162.5 193t111 146.5q53 75 107 168q8 13 56 99.5t89.5 155t57.5 77.5q13 8 34 8q62 0 62 -39l-70 -147q-59 -127 -125 -282t-137.5 -355.5t-71.5 -273.5q0 -22 8 -31.5t29 -9.5q53 0 140 66t135 126q1 2 10 12.5t15.5 17.5t15.5 16t17 13.5t15 4.5q8 0 12.5 -6 t4.5 -11q0 -20 -39 -78q-118 -174 -305 -235q-28 -8 -41 -8q-42 0 -77.5 28t-35.5 72q0 178 166 571q-235 -370 -508 -553q-79 -52 -117 -65q-44 -14 -71 -14q-43 0 -66.5 26t-23.5 68q0 67 92 298t174.5 411t157.5 335q-5 -4 -33 -24t-48 -33.5t-55 -38t-62 -42.5 t-61.5 -40.5t-61.5 -38.5t-53 -30t-45 -21.5t-30 -7.5q-16 0 -34.5 9t-18.5 26zM727 1298q0 19 23 19q31 0 99.5 -45.5t68.5 -77.5q0 -29 -35 -29q-9 0 -21 6q-8 15 -10 27q-10 8 -66 47q-59 41 -59 53z" />
<glyph unicode="&#xda;" horiz-adv-x="1185" d="M-10 879q0 21 33 26l10 2q12 2 29 9t38.5 20t39.5 24.5t43 29.5t38.5 28t36 27.5t25.5 19.5q193 145 249 145q25 0 48.5 -11.5t23.5 -39.5q0 -13 -8 -29q-11 -24 -76 -160.5t-116.5 -248.5t-112.5 -251.5t-96 -241.5t-35 -146q0 -12 3 -15.5t13 -3.5q55 0 147 73 t185.5 179.5t162.5 193t111 146.5q53 75 107 168q8 13 56 99.5t89.5 155t57.5 77.5q13 8 34 8q62 0 62 -39l-70 -147q-59 -127 -125 -282t-137.5 -355.5t-71.5 -273.5q0 -22 8 -31.5t29 -9.5q53 0 140 66t135 126q1 2 10 12.5t15.5 17.5t15.5 16t17 13.5t15 4.5q8 0 12.5 -6 t4.5 -11q0 -20 -39 -78q-118 -174 -305 -235q-28 -8 -41 -8q-42 0 -77.5 28t-35.5 72q0 178 166 571q-235 -370 -508 -553q-79 -52 -117 -65q-44 -14 -71 -14q-43 0 -66.5 26t-23.5 68q0 67 92 298t174.5 411t157.5 335q-5 -4 -33 -24t-48 -33.5t-55 -38t-62 -42.5 t-61.5 -40.5t-61.5 -38.5t-53 -30t-45 -21.5t-30 -7.5q-16 0 -34.5 9t-18.5 26zM666 1194q0 32 68.5 77.5t99.5 45.5q8 0 15 -5.5t7 -13.5q0 -7 -24.5 -27t-60 -44.5t-40.5 -28.5q-2 -12 -10 -27q-12 -6 -23 -6q-32 0 -32 29z" />
<glyph unicode="&#xdb;" horiz-adv-x="1185" d="M-10 879q0 21 33 26l10 2q12 2 29 9t38.5 20t39.5 24.5t43 29.5t38.5 28t36 27.5t25.5 19.5q193 145 249 145q25 0 48.5 -11.5t23.5 -39.5q0 -13 -8 -29q-11 -24 -76 -160.5t-116.5 -248.5t-112.5 -251.5t-96 -241.5t-35 -146q0 -12 3 -15.5t13 -3.5q55 0 147 73 t185.5 179.5t162.5 193t111 146.5q53 75 107 168q8 13 56 99.5t89.5 155t57.5 77.5q13 8 34 8q62 0 62 -39l-70 -147q-59 -127 -125 -282t-137.5 -355.5t-71.5 -273.5q0 -22 8 -31.5t29 -9.5q53 0 140 66t135 126q1 2 10 12.5t15.5 17.5t15.5 16t17 13.5t15 4.5q8 0 12.5 -6 t4.5 -11q0 -20 -39 -78q-118 -174 -305 -235q-28 -8 -41 -8q-42 0 -77.5 28t-35.5 72q0 178 166 571q-235 -370 -508 -553q-79 -52 -117 -65q-44 -14 -71 -14q-43 0 -66.5 26t-23.5 68q0 67 92 298t174.5 411t157.5 335q-5 -4 -33 -24t-48 -33.5t-55 -38t-62 -42.5 t-61.5 -40.5t-61.5 -38.5t-53 -30t-45 -21.5t-30 -7.5q-16 0 -34.5 9t-18.5 26zM707 1235q0 9 58.5 55.5t74.5 46.5q10 0 23 -13t21.5 -27t20.5 -35t15 -25q22 -22 22 -31q0 -7 -10.5 -12.5t-16.5 -5.5q-8 0 -15.5 3t-15 9.5t-12.5 12t-12 16t-9.5 15.5t-9 16.5t-7.5 13.5 q-46 -26 -62 -62q-4 -16 -20 -16q-12 0 -28.5 12.5t-16.5 26.5z" />
<glyph unicode="&#xdc;" horiz-adv-x="1185" d="M-10 879q0 21 33 26l10 2q12 2 29 9t38.5 20t39.5 24.5t43 29.5t38.5 28t36 27.5t25.5 19.5q193 145 249 145q25 0 48.5 -11.5t23.5 -39.5q0 -13 -8 -29q-11 -24 -76 -160.5t-116.5 -248.5t-112.5 -251.5t-96 -241.5t-35 -146q0 -12 3 -15.5t13 -3.5q55 0 147 73 t185.5 179.5t162.5 193t111 146.5q53 75 107 168q8 13 56 99.5t89.5 155t57.5 77.5q13 8 34 8q62 0 62 -39l-70 -147q-59 -127 -125 -282t-137.5 -355.5t-71.5 -273.5q0 -22 8 -31.5t29 -9.5q53 0 140 66t135 126q1 2 10 12.5t15.5 17.5t15.5 16t17 13.5t15 4.5q8 0 12.5 -6 t4.5 -11q0 -20 -39 -78q-118 -174 -305 -235q-28 -8 -41 -8q-42 0 -77.5 28t-35.5 72q0 178 166 571q-235 -370 -508 -553q-79 -52 -117 -65q-44 -14 -71 -14q-43 0 -66.5 26t-23.5 68q0 67 92 298t174.5 411t157.5 335q-5 -4 -33 -24t-48 -33.5t-55 -38t-62 -42.5 t-61.5 -40.5t-61.5 -38.5t-53 -30t-45 -21.5t-30 -7.5q-16 0 -34.5 9t-18.5 26zM727 1237q0 17 15 28t30 11q20 0 37.5 -9t17.5 -28q0 -18 -18.5 -30.5t-34.5 -12.5q-15 0 -31 12t-16 29zM838 1237q0 17 16.5 27t32.5 10q18 0 33.5 -9t15.5 -28t-19 -30t-34 -11 q-18 0 -31.5 11.5t-13.5 29.5z" />
<glyph unicode="&#xdd;" horiz-adv-x="1325" d="M-10 690q0 11 7.5 20t20.5 9q11 0 23 -7.5t23 -17t33.5 -17t52.5 -7.5q122 0 300.5 95.5t294.5 199.5q2 2 15 14.5t22 21.5q5 6 39 44.5t60.5 67t31.5 30.5q8 4 25 4q20 0 40.5 -10t20.5 -29q0 -12 -75 -141q-8 -13 -40 -67t-52.5 -89t-57 -98t-61.5 -109.5t-58 -107.5 t-54.5 -108t-42 -94t-30.5 -83t-10 -59q0 -13 4 -18t15 -5q33 0 131 51q109 58 218.5 157.5t204 221.5t168.5 235t144 238q2 30 15.5 55t39.5 25q24 0 51 -15.5t27 -41.5q0 -2 -1 -6.5t-1 -6.5q-12 -34 -35 -137q-33 -139 -69 -248q-14 -41 -42.5 -135t-46.5 -145 q-29 -83 -57.5 -155.5t-70.5 -160.5t-86.5 -160t-104 -144.5t-124 -123.5t-145 -87t-167.5 -46q-18 -2 -58 -2q-55 0 -106.5 11t-98 34t-81.5 57t-55.5 83t-20.5 108q0 19 8.5 52.5t24.5 33.5q28 0 37 -78q18 -102 99.5 -162.5t188.5 -60.5q191 0 394 203q48 48 118 158 q238 367 318 858q-39 -60 -78 -116t-98.5 -135t-116.5 -145.5t-127 -135.5t-135 -117t-135.5 -78.5t-133.5 -30.5q-44 0 -73 21t-29 65q0 194 317 745q-354 -270 -598 -270q-30 0 -63 7.5t-63.5 30t-30.5 54.5zM1096 1153q0 32 68.5 77.5t99.5 45.5q8 0 15 -5.5t7 -13.5 q0 -7 -24.5 -27t-60 -44.5t-40.5 -28.5q-2 -12 -10 -27q-12 -6 -23 -6q-32 0 -32 29z" />
<glyph unicode="&#xde;" horiz-adv-x="935" d="M-96 862q0 18 12 33q101 6 333.5 27t356.5 26q2 2 26 32.5t37 48t33 45.5t32 48.5t16 34.5q21 53 51 53q18 0 25.5 -16t7.5 -35q0 -15 -4 -31t-13.5 -33.5t-17 -30.5t-23 -33t-22.5 -28.5t-24.5 -29t-20.5 -23.5q454 7 454 -174q0 -38 -26.5 -77.5t-68.5 -74t-105 -70 t-125.5 -64t-140 -58.5t-138.5 -50.5t-131.5 -42t-109 -32.5t-80.5 -22q-111 -173 -111 -213q0 -6 6 -6q11 0 38 21.5t40 21.5q10 0 15 -8t5 -17q0 -35 -38.5 -66.5t-71.5 -31.5q-29 0 -47.5 19t-18.5 48q0 65 84 203h-6q-15 -6 -31 -6q-20 0 -31.5 13t-11.5 32 q0 22 15 36.5t37 14.5q10 0 16 -2l4 -2h4q10 0 21 2t24 5.5t19 4.5q187 302 346 514q-32 0 -94 -4q-129 -8 -285 -28q-15 -2 -58.5 -8.5t-74 -9.5t-58.5 -3q-26 0 -48.5 11t-22.5 36zM301 381q76 22 155 47t195.5 69.5t202 87.5t148.5 97.5t63 103.5q0 17 -6 29 q-27 59 -320 59q-61 0 -92 -2q-143 -183 -346 -491z" />
<glyph unicode="&#xdf;" horiz-adv-x="440" d="M12 12q0 17 6 23q5 8 27.5 17t55.5 17.5t62.5 15t61 13t39.5 8.5q19 38 19 58q0 100 -150 192q-15 10 -23 26t-6 30q8 53 98 103t124 50q21 0 33 -10t8 -29q-4 -23 -82 -59.5t-90 -50.5q-4 -8 -1.5 -15.5t8.5 -13.5l5 -6q75 -60 109 -108q38 -54 38 -101q0 -11 -4 -39 q111 47 180 160q7 10 20.5 32.5t20.5 32.5q8 12 25.5 28.5t28.5 16.5q16 0 16 -18q0 -8 -4 -20q-8 -16 -10 -19q-59 -114 -130.5 -184t-181.5 -105q-68 -96 -204 -96q-32 0 -65.5 11.5t-33.5 39.5zM123 18h8q22 0 51 11l-26 -4q-5 -1 -16.5 -3.5t-16.5 -3.5z" />
<glyph unicode="&#xe0;" horiz-adv-x="673" d="M-10 94q0 44 52 144t89 149q123 172 240 172q35 0 59.5 -15.5t24.5 -51.5q0 -3 -4 -23q4 2 12 2q19 0 35 -8.5t16 -26.5q0 -11 -20 -61q-70 -186 -70 -250q0 -37 35 -37t85.5 36t99.5 87t94 102t79 87t45 36q7 0 12 -5t5 -11q0 -11 -9 -29q-15 -42 -73 -115 q-32 -42 -67.5 -81.5t-85 -87t-102 -76.5t-96.5 -29q-57 0 -80.5 40.5t-23.5 98.5q0 47 12 90q-221 -221 -293 -221q-26 0 -48.5 30t-22.5 54zM76 109q38 3 107.5 62t119.5 114q27 29 68 100q-13 22 -13 33q0 9 3.5 27.5t3.5 27.5q0 8 -7 8q-32 0 -91.5 -59t-92.5 -107 q-24 -33 -59.5 -104t-38.5 -102zM256 705q0 18 23 18q31 0 99 -45.5t68 -77.5q0 -29 -34 -29q-7 0 -21 7q-8 16 -10 26q-10 8 -66 47q-24 17 -41.5 33t-17.5 21z" />
<glyph unicode="&#xe1;" horiz-adv-x="673" d="M-10 94q0 44 52 144t89 149q123 172 240 172q35 0 59.5 -15.5t24.5 -51.5q0 -3 -4 -23q4 2 12 2q19 0 35 -8.5t16 -26.5q0 -11 -20 -61q-70 -186 -70 -250q0 -37 35 -37t85.5 36t99.5 87t94 102t79 87t45 36q7 0 12 -5t5 -11q0 -11 -9 -29q-15 -42 -73 -115 q-32 -42 -67.5 -81.5t-85 -87t-102 -76.5t-96.5 -29q-57 0 -80.5 40.5t-23.5 98.5q0 47 12 90q-221 -221 -293 -221q-26 0 -48.5 30t-22.5 54zM76 109q38 3 107.5 62t119.5 114q27 29 68 100q-13 22 -13 33q0 9 3.5 27.5t3.5 27.5q0 8 -7 8q-32 0 -91.5 -59t-92.5 -107 q-24 -33 -59.5 -104t-38.5 -102zM297 580q0 32 68.5 77t99.5 45q22 0 22 -18q0 -7 -24.5 -27t-60 -44.5t-40.5 -28.5q-2 -12 -10 -27q-12 -6 -22 -6q-33 0 -33 29z" />
<glyph unicode="&#xe2;" horiz-adv-x="673" d="M-10 94q0 44 52 144t89 149q123 172 240 172q35 0 59.5 -15.5t24.5 -51.5q0 -3 -4 -23q4 2 12 2q19 0 35 -8.5t16 -26.5q0 -11 -20 -61q-70 -186 -70 -250q0 -37 35 -37t85.5 36t99.5 87t94 102t79 87t45 36q7 0 12 -5t5 -11q0 -11 -9 -29q-15 -42 -73 -115 q-32 -42 -67.5 -81.5t-85 -87t-102 -76.5t-96.5 -29q-57 0 -80.5 40.5t-23.5 98.5q0 47 12 90q-221 -221 -293 -221q-26 0 -48.5 30t-22.5 54zM76 109q38 3 107.5 62t119.5 114q27 29 68 100q-13 22 -13 33q0 9 3.5 27.5t3.5 27.5q0 8 -7 8q-32 0 -91.5 -59t-92.5 -107 q-24 -33 -59.5 -104t-38.5 -102zM256 600q0 9 58.5 55.5t74.5 46.5q10 0 23 -13t21.5 -27t20.5 -35t15 -25q23 -23 23 -31q0 -7 -10.5 -12.5t-16.5 -5.5q-7 0 -14 3t-12.5 6t-12.5 10.5t-10.5 12t-10 14.5t-8.5 14t-7.5 14.5t-6.5 11.5q-45 -25 -61 -61q-4 -17 -21 -17 q-12 0 -28.5 12.5t-16.5 26.5z" />
<glyph unicode="&#xe3;" horiz-adv-x="673" d="M-10 94q0 44 52 144t89 149q123 172 240 172q35 0 59.5 -15.5t24.5 -51.5q0 -3 -4 -23q4 2 12 2q19 0 35 -8.5t16 -26.5q0 -11 -20 -61q-70 -186 -70 -250q0 -37 35 -37t85.5 36t99.5 87t94 102t79 87t45 36q7 0 12 -5t5 -11q0 -11 -9 -29q-15 -42 -73 -115 q-32 -42 -67.5 -81.5t-85 -87t-102 -76.5t-96.5 -29q-57 0 -80.5 40.5t-23.5 98.5q0 47 12 90q-221 -221 -293 -221q-26 0 -48.5 30t-22.5 54zM76 109q38 3 107.5 62t119.5 114q27 29 68 100q-13 22 -13 33q0 9 3.5 27.5t3.5 27.5q0 8 -7 8q-32 0 -91.5 -59t-92.5 -107 q-24 -33 -59.5 -104t-38.5 -102zM215 621q0 17 46 44t63 27q25 0 46.5 -31.5t43.5 -31.5q19 0 40 7t25 17q7 13 17 13q20 0 20 -19q0 -27 -40 -48t-66 -21q-45 0 -62 34l-8 11q-7 14 -18 14q-18 0 -41 -21.5t-31 -21.5q-11 0 -23 7t-12 20z" />
<glyph unicode="&#xe4;" horiz-adv-x="673" d="M-10 94q0 44 52 144t89 149q123 172 240 172q35 0 59.5 -15.5t24.5 -51.5q0 -3 -4 -23q4 2 12 2q19 0 35 -8.5t16 -26.5q0 -11 -20 -61q-70 -186 -70 -250q0 -37 35 -37t85.5 36t99.5 87t94 102t79 87t45 36q7 0 12 -5t5 -11q0 -11 -9 -29q-15 -42 -73 -115 q-32 -42 -67.5 -81.5t-85 -87t-102 -76.5t-96.5 -29q-57 0 -80.5 40.5t-23.5 98.5q0 47 12 90q-221 -221 -293 -221q-26 0 -48.5 30t-22.5 54zM76 109q38 3 107.5 62t119.5 114q27 29 68 100q-13 22 -13 33q0 9 3.5 27.5t3.5 27.5q0 8 -7 8q-32 0 -91.5 -59t-92.5 -107 q-24 -33 -59.5 -104t-38.5 -102zM256 623q0 17 15 28t30 11q20 0 37.5 -9t17.5 -28q0 -18 -18.5 -30.5t-34.5 -12.5q-15 0 -31 12t-16 29zM367 623q0 17 16 26.5t33 9.5q18 0 33.5 -8.5t15.5 -27.5t-19 -30t-34 -11q-18 0 -31.5 11.5t-13.5 29.5z" />
<glyph unicode="&#xe5;" horiz-adv-x="673" d="M-10 94q0 44 52 144t89 149q123 172 240 172q35 0 59.5 -15.5t24.5 -51.5q0 -3 -4 -23q4 2 12 2q19 0 35 -8.5t16 -26.5q0 -11 -20 -61q-70 -186 -70 -250q0 -37 35 -37t85.5 36t99.5 87t94 102t79 87t45 36q7 0 12 -5t5 -11q0 -11 -9 -29q-15 -42 -73 -115 q-32 -42 -67.5 -81.5t-85 -87t-102 -76.5t-96.5 -29q-57 0 -80.5 40.5t-23.5 98.5q0 47 12 90q-221 -221 -293 -221q-26 0 -48.5 30t-22.5 54zM76 109q38 3 107.5 62t119.5 114q27 29 68 100q-13 22 -13 33q0 9 3.5 27.5t3.5 27.5q0 8 -7 8q-32 0 -91.5 -59t-92.5 -107 q-24 -33 -59.5 -104t-38.5 -102zM297 559q0 25 15 53.5t42 28.5q10 0 20.5 -5.5t10.5 -14.5q0 -5 -19.5 -27t-19.5 -35q24 0 64.5 30t40.5 50t-56 20q-10 0 -31.5 -4t-31.5 -4q-3 0 -7.5 1t-9 6t-4.5 12q0 13 33.5 22.5t50.5 9.5q21 0 43.5 -4.5t44 -18t21.5 -34.5 q0 -41 -56 -87t-96 -46q-23 0 -39 11.5t-16 35.5z" />
<glyph unicode="&#xe6;" horiz-adv-x="905" d="M-4 63q0 44 52 144t89 149q123 172 240 172q35 0 59.5 -15.5t24.5 -51.5q0 -3 -4 -23q4 2 12 2q19 0 35 -8t16 -26q0 -12 -20 -62q-39 -99 -60 -178q48 121 130.5 231.5t148.5 110.5q39 0 66.5 -34t27.5 -73q0 -41 -27 -80t-65 -63q-30 -20 -87.5 -46t-98.5 -36 q-39 -83 -39 -123q0 -10 2 -12t10 -2q123 10 282 119t242 223q16 22 29 22q16 0 16 -20q0 -25 -16 -49q-81 -121 -231.5 -228t-288.5 -137q-10 -2 -27 -2q-13 0 -33 4h-28q-57 0 -81 41.5t-24 98.5q0 47 12 90q-221 -221 -292 -221q-26 0 -49 29.5t-23 53.5zM82 78 q38 3 107.5 62t119.5 114q27 29 68 100q-12 20 -12 33q0 9 3 27.5t3 27.5t-6 9q-32 0 -92.5 -59.5t-92.5 -106.5q-24 -33 -59.5 -104.5t-38.5 -102.5zM588 274q56 19 94 52q57 57 57 92q0 8 -6 8q-26 0 -65 -42.5t-80 -109.5z" />
<glyph unicode="&#xe7;" horiz-adv-x="495" d="M-57 -301q0 18 32 18q51 26 110.5 77t59.5 85q0 12 -16 12q-17 0 -48 -12t-46 -12q-11 0 -19 16t-8 27q0 15 5.5 20.5t16.5 7.5t15 5q14 9 36 36t28 44q5 20 24 20q13 0 22 -11t9 -22q0 -26 -47 -67h4q25 0 50.5 -13.5t25.5 -40.5q0 -46 -89 -131.5t-133 -85.5 q-9 0 -20.5 7t-11.5 20zM-18 109q0 23 6 47q20 82 124 216t181 183q26 16 57 16q28 0 52 -17.5t24 -47.5q0 -29 -21.5 -101.5t-39.5 -91.5q-19 -24 -46 -24q-11 0 -18.5 7t-7.5 19q0 10 24 74q25 60 25 82q0 10 -6 10q-30 0 -84.5 -62t-89.5 -114q-31 -46 -59.5 -107 t-28.5 -98q0 -22 18 -22q71 0 150.5 29t152.5 77.5t135 101t115 109.5l8 8q20 25 37 25q15 0 15 -14q0 -10 -7 -21q-26 -56 -97 -125.5t-156.5 -128t-178 -99t-155.5 -40.5q-56 0 -92.5 26.5t-36.5 82.5z" />
<glyph unicode="&#xe8;" horiz-adv-x="438" d="M-35 57q0 38 30.5 113.5t74 150.5t99.5 131t101 56q39 0 67 -34t28 -73q0 -41 -27.5 -80t-65.5 -63q-30 -19 -87 -45.5t-97 -36.5q-41 -87 -41 -123q0 -10 2.5 -12t11.5 -2q122 10 281.5 119t241.5 223q16 22 28 22q8 0 12.5 -7t4.5 -13q0 -23 -17 -49 q-81 -121 -231.5 -228t-288.5 -137q-8 -2 -26 -2q-38 0 -69.5 25.5t-31.5 64.5zM139 274q60 21 94 52q58 58 58 92q0 8 -6 8q-26 0 -65.5 -42.5t-80.5 -109.5zM174 643q0 19 23 19q31 0 99.5 -45.5t68.5 -77.5q0 -29 -35 -29q-9 0 -21 6q-8 15 -10 27q-10 8 -66 47 q-59 41 -59 53z" />
<glyph unicode="&#xe9;" horiz-adv-x="438" d="M-35 57q0 38 30.5 113.5t74 150.5t99.5 131t101 56q39 0 67 -34t28 -73q0 -41 -27.5 -80t-65.5 -63q-30 -19 -87 -45.5t-97 -36.5q-41 -87 -41 -123q0 -10 2.5 -12t11.5 -2q122 10 281.5 119t241.5 223q16 22 28 22q8 0 12.5 -7t4.5 -13q0 -23 -17 -49 q-81 -121 -231.5 -228t-288.5 -137q-8 -2 -26 -2q-38 0 -69.5 25.5t-31.5 64.5zM139 274q60 21 94 52q58 58 58 92q0 8 -6 8q-26 0 -65.5 -42.5t-80.5 -109.5zM195 539q0 32 68 77.5t99 45.5q8 0 15.5 -5.5t7.5 -13.5q0 -7 -24.5 -27t-60 -44.5t-40.5 -28.5q-2 -12 -10 -27 q-12 -6 -23 -6q-32 0 -32 29z" />
<glyph unicode="&#xea;" horiz-adv-x="438" d="M-35 57q0 38 30.5 113.5t74 150.5t99.5 131t101 56q39 0 67 -34t28 -73q0 -41 -27.5 -80t-65.5 -63q-30 -19 -87 -45.5t-97 -36.5q-41 -87 -41 -123q0 -10 2.5 -12t11.5 -2q122 10 281.5 119t241.5 223q16 22 28 22q8 0 12.5 -7t4.5 -13q0 -23 -17 -49 q-81 -121 -231.5 -228t-288.5 -137q-8 -2 -26 -2q-38 0 -69.5 25.5t-31.5 64.5zM139 274q60 21 94 52q58 58 58 92q0 8 -6 8q-26 0 -65.5 -42.5t-80.5 -109.5zM154 559q0 9 58.5 56t74.5 47q10 0 23 -13t21.5 -27.5t20.5 -35t15 -25.5q22 -22 22 -31q0 -7 -10.5 -12.5 t-16.5 -5.5q-8 0 -15.5 3t-15 9.5t-12.5 12t-12 16t-9.5 15.5t-9 16.5t-7.5 13.5q-46 -26 -62 -61q-4 -17 -20 -17q-12 0 -28.5 12.5t-16.5 26.5z" />
<glyph unicode="&#xeb;" horiz-adv-x="438" d="M-35 57q0 38 30.5 113.5t74 150.5t99.5 131t101 56q39 0 67 -34t28 -73q0 -41 -27.5 -80t-65.5 -63q-30 -19 -87 -45.5t-97 -36.5q-41 -87 -41 -123q0 -10 2.5 -12t11.5 -2q122 10 281.5 119t241.5 223q16 22 28 22q8 0 12.5 -7t4.5 -13q0 -23 -17 -49 q-81 -121 -231.5 -228t-288.5 -137q-8 -2 -26 -2q-38 0 -69.5 25.5t-31.5 64.5zM139 274q60 21 94 52q58 58 58 92q0 8 -6 8q-26 0 -65.5 -42.5t-80.5 -109.5zM174 561q0 17 15 28t30 11q20 0 37.5 -9t17.5 -28q0 -18 -18.5 -30.5t-34.5 -12.5q-15 0 -31 12t-16 29zM285 561 q0 17 16.5 27t32.5 10q18 0 33.5 -9t15.5 -28t-19 -30t-34 -11q-18 0 -31.5 11.5t-13.5 29.5z" />
<glyph unicode="&#xec;" horiz-adv-x="344" d="M23 98q0 44 18 103q11 40 64 155t73 123q16 4 25 4q16 0 32.5 -10t16.5 -27q0 -20 -72 -159q-67 -138 -67 -181q0 -11 3.5 -13.5t16.5 -2.5q119 0 359 303q31 31 45 31q9 0 14.5 -7.5t5.5 -15.5q0 -10 -8 -26q-6 -12 -12 -21q-69 -109 -160 -198t-195 -133 q-43 -17 -76 -17q-42 0 -62.5 25t-20.5 67zM195 643q0 19 22 19q31 0 99.5 -45.5t68.5 -77.5q0 -29 -35 -29q-8 0 -20 6q-9 19 -11 27q-17 14 -65 47q-59 41 -59 53z" />
<glyph unicode="&#xed;" horiz-adv-x="344" d="M23 98q0 44 18 103q11 40 64 155t73 123q16 4 25 4q16 0 32.5 -10t16.5 -27q0 -20 -72 -159q-67 -138 -67 -181q0 -11 3.5 -13.5t16.5 -2.5q119 0 359 303q31 31 45 31q9 0 14.5 -7.5t5.5 -15.5q0 -10 -8 -26q-6 -12 -12 -21q-69 -109 -160 -198t-195 -133 q-43 -17 -76 -17q-42 0 -62.5 25t-20.5 67zM133 518q0 32 68.5 77.5t99.5 45.5q9 0 16 -5t7 -13q0 -7 -24.5 -27t-60.5 -45.5t-40 -28.5q-1 -7 -11 -26q-14 -7 -22 -7q-33 0 -33 29z" />
<glyph unicode="&#xee;" horiz-adv-x="344" d="M23 98q0 44 18 103q11 40 64 155t73 123q16 4 25 4q16 0 32.5 -10t16.5 -27q0 -20 -72 -159q-67 -138 -67 -181q0 -11 3.5 -13.5t16.5 -2.5q119 0 359 303q31 31 45 31q9 0 14.5 -7.5t5.5 -15.5q0 -10 -8 -26q-6 -12 -12 -21q-69 -109 -160 -198t-195 -133 q-43 -17 -76 -17q-42 0 -62.5 25t-20.5 67zM133 559q0 9 58.5 56t74.5 47q10 0 23 -13t21.5 -27.5t20.5 -35t15 -25.5q23 -23 23 -31q0 -7 -10.5 -12.5t-16.5 -5.5q-7 0 -14 3t-12.5 6t-12.5 10.5t-10.5 12t-10 14.5t-8.5 14t-7.5 14.5t-6.5 11.5q-45 -25 -61 -61 q-4 -17 -21 -17q-12 0 -28.5 12.5t-16.5 26.5z" />
<glyph unicode="&#xef;" horiz-adv-x="344" d="M23 98q0 44 18 103q11 40 64 155t73 123q16 4 25 4q16 0 32.5 -10t16.5 -27q0 -20 -72 -159q-67 -138 -67 -181q0 -11 3.5 -13.5t16.5 -2.5q119 0 359 303q31 31 45 31q9 0 14.5 -7.5t5.5 -15.5q0 -10 -8 -26q-6 -12 -12 -21q-69 -109 -160 -198t-195 -133 q-43 -17 -76 -17q-42 0 -62.5 25t-20.5 67zM174 582q0 17 15 28t30 11q20 0 37.5 -9t17.5 -28q0 -18 -18.5 -30.5t-34.5 -12.5q-15 0 -31 12t-16 29zM285 582q0 17 16 26.5t33 9.5q18 0 33.5 -8.5t15.5 -27.5t-19 -30t-34 -11q-18 0 -31.5 11.5t-13.5 29.5z" />
<glyph unicode="&#xf0;" horiz-adv-x="722" d="M-35 16q0 62 50 168t117.5 198t117.5 126q56 35 98 35q57 0 85.5 -40t31.5 -97q13 32 40 94t36 86q30 78 63 135l4 8q-44 -23 -67 -31q-45 -18 -72 4q-21 18 -1 36q8 7 21 12t39.5 13t38.5 13q8 3 39 16.5t49 20.5q152 254 201 277q20 10 41 10q32 0 53 -24.5t21 -55.5 q0 -69 -156.5 -294.5t-298.5 -389.5q-65 -172 -65 -242q0 -15 5 -18.5t25 -3.5q46 0 102 35.5t109 93.5t86 100t64 86q25 35 43 35q8 0 13 -7.5t5 -15.5q0 -9 -12 -39q-27 -50 -73 -110t-103.5 -118.5t-124 -98t-121.5 -39.5q-100 0 -100 88q0 55 24 131 q-249 -222 -309 -238q-27 -10 -51 -10q-26 0 -47 11.5t-21 39.5zM45 43q23 0 66 31q131 81 284 241q-8 8 -8 25q0 8 2 25t2 26q0 25 -12 44.5t-31 19.5q-45 0 -117 -78q-37 -35 -111.5 -165t-74.5 -169zM598 545q27 32 82 108q47 65 129 199t82 166q8 0 8 -6 q-27 0 -147 -183q23 -5 22 -22t-22 -25q-6 -3 -39 -14q-60 -94 -115 -223z" />
<glyph unicode="&#xf1;" horiz-adv-x="630" d="M-25 55q0 12 41.5 100t90 188t57.5 124q11 29 35 29q21 0 32 -18.5t11 -37.5q0 -50 -109 -245q22 25 68 75t69 76q6 6 46 53t73 82.5t43 38.5q0 2 4 2h2q24 0 55 -17t31 -40q0 -12 -2 -16q-7 -16 -31 -73t-37 -89.5t-25.5 -80.5t-12.5 -83q0 -45 28 -45q39 0 88 34.5 t92.5 84t82 99t67.5 84t39 34.5q7 0 11.5 -7t4.5 -14q0 -25 -26 -67q-24 -39 -66.5 -91t-95.5 -107.5t-112 -93.5t-103 -38q-50 0 -73 41.5t-23 89.5q0 87 63 250q-81 -101 -192 -226t-144 -137q-8 -4 -26 -4q-23 0 -39.5 10.5t-16.5 34.5zM236 600q0 17 46 44.5t62 27.5 q25 0 46.5 -32t43.5 -32q19 0 40.5 7.5t25.5 17.5q6 12 16 12q21 0 21 -18q0 -27 -41 -48.5t-66 -21.5q-44 0 -61 35l-9 10q-7 14 -18 14q-18 0 -41 -21.5t-31 -21.5q-11 0 -22.5 7t-11.5 20z" />
<glyph unicode="&#xf2;" horiz-adv-x="514" d="M45 74q0 81 17.5 154t78.5 180q6 13 22 28t32 15q22 0 22 -29q0 -9 -8.5 -37.5t-20 -63.5t-12.5 -38q-43 -123 -43 -195q0 -35 27 -35q20 0 46.5 17t39.5 29t37 36q17 17 28 39q-43 15 -68.5 51t-25.5 86t32 107t83 57t79.5 -43t28.5 -92q0 -54 -18 -109q48 3 109 45 t104.5 82.5t48.5 40.5q14 0 14 -18q0 -13 -6 -25q-33 -71 -124 -128.5t-173 -65.5q-32 -60 -73 -101q-100 -100 -179 -100q-46 0 -72 34t-26 79zM291 307q0 -49 49 -69q14 41 14 90q0 82 -24 82q-19 0 -29 -37.5t-10 -65.5zM297 623q0 18 22 18q31 0 99.5 -45.5t68.5 -77.5 q0 -29 -34 -29q-7 0 -21 7q-8 16 -10 26q-10 8 -66 47q-24 17 -41.5 33t-17.5 21z" />
<glyph unicode="&#xf3;" horiz-adv-x="514" d="M45 74q0 81 17.5 154t78.5 180q6 13 22 28t32 15q22 0 22 -29q0 -9 -8.5 -37.5t-20 -63.5t-12.5 -38q-43 -123 -43 -195q0 -35 27 -35q20 0 46.5 17t39.5 29t37 36q17 17 28 39q-43 15 -68.5 51t-25.5 86t32 107t83 57t79.5 -43t28.5 -92q0 -54 -18 -109q48 3 109 45 t104.5 82.5t48.5 40.5q14 0 14 -18q0 -13 -6 -25q-33 -71 -124 -128.5t-173 -65.5q-32 -60 -73 -101q-100 -100 -179 -100q-46 0 -72 34t-26 79zM215 518q0 32 68.5 77.5t99.5 45.5q9 0 16 -5t7 -13q0 -7 -24.5 -27t-60.5 -45.5t-40 -28.5q-1 -7 -11 -26q-14 -7 -22 -7 q-33 0 -33 29zM291 307q0 -49 49 -69q14 41 14 90q0 82 -24 82q-19 0 -29 -37.5t-10 -65.5z" />
<glyph unicode="&#xf4;" horiz-adv-x="514" d="M45 74q0 81 17.5 154t78.5 180q6 13 22 28t32 15q22 0 22 -29q0 -9 -8.5 -37.5t-20 -63.5t-12.5 -38q-43 -123 -43 -195q0 -35 27 -35q20 0 46.5 17t39.5 29t37 36q17 17 28 39q-43 15 -68.5 51t-25.5 86t32 107t83 57t79.5 -43t28.5 -92q0 -54 -18 -109q48 3 109 45 t104.5 82.5t48.5 40.5q14 0 14 -18q0 -13 -6 -25q-33 -71 -124 -128.5t-173 -65.5q-32 -60 -73 -101q-100 -100 -179 -100q-46 0 -72 34t-26 79zM215 539q0 9 58.5 55.5t74.5 46.5q10 0 23 -13t21.5 -27t20.5 -35t15 -25q23 -23 23 -31q0 -7 -10.5 -12.5t-16.5 -5.5 q-7 0 -14 3t-12.5 6t-12.5 10.5t-10.5 12t-10 14.5t-8.5 14t-7.5 14.5t-6.5 11.5q-45 -25 -61 -62q-4 -16 -21 -16q-12 0 -28.5 12.5t-16.5 26.5zM291 307q0 -49 49 -69q14 41 14 90q0 82 -24 82q-19 0 -29 -37.5t-10 -65.5z" />
<glyph unicode="&#xf5;" horiz-adv-x="514" d="M45 74q0 81 17.5 154t78.5 180q6 13 22 28t32 15q22 0 22 -29q0 -9 -8.5 -37.5t-20 -63.5t-12.5 -38q-43 -123 -43 -195q0 -35 27 -35q20 0 46.5 17t39.5 29t37 36q17 17 28 39q-43 15 -68.5 51t-25.5 86t32 107t83 57t79.5 -43t28.5 -92q0 -54 -18 -109q48 3 109 45 t104.5 82.5t48.5 40.5q14 0 14 -18q0 -13 -6 -25q-33 -71 -124 -128.5t-173 -65.5q-32 -60 -73 -101q-100 -100 -179 -100q-46 0 -72 34t-26 79zM195 539q0 17 45.5 44t62.5 27q25 0 46.5 -31.5t43.5 -31.5q19 0 40.5 7t25.5 17q7 13 16 13q21 0 21 -19q0 -27 -40.5 -48 t-66.5 -21q-44 0 -61 34l-9 11q-7 14 -18 14q-18 0 -41 -21.5t-31 -21.5q-11 0 -22.5 7t-11.5 20zM291 307q0 -49 49 -69q14 41 14 90q0 82 -24 82q-19 0 -29 -37.5t-10 -65.5z" />
<glyph unicode="&#xf6;" horiz-adv-x="514" d="M45 74q0 81 17.5 154t78.5 180q6 13 22 28t32 15q22 0 22 -29q0 -9 -8.5 -37.5t-20 -63.5t-12.5 -38q-43 -123 -43 -195q0 -35 27 -35q20 0 46.5 17t39.5 29t37 36q17 17 28 39q-43 15 -68.5 51t-25.5 86t32 107t83 57t79.5 -43t28.5 -92q0 -54 -18 -109q48 3 109 45 t104.5 82.5t48.5 40.5q14 0 14 -18q0 -13 -6 -25q-33 -71 -124 -128.5t-173 -65.5q-32 -60 -73 -101q-100 -100 -179 -100q-46 0 -72 34t-26 79zM236 541q0 17 15 28t30 11q20 0 37.5 -9t17.5 -28q0 -18 -18.5 -30.5t-34.5 -12.5q-15 0 -31 12t-16 29zM291 307q0 -49 49 -69 q14 41 14 90q0 82 -24 82q-19 0 -29 -37.5t-10 -65.5zM346 541q0 17 16.5 27t32.5 10q18 0 33.5 -9t15.5 -28t-19 -30t-34 -11q-18 0 -31.5 11.5t-13.5 29.5z" />
<glyph unicode="&#xf7;" horiz-adv-x="731" d="M76 352q1 7 4 12t5.5 8.5t8.5 6t8.5 4t10.5 2t10 0.5h11.5h10.5q26 0 62.5 -2t64.5 -2t87 2t87 2q1 0 46.5 2.5t74.5 1.5q105 -4 105 -49q0 -17 -16.5 -26t-34.5 -9q-33 0 -100 5t-101 5q-42 0 -107.5 -10t-107.5 -10q-37 0 -85 18t-44 39zM270 193q0 34 27.5 50.5 t60.5 16.5q91 0 91 -61q0 -44 -30.5 -66t-74.5 -22q-28 0 -51 28t-23 54zM276 489q0 34 28 51t61 17q90 0 90 -61q0 -44 -30.5 -66t-74.5 -22q-28 0 -51 27.5t-23 53.5z" />
<glyph unicode="&#xf8;" horiz-adv-x="425" d="M57 135q0 64 36 161t77 153q32 38 53 38q13 0 19 -9.5t6 -18.5q0 -8 -10.5 -34.5t-25 -58.5t-15.5 -36q-52 -114 -52 -180q0 -37 27 -37q2 0 6 1t6 1q0 7 15 94q23 94 32 151q-2 10 -2 33q0 52 31 109t82 57q52 0 80.5 -42.5t28.5 -92.5q0 -46 -17 -105q68 18 154 113 q1 0 12 11.5t16 11.5q7 0 11 -7t4 -14q0 -13 -15 -43q-91 -131 -210 -145q-38 -74 -80 -119q-99 -104 -170 -104q-47 0 -73 33.5t-26 78.5zM244 156q52 52 78 100q-29 13 -50 31v-4q-27 -121 -28 -127zM301 391q0 -49 49 -69q17 49 17 90q0 82 -25 82q-19 0 -30 -38t-11 -65 z" />
<glyph unicode="&#xf9;" horiz-adv-x="608" d="M29 90q0 50 12 103.5t39.5 115t44.5 96.5t53 101q10 18 35 18q19 0 31 -10t12 -29q0 -9 -16 -45t-37 -78t-23 -47q-74 -156 -74 -202q0 -13 7 -13q23 0 73 45t108 113t94.5 112.5t62.5 78.5q2 19 14.5 34t32.5 15q18 0 36.5 -10.5t18.5 -28.5q0 -10 -15.5 -46 t-36.5 -79.5t-22 -46.5q-69 -158 -69 -205q0 -1 -1 -4q1 -5 3 -6q45 0 108 52.5t113 115.5t94 115.5t57 52.5q9 0 14 -6.5t5 -12.5q0 -15 -8 -27q-2 -5 -8 -11.5t-7 -8.5q-3 -4 -25 -35.5t-30.5 -42.5t-32 -42.5t-36.5 -46.5t-37.5 -43t-41 -42.5t-40 -34t-42.5 -29t-41 -17 t-42 -7.5q-43 0 -62.5 19.5t-19.5 62.5q0 58 30 133q-169 -205 -282 -205q-49 0 -49 78zM297 643q0 19 22 19q31 0 99.5 -45.5t68.5 -77.5q0 -29 -34 -29q-9 0 -21 6q-8 15 -10 27q-10 8 -66 47q-59 41 -59 53z" />
<glyph unicode="&#xfa;" horiz-adv-x="608" d="M29 90q0 50 12 103.5t39.5 115t44.5 96.5t53 101q10 18 35 18q19 0 31 -10t12 -29q0 -9 -16 -45t-37 -78t-23 -47q-74 -156 -74 -202q0 -13 7 -13q23 0 73 45t108 113t94.5 112.5t62.5 78.5q2 19 14.5 34t32.5 15q18 0 36.5 -10.5t18.5 -28.5q0 -10 -15.5 -46 t-36.5 -79.5t-22 -46.5q-69 -158 -69 -205q0 -1 -1 -4q1 -5 3 -6q45 0 108 52.5t113 115.5t94 115.5t57 52.5q9 0 14 -6.5t5 -12.5q0 -15 -8 -27q-2 -5 -8 -11.5t-7 -8.5q-3 -4 -25 -35.5t-30.5 -42.5t-32 -42.5t-36.5 -46.5t-37.5 -43t-41 -42.5t-40 -34t-42.5 -29t-41 -17 t-42 -7.5q-43 0 -62.5 19.5t-19.5 62.5q0 58 30 133q-169 -205 -282 -205q-49 0 -49 78zM297 559q0 32 68.5 77.5t99.5 45.5q22 0 22 -18q0 -7 -24.5 -27t-60.5 -45.5t-40 -28.5q-2 -10 -10 -26q-14 -7 -22 -7q-33 0 -33 29z" />
<glyph unicode="&#xfb;" horiz-adv-x="608" d="M29 90q0 50 12 103.5t39.5 115t44.5 96.5t53 101q10 18 35 18q19 0 31 -10t12 -29q0 -9 -16 -45t-37 -78t-23 -47q-74 -156 -74 -202q0 -13 7 -13q23 0 73 45t108 113t94.5 112.5t62.5 78.5q2 19 14.5 34t32.5 15q18 0 36.5 -10.5t18.5 -28.5q0 -10 -15.5 -46 t-36.5 -79.5t-22 -46.5q-69 -158 -69 -205q0 -1 -1 -4q1 -5 3 -6q45 0 108 52.5t113 115.5t94 115.5t57 52.5q9 0 14 -6.5t5 -12.5q0 -15 -8 -27q-2 -5 -8 -11.5t-7 -8.5q-3 -4 -25 -35.5t-30.5 -42.5t-32 -42.5t-36.5 -46.5t-37.5 -43t-41 -42.5t-40 -34t-42.5 -29t-41 -17 t-42 -7.5q-43 0 -62.5 19.5t-19.5 62.5q0 58 30 133q-169 -205 -282 -205q-49 0 -49 78zM297 580q0 9 58.5 55.5t74.5 46.5q10 0 23 -13t21.5 -27t20.5 -35t15 -25q22 -22 22 -31q0 -7 -10 -13t-16 -6q-7 0 -14 3t-12.5 6t-12.5 10.5t-10.5 12t-10 14.5t-8.5 14t-7.5 14.5 t-6.5 11.5q-46 -26 -62 -61q-4 -16 -20 -16q-12 0 -28.5 12.5t-16.5 26.5z" />
<glyph unicode="&#xfc;" horiz-adv-x="608" d="M29 90q0 50 12 103.5t39.5 115t44.5 96.5t53 101q10 18 35 18q19 0 31 -10t12 -29q0 -9 -16 -45t-37 -78t-23 -47q-74 -156 -74 -202q0 -13 7 -13q23 0 73 45t108 113t94.5 112.5t62.5 78.5q2 19 14.5 34t32.5 15q18 0 36.5 -10.5t18.5 -28.5q0 -10 -15.5 -46 t-36.5 -79.5t-22 -46.5q-69 -158 -69 -205q0 -1 -1 -4q1 -5 3 -6q45 0 108 52.5t113 115.5t94 115.5t57 52.5q9 0 14 -6.5t5 -12.5q0 -15 -8 -27q-2 -5 -8 -11.5t-7 -8.5q-3 -4 -25 -35.5t-30.5 -42.5t-32 -42.5t-36.5 -46.5t-37.5 -43t-41 -42.5t-40 -34t-42.5 -29t-41 -17 t-42 -7.5q-43 0 -62.5 19.5t-19.5 62.5q0 58 30 133q-169 -205 -282 -205q-49 0 -49 78zM276 582q0 17 15 28t31 11q20 0 37.5 -9t17.5 -28q0 -18 -18.5 -30.5t-34.5 -12.5t-32 12t-16 29zM387 582q0 17 16 26.5t33 9.5q18 0 33.5 -8.5t15.5 -27.5t-19 -30t-34 -11 q-18 0 -31.5 11.5t-13.5 29.5z" />
<glyph unicode="&#xfd;" horiz-adv-x="651" d="M2 -424q0 100 166 315q82 101 217 207q28 101 45 197q-34 -46 -70 -87.5t-84.5 -90t-97.5 -78t-88 -29.5q-28 0 -39.5 24t-11.5 54q0 48 11 98t36 108.5t40.5 91t50.5 97.5q7 14 11 21q11 20 35 20q18 0 30.5 -11t12.5 -30q0 -16 -76 -168q-73 -158 -73 -204q0 -13 8 -13 q59 0 336 348q3 21 16 35.5t35 14.5q51 0 51 -47q0 -23 -74 -275q13 9 63 46t71 52.5t60 45.5t68.5 55.5t57.5 52.5q12 12 25 12q16 0 16 -16q0 -24 -86 -100.5t-162 -135t-141 -104.5q-64 -209 -104 -301q-122 -281 -271 -281q-35 0 -59.5 20t-24.5 56zM70 -418 q0 -20 22 -20q36 0 78.5 51.5t80.5 131.5t61.5 138.5t41.5 110.5q-78 -72 -151 -168q-43 -54 -88 -129t-45 -115zM256 518q0 32 68.5 77.5t99.5 45.5q22 0 22 -18q0 -7 -24 -27t-60.5 -45.5t-39.5 -28.5q-1 -7 -11 -26q-14 -7 -22 -7q-33 0 -33 29z" />
<glyph unicode="&#xfe;" horiz-adv-x="745" d="M-221 -391q0 31 36 115.5t96 205.5t62 125q42 93 121 240q4 8 24.5 42.5t26.5 53.5q7 20 14 62.5t11 58.5q44 164 138 358t196 283q11 8 22 8q25 0 47.5 -21t22.5 -46q0 -67 -33.5 -157t-93 -191t-106 -171.5t-106.5 -157.5q-17 -23 -24 -34q7 -12 7 -35 q0 -36 -8.5 -107.5t-8.5 -107.5q0 -21 0.5 -31.5t4 -31.5t14 -31t26.5 -10q34 0 84 68t84 132q-25 30 -40 74.5t-15 85.5q0 52 25.5 90.5t78.5 38.5q90 0 90 -119q0 -20 -2 -35.5t-8 -32t-9 -24t-15 -29t-17 -30.5q27 -10 56 -10q83 0 169.5 43.5t141.5 109.5q1 2 4.5 6 t5.5 6.5t5.5 6l6.5 6.5t6.5 5.5t7 3.5t7.5 1q8 0 13 -8t5 -17q0 -12 -10 -32q-44 -86 -152.5 -142.5t-209.5 -56.5q-40 0 -78 14q-42 -71 -112.5 -152t-115.5 -81q-43 0 -72.5 31t-42.5 81.5t-17.5 91.5t-4.5 83v4q-58 -113 -96 -207q-62 -156 -104 -246q-39 -89 -77.5 -153 t-56.5 -64q-11 0 -17.5 13t-6.5 24zM254 537q268 419 268 532l2 8q-24 0 -107.5 -168.5t-123.5 -261.5q-33 -89 -39 -110zM455 385q0 -41 18 -78q37 55 37 92q0 17 -5.5 36.5t-17.5 19.5q-18 0 -25 -23.5t-7 -46.5z" />
<glyph unicode="&#xff;" horiz-adv-x="651" d="M2 -424q0 100 166 315q82 101 217 207q28 101 45 197q-34 -46 -70 -87.5t-84.5 -90t-97.5 -78t-88 -29.5q-28 0 -39.5 24t-11.5 54q0 48 11 98t36 108.5t40.5 91t50.5 97.5q7 14 11 21q11 20 35 20q18 0 30.5 -11t12.5 -30q0 -16 -76 -168q-73 -158 -73 -204q0 -13 8 -13 q59 0 336 348q3 21 16 35.5t35 14.5q51 0 51 -47q0 -23 -74 -275q13 9 63 46t71 52.5t60 45.5t68.5 55.5t57.5 52.5q12 12 25 12q16 0 16 -16q0 -24 -86 -100.5t-162 -135t-141 -104.5q-64 -209 -104 -301q-122 -281 -271 -281q-35 0 -59.5 20t-24.5 56zM70 -418 q0 -20 22 -20q36 0 78.5 51.5t80.5 131.5t61.5 138.5t41.5 110.5q-78 -72 -151 -168q-43 -54 -88 -129t-45 -115zM276 602q0 17 15 28t31 11q20 0 37.5 -9t17.5 -28q0 -18 -18.5 -30.5t-34.5 -12.5t-32 12t-16 29zM387 602q0 17 16.5 27t32.5 10q18 0 33.5 -9t15.5 -28 t-19 -30t-34 -11q-18 0 -31.5 11.5t-13.5 29.5z" />
<glyph unicode="&#x152;" horiz-adv-x="1615" d="M-10 111q0 121 67 289.5t152 316.5q19 33 53.5 79.5t81 99.5t98 86.5t90.5 27.5q116 129 224 129q105 0 155 -58.5t50 -162.5q0 -121 -50 -250q31 23 82 57q-10 15 -10 43q0 26 12.5 60t28.5 57q70 98 212 157.5t271 59.5q91 0 148 -39.5t57 -128.5q0 -30 -13.5 -73.5 t-35.5 -43.5q-20 0 -33.5 14t-13.5 33q0 12 5 35t5 35q0 88 -113 88q-85 0 -187.5 -30t-162.5 -79q-98 -81 -98 -151q0 -8 2 -10q115 47 199 47q27 0 57.5 -17.5t30.5 -46.5q0 -40 -69 -67t-118 -27q-63 0 -112 14q-164 -87 -267 -215q-135 -171 -135 -315q0 -54 24 -94 t64.5 -62t87 -32.5t99.5 -10.5q185 0 385 99q186 91 364 284q11 12 36 41.5t40 44.5q21 21 35 21q12 0 19.5 -8t7.5 -19q0 -3 -5 -18q-89 -150 -233.5 -270.5t-321 -190.5t-350.5 -70q-109 0 -197.5 39.5t-134.5 128.5q-28 62 -28 103q0 28 8 86q-235 -209 -432 -209 q-56 0 -93.5 33t-37.5 90zM74 111q0 -30 6.5 -41t28.5 -11q117 0 258.5 93t267.5 241q34 51 82 105q79 111 124.5 220t45.5 197q0 60 -28.5 105t-82.5 45q-76 0 -172 -96q23 -30 23 -68q0 -47 -60.5 -193.5t-97.5 -146.5q-18 0 -18 19q0 16 49 129q49 112 49 163q0 19 -7 26 t-24 7q-76 0 -184.5 -161.5t-184 -351.5t-75.5 -281zM1163 711q103 4 103 22q0 1 -2.5 0t-5.5 -2.5t-5 -1.5q-31 0 -90 -18z" />
<glyph unicode="&#x153;" horiz-adv-x="743" d="M57 135q0 64 36 161t77 153q32 38 53 38q13 0 19 -9.5t6 -18.5q0 -8 -10.5 -34.5t-25 -58.5t-15.5 -36q-52 -114 -52 -180q0 -37 27 -37q34 0 80 50t70 93q-43 18 -68 53.5t-25 83.5q0 52 31 109t82 57q41 0 69 -29t38 -71q76 94 135 94q38 0 65 -33t27 -71 q0 -43 -27 -82.5t-65 -63.5q-29 -19 -87 -45.5t-98 -36.5q-41 -87 -41 -123q0 -10 3 -12t12 -2q123 11 281.5 120t240.5 222q2 2 6 7t7 8t7.5 5.5t8.5 2.5q8 0 12 -7.5t4 -13.5q0 -27 -16 -49q-81 -121 -231 -228t-290 -137q-8 -2 -24 -2q-32 0 -61.5 19.5t-38.5 50.5 q-67 -59 -123 -59q-47 0 -73 33.5t-26 78.5zM301 391q0 -49 49 -69q17 49 17 90q0 82 -25 82q-19 0 -30 -38t-11 -65zM451 319q60 21 94 52q57 52 57 92q0 8 -6 8q-25 0 -65 -43t-80 -109z" />
<glyph unicode="&#x178;" horiz-adv-x="1325" d="M-10 690q0 11 7.5 20t20.5 9q11 0 23 -7.5t23 -17t33.5 -17t52.5 -7.5q122 0 300.5 95.5t294.5 199.5q2 2 15 14.5t22 21.5q5 6 39 44.5t60.5 67t31.5 30.5q8 4 25 4q20 0 40.5 -10t20.5 -29q0 -12 -75 -141q-8 -13 -40 -67t-52.5 -89t-57 -98t-61.5 -109.5t-58 -107.5 t-54.5 -108t-42 -94t-30.5 -83t-10 -59q0 -13 4 -18t15 -5q33 0 131 51q109 58 218.5 157.5t204 221.5t168.5 235t144 238q2 30 15.5 55t39.5 25q24 0 51 -15.5t27 -41.5q0 -2 -1 -6.5t-1 -6.5q-12 -34 -35 -137q-33 -139 -69 -248q-14 -41 -42.5 -135t-46.5 -145 q-29 -83 -57.5 -155.5t-70.5 -160.5t-86.5 -160t-104 -144.5t-124 -123.5t-145 -87t-167.5 -46q-18 -2 -58 -2q-55 0 -106.5 11t-98 34t-81.5 57t-55.5 83t-20.5 108q0 19 8.5 52.5t24.5 33.5q28 0 37 -78q18 -102 99.5 -162.5t188.5 -60.5q191 0 394 203q48 48 118 158 q238 367 318 858q-39 -60 -78 -116t-98.5 -135t-116.5 -145.5t-127 -135.5t-135 -117t-135.5 -78.5t-133.5 -30.5q-44 0 -73 21t-29 65q0 194 317 745q-354 -270 -598 -270q-30 0 -63 7.5t-63.5 30t-30.5 54.5zM1075 1196q0 17 15 28t30 11q20 0 38 -9t18 -28 q0 -18 -19 -30.5t-35 -12.5q-15 0 -31 12t-16 29zM1186 1196q0 17 16.5 27t32.5 10q18 0 33.5 -9t15.5 -28t-19 -30t-34 -11q-18 0 -31.5 11.5t-13.5 29.5z" />
<glyph unicode="&#x2c6;" horiz-adv-x="296" d="M31 1030q0 9 58.5 56t74.5 47q10 0 23 -13t21.5 -27.5t20.5 -35t15 -25.5q22 -22 22 -31q0 -7 -10 -12.5t-16 -5.5q-7 0 -14 3t-12.5 6t-12.5 10.5t-10.5 12t-10 14.5t-8.5 14t-7.5 14.5t-6.5 11.5q-46 -26 -62 -61q-4 -17 -20 -17q-12 0 -28.5 12.5t-16.5 26.5z" />
<glyph unicode="&#x2dc;" horiz-adv-x="362" d="M31 1051q0 17 45.5 44t62.5 27q25 0 46.5 -31.5t43.5 -31.5q19 0 40.5 7t25.5 17q7 13 16 13q21 0 21 -19q0 -27 -40.5 -48t-66.5 -21q-44 0 -61 34l-8 11q-7 14 -19 14q-18 0 -40.5 -21.5t-30.5 -21.5q-11 0 -23 7t-12 20z" />
<glyph unicode="&#x2000;" horiz-adv-x="682" />
<glyph unicode="&#x2001;" horiz-adv-x="1365" />
<glyph unicode="&#x2002;" horiz-adv-x="682" />
<glyph unicode="&#x2003;" horiz-adv-x="1365" />
<glyph unicode="&#x2004;" horiz-adv-x="455" />
<glyph unicode="&#x2005;" horiz-adv-x="341" />
<glyph unicode="&#x2006;" horiz-adv-x="227" />
<glyph unicode="&#x2007;" horiz-adv-x="227" />
<glyph unicode="&#x2008;" horiz-adv-x="170" />
<glyph unicode="&#x2009;" horiz-adv-x="273" />
<glyph unicode="&#x200a;" horiz-adv-x="75" />
<glyph unicode="&#x2010;" horiz-adv-x="907" d="M252 338q2 9 6.5 15t8 9.5t12.5 5t12 1.5h14.5h13.5q27 0 65 -1t65 -1q29 0 87 2t87 2q1 0 46 2.5t74 1.5q105 -4 105 -49q0 -17 -17 -26t-34 -9q-33 0 -100 4t-101 4q-42 0 -107.5 -9t-107.5 -9q-37 0 -85 18t-44 39z" />
<glyph unicode="&#x2011;" horiz-adv-x="907" d="M252 338q2 9 6.5 15t8 9.5t12.5 5t12 1.5h14.5h13.5q27 0 65 -1t65 -1q29 0 87 2t87 2q1 0 46 2.5t74 1.5q105 -4 105 -49q0 -17 -17 -26t-34 -9q-33 0 -100 4t-101 4q-42 0 -107.5 -9t-107.5 -9q-37 0 -85 18t-44 39z" />
<glyph unicode="&#x2012;" horiz-adv-x="907" d="M252 338q2 9 6.5 15t8 9.5t12.5 5t12 1.5h14.5h13.5q27 0 65 -1t65 -1q29 0 87 2t87 2q1 0 46 2.5t74 1.5q105 -4 105 -49q0 -17 -17 -26t-34 -9q-33 0 -100 4t-101 4q-42 0 -107.5 -9t-107.5 -9q-37 0 -85 18t-44 39z" />
<glyph unicode="&#x2013;" horiz-adv-x="997" d="M229 315q0 41 70 41q27 0 82 -4t82 -4q30 0 128 -1t126 -1q33 0 77.5 -4t96 -21.5t51.5 -44.5q0 -17 -16 -25.5t-33 -8.5q-33 0 -100 4t-101 4q-42 0 -166 -4t-166 -4t-86.5 18.5t-44.5 54.5z" />
<glyph unicode="&#x2014;" horiz-adv-x="1165" d="M229 315q0 41 70 41q27 0 82 -4t82 -4q30 0 209 -2t207 -2q33 0 77.5 -4t96 -21.5t51.5 -44.5q0 -17 -16 -25.5t-33 -8.5q-33 0 -100 4t-101 4q-42 0 -247 -3t-247 -3t-86.5 18.5t-44.5 54.5z" />
<glyph unicode="&#x2018;" horiz-adv-x="256" d="M31 852q0 31 19 87t54 105.5t70 49.5q18 0 35.5 -8t17.5 -25q0 -15 -22 -37q-6 -6 -21.5 -22.5t-22.5 -24.5t-18.5 -23.5t-17 -27.5t-10 -29t-4.5 -35q0 -16 14 -22.5t14 -18.5q0 -17 -14 -25t-27 -8q-67 0 -67 64z" />
<glyph unicode="&#x2019;" horiz-adv-x="653" d="M477 758q0 6 16 29.5t32 53.5t16 54q0 80 -19 109q-4 8 -4 14q0 16 17 25.5t32 9.5q37 0 51.5 -27.5t14.5 -62.5q0 -30 -14.5 -84.5t-42 -104t-56.5 -49.5q-14 0 -28.5 8t-14.5 25z" />
<glyph unicode="&#x201a;" horiz-adv-x="653" d="M465 -125q0 6 16.5 29.5t32.5 53.5t16 54q0 81 -18 109q-6 6 -6 14q0 16 17.5 25.5t33.5 9.5q35 0 49.5 -27.5t14.5 -62.5q0 -30 -14.5 -84.5t-42 -104t-56.5 -49.5q-13 0 -28 8.5t-15 24.5z" />
<glyph unicode="&#x201c;" horiz-adv-x="483" d="M31 852q0 31 19 87t54 105.5t70 49.5q18 0 35.5 -8t17.5 -25q0 -15 -22 -37q-6 -6 -21.5 -22.5t-22.5 -24.5t-18.5 -23.5t-17 -27.5t-10 -29t-4.5 -35q0 -16 14 -22.5t14 -18.5q0 -17 -14 -25t-27 -8q-67 0 -67 64zM254 846q0 50 42.5 138.5t92.5 88.5q18 0 41 -13.5 t23 -31.5q0 -7 -17 -24q-7 -7 -30.5 -25.5t-37 -34t-20.5 -33.5q-20 -50 -20 -69q0 -6 2 -7t8 -1l6 -3q21 0 21 -18q0 -17 -18.5 -29t-31.5 -12q-31 0 -46 22.5t-15 51.5z" />
<glyph unicode="&#x201d;" horiz-adv-x="854" d="M477 758q0 6 16 29.5t32 53.5t16 54q0 80 -19 109q-4 8 -4 14q0 16 17 25.5t32 9.5q37 0 51.5 -27.5t14.5 -62.5q0 -30 -14.5 -84.5t-42 -104t-56.5 -49.5q-14 0 -28.5 8t-14.5 25zM629 803q0 5 4 11t8.5 10.5t11.5 11t9 8.5q61 58 61 147q0 29 -6 56l-6 26q0 3 -1 9.5 t-1 9.5q0 14 17 23t32 9q25 0 41 -22.5t20 -46t4 -49.5q0 -50 -14 -93q-16 -39 -54.5 -93t-68.5 -54q-16 0 -36.5 11t-20.5 26z" />
<glyph unicode="&#x201e;" horiz-adv-x="854" d="M465 -219q0 4 31.5 54.5t31.5 82.5q0 81 -18 107q-4 8 -4 16q0 14 17 24.5t32 10.5q25 0 41 -16.5t20.5 -35t4.5 -38.5q0 -30 -14.5 -84.5t-42 -104t-56.5 -49.5q-14 0 -28.5 8t-14.5 25zM614 -174q0 6 6 13.5t17 17t12 10.5q62 56 62 147q0 2 -6 56l-7 24q-2 8 -2 19 q0 16 16.5 25t32.5 9q36 0 51 -37.5t15 -80.5q0 -53 -16 -92q-12 -38 -51.5 -94t-69.5 -56q-15 0 -37.5 12t-22.5 27z" />
<glyph unicode="&#x2022;" horiz-adv-x="311" d="M31 485q0 47 38 70t83 23q129 0 129 -84q0 -62 -42.5 -92.5t-105.5 -30.5q-38 0 -70 38.5t-32 75.5z" />
<glyph unicode="&#x2026;" horiz-adv-x="956" d="M31 72q0 35 27 51t59 16q92 0 92 -61q0 -44 -30.5 -66t-74.5 -22q-28 0 -50.5 27.5t-22.5 54.5zM383 59q0 35 27 51.5t59 16.5q92 0 92 -61q0 -44 -30.5 -66.5t-75.5 -22.5q-26 0 -49 28t-23 54zM737 70q0 35 27 51t59 16q92 0 92 -61q0 -44 -30.5 -66t-75.5 -22 q-26 0 -49 28t-23 54z" />
<glyph unicode="&#x202f;" horiz-adv-x="273" />
<glyph unicode="&#x2039;" horiz-adv-x="651" d="M31 510q0 48 39 61q28 9 71.5 43t101 92.5t94.5 98t96.5 106.5t62.5 70q40 51 88 51q14 0 25.5 -8t11.5 -25q0 -12 -13 -34q-20 -25 -22 -27q-49 -53 -110.5 -116.5t-99.5 -101.5t-120 -118t-106 -104q51 -41 116 -96t144.5 -127.5t89.5 -94.5q16 -32 16 -51 q0 -15 -9 -31t-28 -16q-7 0 -12.5 1.5t-9.5 6.5t-5.5 7.5t-5 10t-4.5 9.5q-16 50 -340 286q-35 24 -53 48t-18 59z" />
<glyph unicode="&#x203a;" horiz-adv-x="786" d="M174 145q0 73 77.5 183t173.5 200.5t177 143.5q-57 6 -114.5 33t-94.5 65q-52 49 -73 98.5t-21 120.5q0 16 10 31.5t29 15.5q27 0 40.5 -28t18 -63.5t26 -75.5t60.5 -58q120 -59 213 -59q23 0 41.5 -14t18.5 -38q0 -43 -47 -63q-126 -60 -253.5 -190.5t-185.5 -260.5 q35 -18 35 -45q0 -24 -30 -43.5t-52 -19.5q-27 0 -38 21t-11 46z" />
<glyph unicode="&#x205f;" horiz-adv-x="341" />
<glyph unicode="&#x20ac;" horiz-adv-x="1087" d="M23 528q0 25 13.5 41t40 22t44 7.5t45.5 1.5h16q6 14 41 76q-53 -6 -145 -14q-21 -2 -38 11.5t-17 35.5q0 75 199 73h4h3h4h58q41 56 98 118.5t129.5 128.5t152 108.5t144.5 42.5q68 0 103.5 -45t35.5 -113q0 -86 -26 -194t-76 -152q-21 -21 -39 -21q-15 0 -22 10.5 t-7 22.5q0 7 11 35q30 49 46.5 128.5t16.5 147.5q0 60 -11 78q-11 19 -36 19q-43 0 -104 -35t-119.5 -87.5t-107 -105t-79.5 -94.5l25 -4q4 -1 24.5 -3t48 -5.5t50.5 -7.5q44 -8 76 -22t32 -27q0 -18 -21 -26.5t-40 -8.5q-35 0 -106 8t-107 8q-27 0 -39 -2q-27 -44 -51 -90 q27 -2 86 -10q5 -1 53.5 -3.5t81.5 -5.5q48 -3 83.5 -14t35.5 -24q0 -37 -70 -37q-27 0 -83 3t-85 3q-47 0 -145 -4q-72 -171 -72 -305q0 -96 38 -146.5t128 -50.5q142 0 312.5 95.5t273.5 217.5q9 11 42 55t54 64q17 17 33 17q8 0 14 -5t6 -14q0 -12 -10 -22 q-39 -59 -58 -86.5t-52 -70t-60.5 -68t-68.5 -57t-91 -60.5q-241 -146 -387 -146q-74 0 -157 39q-33 16 -57 45.5t-36 66t-17 71t-5 71.5q0 126 55 276q-8 -1 -25.5 -3t-25.5 -3q-4 -2 -14 -2q-21 0 -34 13t-13 34z" />
<glyph unicode="&#x2122;" horiz-adv-x="800" d="M31 283q0 13 10.5 26t26.5 13q8 0 23 -4t18 -5q32 -8 49 -8q105 0 207 21q4 2 16 2q11 0 22 -6t11 -17q0 -12 -27 -24.5t-63 -18.5q-69 -11 -97 -14q-1 -24 -4 -51.5t-9.5 -68.5t-19.5 -67t-30 -26q-19 0 -28 15.5t-9 31.5t43 158q-35 -7 -64 -7q-26 0 -50.5 12.5 t-24.5 37.5zM317 76q0 5 50 55l34 31q32 28 58 65q24 31 30 49q1 2 5 14.5t6.5 19t9.5 13.5t16 7q18 0 40 -13t22 -34q0 -8 -2 -25t-2 -25q0 -1 -2 -6t-3 -8t1 -4q2 0 3.5 2t4.5 7t6 9q82 119 111 119q17 0 35 -11t18 -32q0 -11 -17 -76q-16 -58 -16 -81q0 -17 18 -35l9 -8 q18 -14 18 -31q0 -12 -17 -22.5t-30 -10.5q-29 0 -44 43t-15 78q0 7 1 22t1 23l-11 -14q-15 -21 -30 -45q-11 -22 -30 -43t-38 -21q-20 0 -30 33t-13 65q-3 -4 -20.5 -26.5t-31.5 -40t-32.5 -38t-33 -32.5t-23.5 -12q-15 0 -35.5 10.5t-20.5 28.5z" />
<glyph unicode="&#x25fc;" horiz-adv-x="552" d="M0 0v553h553v-553h-553z" />
</font>
</defs>
</svg>
